<?xml version="1.0" standalone="no"?>
<!DOCTYPE svg PUBLIC "-//W3C//DTD SVG 1.1//EN" "http://www.w3.org/Graphics/SVG/1.1/DTD/svg11.dtd" >
<svg xmlns="http://www.w3.org/2000/svg">
    <defs>
        <font id="Apercu-BlackItalic">
            <font-face font-family="Apercu"
                       units-per-em="1000"
                       ascent="958"
                       descent="-279"
                       bbox="-108 -279 1215 958"
                    />
            <missing-glyph horiz-adv-x="0" />
            
            <glyph glyph-name="#" unicode="&#x23;" horiz-adv-x="680" d=" M166,301 L199,399 L84,399 L98,517 L237,517 L296,700 L416,700 L357,517 L449,517 L509,700 L629,700 L569,517 L680,517 L666,399 L531,399 L498,301 L613,301 L599,183 L460,183 L401,0 L281,0 L340,183 L248,183 L188,0 L68,0 L128,183 L17,183 L31,301 M286,301 L378,301 L411,399 L319,399"/> 
            <glyph glyph-name="$" unicode="&#x24;" horiz-adv-x="537" d=" M395,496 Q370,560 324,560 Q301,560 286.5,546.5 Q272,533 272,512 Q272,480 301,456.5 Q330,433 378,410 Q405,397 428.5,380 Q452,363 469,341 Q486,319 496,291 Q506,263 506,227 Q506,181 491,141.5 Q476,102 448,71.5 Q420,41 379,21 Q338,1 287,-5 L271,-90 L133,-90 L151,5 Q116,17 90,37 Q64,57 46,82 Q28,107 17,135.5 Q6,164 2,193 L149,275 Q150,249 157,225 Q164,201 177,183 Q190,165 208.5,154.5 Q227,144 252,144 Q281,144 302.5,161.5 Q324,179 324,212 Q324,229 319,242.5 Q314,256 301.5,268 Q289,280 268,292.5 Q247,305 216,321 Q193,333 172,349 Q151,365 134.5,386.5 Q118,408 108.5,436 Q99,464 99,499 Q99,539 113,573.5 Q127,608 152,635 Q177,662 211.5,679.5 Q246,697 287,704 L304,790 L442,790 L423,693 Q465,677 492.5,646.5 Q520,616 537,577"/> 
            <glyph glyph-name="%" unicode="&#x25;" horiz-adv-x="818" d=" M59,522 Q59,558 72.5,591.5 Q86,625 111.5,651 Q137,677 173,692.5 Q209,708 255,708 Q321,708 361,670.5 Q401,633 401,570 Q401,534 387,501.5 Q373,469 347.5,443.5 Q322,418 286.5,403 Q251,388 208,388 Q139,388 99,425 Q59,462 59,522 M240,602 Q214,602 195.5,583 Q177,564 177,536 Q177,517 189.5,505.5 Q202,494 222,494 Q248,494 265.5,512.5 Q283,531 283,557 Q283,578 271.5,590 Q260,602 240,602 M466,126 Q466,162 479.5,195.5 Q493,229 518.5,255 Q544,281 580,296.5 Q616,312 662,312 Q728,312 768,274.5 Q808,237 808,174 Q808,138 794,105.5 Q780,73 754.5,47.5 Q729,22 693.5,7 Q658,-8 615,-8 Q546,-8 506,29 Q466,66 466,126 M647,206 Q621,206 602.5,187 Q584,168 584,140 Q584,121 596.5,109.5 Q609,98 629,98 Q655,98 672.5,116.5 Q690,135 690,161 Q690,182 678.5,194 Q667,206 647,206 M818,675 L140,-44 L66,26 L743,745"/> 
            <glyph glyph-name="&amp;" unicode="&#x26;" horiz-adv-x="604" d=" M590,283 Q576,248 559,214 Q542,180 519,148 L604,0 L431,0 L409,39 Q374,17 335,4.5 Q296,-8 250,-8 Q197,-8 154.5,7 Q112,22 82,48 Q52,74 35.5,109.5 Q19,145 19,187 Q19,347 197,427 Q188,448 180.5,473 Q173,498 173,528 Q173,564 187,596.5 Q201,629 226.5,654 Q252,679 288.5,693.5 Q325,708 370,708 Q444,708 486,670 Q528,632 528,565 Q528,499 488.5,456 Q449,413 386,381 L447,273 Q467,305 483,338 Q499,371 511,401 M265,128 Q286,128 306.5,135 Q327,142 346,155 L254,320 Q209,298 192,270 Q175,242 175,213 Q175,172 199.5,150 Q224,128 265,128 M315,534 Q315,508 328,484 Q354,496 370,512 Q386,528 386,552 Q386,566 378.5,575 Q371,584 356,584 Q339,584 327,570.5 Q315,557 315,534"/> 
            <glyph glyph-name="'" unicode="&#x27;" horiz-adv-x="283" d=" M114,708 L283,708 L197,449 L98,449"/> 
            <glyph glyph-name="(" unicode="&#x28;" horiz-adv-x="374" d=" M374,750 Q284,636 233,497.5 Q182,359 182,214 Q182,132 191,70.5 Q200,9 219,-50 L83,-50 Q66,-3 52,67.5 Q38,138 38,210 Q38,378 92.5,514 Q147,650 238,750"/> 
            <glyph glyph-name=")" unicode="&#x29;" horiz-adv-x="267" d=" M-69,-50 Q21,64 72,202.5 Q123,341 123,486 Q123,568 114,629.5 Q105,691 86,750 L222,750 Q239,703 253,632.5 Q267,562 267,490 Q267,322 212.5,186 Q158,50 67,-50"/> 
            <glyph glyph-name="*" unicode="&#x2A;" horiz-adv-x="469" d=" M220,594 L242,708 L354,708 L332,594 L441,629 L469,526 L348,489 L397,398 L295,330 L246,422 L160,327 L81,398 L164,488 L66,523 L112,631"/> 
            <glyph glyph-name="+" unicode="&#x2B;" horiz-adv-x="555" d=" M413,565 L378,387 L555,387 L528,247 L351,247 L316,69 L174,69 L209,247 L32,247 L59,387 L236,387 L271,565"/> 
            <glyph glyph-name="," unicode="&#x2C;" horiz-adv-x="273" d=" M80,146 L273,146 L55,-156 L-50,-156"/> 
            <glyph glyph-name="-" unicode="&#x2D;" horiz-adv-x="452" d=" M59,387 L452,387 L425,247 L32,247"/> 
            <glyph glyph-name="." unicode="&#x2E;" horiz-adv-x="204" d=" M18,85 Q18,125 44.5,151.5 Q71,178 111,178 Q151,178 177.5,151.5 Q204,125 204,85 Q204,45 177.5,18.5 Q151,-8 111,-8 Q71,-8 44.5,18.5 Q18,45 18,85"/> 
            <glyph glyph-name="/" unicode="&#x2F;" horiz-adv-x="654" d=" M654,750 L70,-50 L-96,-50 L487,750"/> 
            <glyph glyph-name="0" unicode="&#x30;" horiz-adv-x="590" d=" M368,708 Q474,708 532,641.5 Q590,575 590,438 Q590,355 570,275 Q550,195 508.5,132 Q467,69 402.5,30.5 Q338,-8 249,-8 Q198,-8 156.5,10.5 Q115,29 85.5,63 Q56,97 40.5,145.5 Q25,194 25,255 Q25,342 45.5,423.5 Q66,505 108,568 Q150,631 214.5,669.5 Q279,708 368,708 M349,564 Q309,564 278,536 Q247,508 226,465.5 Q205,423 194,372.5 Q183,322 183,276 Q183,208 204.5,172 Q226,136 273,136 Q307,136 336,162 Q365,188 386.5,230 Q408,272 420,325 Q432,378 432,432 Q432,491 411.5,527.5 Q391,564 349,564"/> 
            <glyph glyph-name="1" unicode="&#x31;" horiz-adv-x="396" d=" M396,700 L259,0 L94,0 L189,482 L47,406 L82,584 L306,700"/> 
            <glyph glyph-name="2" unicode="&#x32;" horiz-adv-x="529" d=" M-9,74 L300,387 Q319,406 332.5,421.5 Q346,437 354.5,450.5 Q363,464 366.5,477.5 Q370,491 370,506 Q370,535 354.5,551.5 Q339,568 309,568 Q277,568 256,543.5 Q235,519 230,482 L76,514 Q86,557 105.5,592.5 Q125,628 155.5,653.5 Q186,679 228,693.5 Q270,708 326,708 Q374,708 412,694 Q450,680 476,656.5 Q502,633 515.5,602.5 Q529,572 529,538 Q529,500 522.5,470.5 Q516,441 502.5,414.5 Q489,388 468.5,363 Q448,338 421,310 L258,140 L473,140 L446,0 L-22,0"/> 
            <glyph glyph-name="3" unicode="&#x33;" horiz-adv-x="554" d=" M164,223 Q166,185 188,158.5 Q210,132 252,132 Q294,132 323.5,159.5 Q353,187 353,238 Q353,276 330,300 Q307,324 272,324 Q240,324 214,310 L163,403 L306,562 L111,562 L137,700 L554,700 L541,634 L354,435 Q389,430 418,417.5 Q447,405 468,382.5 Q489,360 500.5,327 Q512,294 512,249 Q512,192 493,145 Q474,98 439.5,64 Q405,30 356,11 Q307,-8 247,-8 Q197,-8 153.5,7 Q110,22 78,49.5 Q46,77 27,115.5 Q8,154 8,201"/> 
            <glyph glyph-name="4" unicode="&#x34;" horiz-adv-x="558" d=" M292,114 L-9,114 L7,200 L393,700 L558,700 L470,252 L551,252 L525,114 L444,114 L421,0 L269,0 M318,252 L360,462 L207,252"/> 
            <glyph glyph-name="5" unicode="&#x35;" horiz-adv-x="547" d=" M166,214 Q166,176 188.5,157 Q211,138 239,138 Q286,138 312.5,169 Q339,200 339,248 Q339,290 318.5,309.5 Q298,329 265,329 Q235,329 208,314.5 Q181,300 162,274 L47,300 L161,700 L547,700 L521,562 L265,562 L226,444 Q245,453 266,458.5 Q287,464 318,464 Q364,464 398.5,449.5 Q433,435 456.5,410 Q480,385 492,351.5 Q504,318 504,281 Q504,213 484,159.5 Q464,106 427.5,68.5 Q391,31 340,11.5 Q289,-8 228,-8 Q180,-8 140.5,5.5 Q101,19 72.5,43 Q44,67 28.5,100.5 Q13,134 13,174 Q13,179 13,183.5 Q13,188 14,193"/> 
            <glyph glyph-name="6" unicode="&#x36;" horiz-adv-x="522" d=" M320,448 Q357,448 392,435.5 Q427,423 453.5,399 Q480,375 496,340 Q512,305 512,260 Q512,198 491,148.5 Q470,99 433,64.5 Q396,30 345.5,11 Q295,-8 237,-8 Q137,-8 77.5,45 Q18,98 18,193 Q18,239 36.5,283.5 Q55,328 90,375 L344,708 L522,708 M280,310 Q258,310 239,301.5 Q220,293 206.5,278.5 Q193,264 185.5,244.5 Q178,225 178,204 Q178,169 200,149.5 Q222,130 257,130 Q280,130 298.5,139 Q317,148 329.5,163 Q342,178 349,197 Q356,216 356,236 Q356,271 335.5,290.5 Q315,310 280,310"/> 
            <glyph glyph-name="7" unicode="&#x37;" horiz-adv-x="576" d=" M562,628 L187,0 L14,0 L351,562 L95,562 L122,700 L576,700"/> 
            <glyph glyph-name="8" unicode="&#x38;" horiz-adv-x="528" d=" M342,708 Q383,708 417.5,696 Q452,684 476.5,662 Q501,640 514.5,610 Q528,580 528,544 Q528,486 503.5,444 Q479,402 431,373 Q445,363 457,350.5 Q469,338 478,320.5 Q487,303 492.5,279 Q498,255 498,223 Q498,169 478,126 Q458,83 423,53.5 Q388,24 341,8 Q294,-8 239,-8 Q186,-8 144.5,5.5 Q103,19 74,43 Q45,67 29.5,101 Q14,135 14,176 Q14,312 145,383 Q126,402 114.5,430.5 Q103,459 103,494 Q103,536 120,574.5 Q137,613 168.5,642.5 Q200,672 244,690 Q288,708 342,708 M266,300 Q245,300 227,292 Q209,284 195.5,270 Q182,256 174.5,238 Q167,220 167,199 Q167,181 174,167.5 Q181,154 192.5,144.5 Q204,135 218.5,130.5 Q233,126 247,126 Q292,126 319.5,154 Q347,182 347,221 Q347,258 325.5,279 Q304,300 266,300 M326,584 Q287,584 264.5,559 Q242,534 242,499 Q242,470 259,453 Q276,436 302,436 Q337,436 362.5,459.5 Q388,483 388,521 Q388,550 371.5,567 Q355,584 326,584"/> 
            <glyph glyph-name="9" unicode="&#x39;" horiz-adv-x="555" d=" M253,252 Q215,252 180.5,265 Q146,278 119.5,303 Q93,328 77,365 Q61,402 61,450 Q61,508 82,555.5 Q103,603 140,637 Q177,671 227.5,689.5 Q278,708 336,708 Q436,708 495.5,655 Q555,602 555,507 Q555,461 536.5,416.5 Q518,372 483,325 L229,-8 L51,-8 M293,390 Q315,390 334,398.5 Q353,407 366.5,421.5 Q380,436 387.5,455.5 Q395,475 395,496 Q395,531 373,550.5 Q351,570 316,570 Q293,570 274.5,561 Q256,552 243.5,537 Q231,522 224,503 Q217,484 217,464 Q217,429 237.5,409.5 Q258,390 293,390"/> 
            <glyph glyph-name=":" unicode="&#x3A;" horiz-adv-x="274" d=" M18,85 Q18,125 44.5,151.5 Q71,178 111,178 Q151,178 177.5,151.5 Q204,125 204,85 Q204,45 177.5,18.5 Q151,-8 111,-8 Q71,-8 44.5,18.5 Q18,45 18,85 M88,419 Q88,459 114.5,485.5 Q141,512 181,512 Q221,512 247.5,485.5 Q274,459 274,419 Q274,379 247.5,352.5 Q221,326 181,326 Q141,326 114.5,352.5 Q88,379 88,419"/> 
            <glyph glyph-name=";" unicode="&#x3B;" horiz-adv-x="304" d=" M118,419 Q118,459 144.5,485.5 Q171,512 211,512 Q251,512 277.5,485.5 Q304,459 304,419 Q304,379 277.5,352.5 Q251,326 211,326 Q171,326 144.5,352.5 Q118,379 118,419 M80,146 L273,146 L55,-156 L-50,-156"/> 
            <glyph glyph-name="&lt;" unicode="&#x3C;" horiz-adv-x="440" d=" M28,376 L440,590 L440,422 L215,310 L440,198 L440,30 L28,244"/> 
            <glyph glyph-name="=" unicode="&#x3D;" horiz-adv-x="562" d=" M524,282 L497,142 L32,142 L59,282 M562,478 L535,338 L70,338 L97,478"/> 
            <glyph glyph-name="&gt;" unicode="&#x3E;" horiz-adv-x="479" d=" M479,244 L67,30 L67,198 L292,310 L67,422 L67,590 L479,376"/> 
            <glyph glyph-name="?" unicode="&#x3F;" horiz-adv-x="467" d=" M379,325 Q353,266 316.5,239.5 Q280,213 216,213 Q193,213 168,220.5 Q143,228 123,242.5 Q103,257 90,279 Q77,301 77,330 Q77,357 84,379 Q91,401 108,420 Q125,439 153.5,455 Q182,471 225,486 Q249,494 267,500.5 Q285,507 296.5,514 Q308,521 313.5,529.5 Q319,538 319,550 Q319,566 306,576 Q293,586 272,586 Q246,586 226,567 Q206,548 201,521 L65,552 Q75,584 93.5,612.5 Q112,641 139.5,662 Q167,683 205.5,695.5 Q244,708 295,708 Q331,708 362,698 Q393,688 416.5,670 Q440,652 453.5,627 Q467,602 467,572 Q467,531 454.5,503 Q442,475 418,454.5 Q394,434 358.5,419.5 Q323,405 277,392 Q251,384 231,375.5 Q211,367 211,347 Q211,338 217,332 Q223,326 234,326 Q257,326 274,358 M84,81 Q84,119 109.5,144.5 Q135,170 173,170 Q211,170 236.5,144.5 Q262,119 262,81 Q262,43 236.5,17.5 Q211,-8 173,-8 Q135,-8 109.5,17.5 Q84,43 84,81"/> 
            <glyph glyph-name="@" unicode="&#x40;" horiz-adv-x="869" d=" M232,275 Q232,327 249.5,371 Q267,415 299,447.5 Q331,480 376,498 Q421,516 476,516 Q538,516 575,482 L589,509 L684,509 L637,290 Q634,273 634,263 Q634,230 662,230 Q693,230 715,266.5 Q737,303 737,383 Q737,437 720,478 Q703,519 672,546.5 Q641,574 597.5,588 Q554,602 501,602 Q435,602 377,580.5 Q319,559 276,518.5 Q233,478 208,418.5 Q183,359 183,284 Q183,212 207,162.5 Q231,113 267.5,83 Q304,53 348.5,39.5 Q393,26 435,26 Q464,26 491.5,29 Q519,32 547.5,38.5 Q576,45 607.5,54.5 Q639,64 675,78 L703,-37 Q664,-55 629,-66 Q594,-77 560,-83 Q526,-89 490.5,-91.5 Q455,-94 415,-94 Q335,-94 267,-68.5 Q199,-43 149,4.5 Q99,52 71,120 Q43,188 43,272 Q43,370 76.5,452 Q110,534 171,593 Q232,652 317.5,685 Q403,718 506,718 Q596,718 664,693 Q732,668 777.5,624.5 Q823,581 846,521.5 Q869,462 869,394 Q869,257 813.5,182.5 Q758,108 650,108 Q633,108 615,112.5 Q597,117 582,125 Q567,133 555.5,143 Q544,153 539,165 Q507,133 472,120.5 Q437,108 399,108 Q318,108 275,153 Q232,198 232,275 M465,394 Q444,394 426.5,385.5 Q409,377 396.5,363 Q384,349 377.5,330.5 Q371,312 371,292 Q371,259 388.5,244.5 Q406,230 431,230 Q449,230 465,237.5 Q481,245 493,258.5 Q505,272 512,290.5 Q519,309 519,330 Q519,394 465,394"/> 
            <glyph glyph-name="A" unicode="&#x41;" horiz-adv-x="561" d=" M364,149 L178,149 L104,0 L-82,0 L291,700 L461,700 L561,0 L380,0 M253,301 L349,301 L333,469"/> 
            <glyph glyph-name="B" unicode="&#x42;" horiz-adv-x="616" d=" M408,700 Q453,700 491.5,691 Q530,682 557.5,663 Q585,644 600.5,613.5 Q616,583 616,540 Q616,507 607.5,482 Q599,457 584.5,438 Q570,419 551.5,405.5 Q533,392 513,382 Q545,359 568.5,323.5 Q592,288 592,228 Q592,180 573,138 Q554,96 518.5,65.5 Q483,35 432,17.5 Q381,0 317,0 L14,0 L151,700 M298,562 L274,442 L365,442 Q400,442 425.5,458 Q451,474 451,510 Q451,536 436,549 Q421,562 386,562 M246,294 L218,152 L320,152 Q371,152 399,171.5 Q427,191 427,232 Q427,264 408,279 Q389,294 345,294"/> 
            <glyph glyph-name="C" unicode="&#x43;" horiz-adv-x="710" d=" M548,444 Q544,465 534,485 Q524,505 508,521 Q492,537 469,546.5 Q446,556 416,556 Q367,556 329,533.5 Q291,511 264.5,475 Q238,439 224,394 Q210,349 210,303 Q210,222 248.5,183 Q287,144 352,144 Q399,144 435.5,177 Q472,210 495,259 L653,206 Q624,144 590,102.5 Q556,61 515,36.5 Q474,12 425.5,2 Q377,-8 320,-8 Q258,-8 205,13 Q152,34 113,72.5 Q74,111 52,165 Q30,219 30,285 Q30,369 57.5,445.5 Q85,522 137,580.5 Q189,639 262.5,673.5 Q336,708 429,708 Q493,708 542.5,691 Q592,674 627,644 Q662,614 683,573.5 Q704,533 710,485"/> 
            <glyph glyph-name="D" unicode="&#x44;" horiz-adv-x="676" d=" M14,0 L151,700 L364,700 Q431,700 488,679 Q545,658 587,620.5 Q629,583 652.5,530 Q676,477 676,414 Q676,319 645.5,242.5 Q615,166 559.5,112 Q504,58 426,29 Q348,0 252,0 M260,152 Q317,152 361,171 Q405,190 434.5,223 Q464,256 479.5,301 Q495,346 495,397 Q495,441 482,470 Q469,499 447,516.5 Q425,534 396.5,541 Q368,548 337,548 L297,548 L220,152"/> 
            <glyph glyph-name="E" unicode="&#x45;" horiz-adv-x="628" d=" M628,700 L598,548 L301,548 L282,449 L515,449 L485,297 L252,297 L224,152 L531,152 L501,0 L14,0 L151,700"/> 
            <glyph glyph-name="F" unicode="&#x46;" horiz-adv-x="633" d=" M633,700 L603,548 L301,548 L279,436 L520,436 L491,284 L250,284 L194,0 L14,0 L151,700"/> 
            <glyph glyph-name="G" unicode="&#x47;" horiz-adv-x="708" d=" M471,54 Q438,21 395,6.5 Q352,-8 296,-8 Q243,-8 195,11.5 Q147,31 110.5,68 Q74,105 52,159.5 Q30,214 30,285 Q30,366 56.5,442.5 Q83,519 135,578 Q187,637 263,672.5 Q339,708 438,708 Q556,708 623.5,646.5 Q691,585 708,481 L543,440 Q531,492 498.5,524 Q466,556 412,556 Q359,556 319.5,533.5 Q280,511 253.5,475.5 Q227,440 213.5,396 Q200,352 200,309 Q200,228 239,186 Q278,144 344,144 Q397,144 430.5,168 Q464,192 486,233 L371,233 L396,363 L678,363 L607,0 L471,0"/> 
            <glyph glyph-name="H" unicode="&#x48;" horiz-adv-x="741" d=" M151,700 L331,700 L283,456 L513,456 L561,700 L741,700 L604,0 L424,0 L481,292 L251,292 L194,0 L14,0"/> 
            <glyph glyph-name="I" unicode="&#x49;" horiz-adv-x="331" d=" M194,0 L14,0 L151,700 L331,700"/> 
            <glyph glyph-name="J" unicode="&#x4A;" horiz-adv-x="566" d=" M153,229 L153,219 Q153,184 170.5,164 Q188,144 214,144 Q259,144 279,173.5 Q299,203 309,252 L396,700 L566,700 L478,246 Q465,179 443.5,131 Q422,83 389.5,52 Q357,21 313,6.5 Q269,-8 210,-8 Q153,-8 111.5,9 Q70,26 42.5,54.5 Q15,83 1.5,120 Q-12,157 -12,198"/> 
            <glyph glyph-name="K" unicode="&#x4B;" horiz-adv-x="748" d=" M285,465 L520,700 L748,700 L413,382 L640,0 L424,0 L253,303 L194,0 L14,0 L151,700 L331,700"/> 
            <glyph glyph-name="L" unicode="&#x4C;" horiz-adv-x="511" d=" M331,700 L224,152 L511,152 L481,0 L14,0 L151,700"/> 
            <glyph glyph-name="M" unicode="&#x4D;" horiz-adv-x="815" d=" M151,700 L339,700 L406,316 L623,700 L815,700 L678,0 L516,0 L586,360 L423,64 L294,64 L246,360 L176,0 L14,0"/> 
            <glyph glyph-name="N" unicode="&#x4E;" horiz-adv-x="717" d=" M717,700 L580,0 L407,0 L258,418 L176,0 L14,0 L151,700 L324,700 L473,282 L555,700"/> 
            <glyph glyph-name="O" unicode="&#x4F;" horiz-adv-x="736" d=" M429,708 Q495,708 551.5,688.5 Q608,669 649,630.5 Q690,592 713,535.5 Q736,479 736,405 Q736,317 707.5,241.5 Q679,166 627.5,110.5 Q576,55 503,23.5 Q430,-8 340,-8 Q276,-8 219.5,12.5 Q163,33 121,71 Q79,109 54.5,163.5 Q30,218 30,286 Q30,370 57.5,446.5 Q85,523 136.5,581 Q188,639 262,673.5 Q336,708 429,708 M422,556 Q371,556 331.5,533 Q292,510 265,474 Q238,438 224,393 Q210,348 210,304 Q210,263 221.5,233 Q233,203 252.5,183.5 Q272,164 297.5,154 Q323,144 352,144 Q399,144 436.5,167 Q474,190 500.5,226 Q527,262 541,307.5 Q555,353 555,398 Q555,476 517,516 Q479,556 422,556"/> 
            <glyph glyph-name="P" unicode="&#x50;" horiz-adv-x="634" d=" M246,266 L194,0 L14,0 L151,700 L410,700 Q514,700 574,650.5 Q634,601 634,507 Q634,444 611.5,398.5 Q589,353 550.5,323.5 Q512,294 461.5,280 Q411,266 354,266 M371,412 Q413,412 437,434.5 Q461,457 461,495 Q461,554 398,554 L302,554 L275,412"/> 
            <glyph glyph-name="Q" unicode="&#x51;" horiz-adv-x="736" d=" M429,708 Q495,708 551.5,688.5 Q608,669 649,631 Q690,593 713,537 Q736,481 736,409 Q736,328 713,258.5 Q690,189 648,135 L687,87 L563,-16 L523,33 Q443,-8 340,-8 Q276,-8 219.5,12.5 Q163,33 121,71 Q79,109 54.5,163.5 Q30,218 30,286 Q30,370 57.5,446.5 Q85,523 136.5,581 Q188,639 262,673.5 Q336,708 429,708 M422,556 Q371,556 331.5,533 Q292,510 265,474 Q238,438 224,393 Q210,348 210,304 Q210,263 221.5,233 Q233,203 252.5,183.5 Q272,164 297.5,154 Q323,144 352,144 Q371,144 387.5,148.5 Q404,153 420,160 L361,234 L484,337 L530,279 Q555,338 555,398 Q555,476 517,516 Q479,556 422,556"/> 
            <glyph glyph-name="R" unicode="&#x52;" horiz-adv-x="617" d=" M278,288 L244,288 L187,0 L14,0 L151,700 L409,700 Q515,700 566,650 Q617,600 617,521 Q617,479 604,444.5 Q591,410 569,383 Q547,356 517.5,337 Q488,318 455,307 L587,0 L401,0 M357,436 Q399,436 425.5,455.5 Q452,475 452,511 Q452,543 432.5,554.5 Q413,566 382,566 L298,566 L273,436"/> 
            <glyph glyph-name="S" unicode="&#x53;" horiz-adv-x="537" d=" M395,496 Q370,560 324,560 Q301,560 286.5,546.5 Q272,533 272,512 Q272,480 301,456.5 Q330,433 378,410 Q405,397 428.5,380 Q452,363 469,341 Q486,319 496,291 Q506,263 506,227 Q506,176 487.5,133 Q469,90 434.5,58.5 Q400,27 351,9.5 Q302,-8 240,-8 Q183,-8 140.5,9.5 Q98,27 69,55.5 Q40,84 23.5,120 Q7,156 2,193 L149,275 Q150,249 157,225 Q164,201 177,183 Q190,165 208.5,154.5 Q227,144 252,144 Q281,144 302.5,161.5 Q324,179 324,212 Q324,229 319,242.5 Q314,256 301.5,268 Q289,280 268,292.5 Q247,305 216,321 Q193,333 172,349 Q151,365 134.5,386.5 Q118,408 108.5,436 Q99,464 99,499 Q99,545 117,583.5 Q135,622 167,649.5 Q199,677 242,692.5 Q285,708 336,708 Q418,708 466,670.5 Q514,633 537,577"/> 
            <glyph glyph-name="T" unicode="&#x54;" horiz-adv-x="631" d=" M73,700 L631,700 L601,548 L412,548 L305,0 L125,0 L232,548 L43,548"/> 
            <glyph glyph-name="U" unicode="&#x55;" horiz-adv-x="688" d=" M604,266 Q590,196 562,144.5 Q534,93 493,59 Q452,25 399,8.5 Q346,-8 284,-8 Q239,-8 196.5,5 Q154,18 120.5,44.5 Q87,71 66.5,111.5 Q46,152 46,207 Q46,221 47.5,235 Q49,249 52,266 L136,700 L301,700 L219,274 Q215,254 215,240 Q215,195 240,170.5 Q265,146 311,146 Q357,146 392.5,177 Q428,208 441,274 L523,700 L688,700"/> 
            <glyph glyph-name="V" unicode="&#x56;" horiz-adv-x="681" d=" M140,0 L45,700 L221,700 L272,248 L499,700 L681,700 L308,0"/> 
            <glyph glyph-name="W" unicode="&#x57;" horiz-adv-x="976" d=" M976,700 L660,0 L488,0 L456,348 L286,0 L113,0 L65,700 L238,700 L255,261 L428,626 L576,626 L616,261 L800,700"/> 
            <glyph glyph-name="X" unicode="&#x58;" horiz-adv-x="651" d=" M651,700 L401,375 L541,0 L356,0 L277,210 L119,0 L-73,0 L216,379 L90,700 L279,700 L336,531 L462,700"/> 
            <glyph glyph-name="Y" unicode="&#x59;" horiz-adv-x="630" d=" M224,700 L285,468 L438,700 L630,700 L348,298 L290,0 L110,0 L168,298 L44,700"/> 
            <glyph glyph-name="Z" unicode="&#x5A;" horiz-adv-x="601" d=" M115,700 L601,700 L583,610 L216,150 L510,150 L480,0 L-36,0 L-18,90 L351,550 L85,550"/> 
            <glyph glyph-name="[" unicode="&#x5B;" horiz-adv-x="415" d=" M160,750 L415,750 L389,616 L282,616 L179,84 L286,84 L260,-50 L5,-50"/> 
            <glyph glyph-name="\" unicode="&#x5C;" horiz-adv-x="474" d=" M197,750 L474,-50 L316,-50 L39,750"/> 
            <glyph glyph-name="]" unicode="&#x5D;" horiz-adv-x="354" d=" M199,-50 L-55,-50 L-29,84 L77,84 L180,616 L73,616 L99,750 L354,750"/> 
            <glyph glyph-name="^" unicode="&#x5E;" horiz-adv-x="580" d=" M383,700 L580,403 L422,403 L315,561 L208,403 L50,403 L247,700"/> 
            <glyph glyph-name="_" unicode="&#x5F;" horiz-adv-x="427" d=" M-48,0 L427,0 L402,-126 L-73,-126"/> 
            <glyph glyph-name="`" unicode="&#x60;" horiz-adv-x="280" d=" M280,548 L161,548 L40,708 L246,708"/> 
            <glyph glyph-name="a" unicode="&#x61;" horiz-adv-x="594" d=" M594,504 L496,0 L330,0 L339,43 Q315,14 283.5,3 Q252,-8 217,-8 Q170,-8 134.5,8 Q99,24 74,53.5 Q49,83 36.5,123.5 Q24,164 24,212 Q24,265 41.5,318.5 Q59,372 93.5,415 Q128,458 180,485 Q232,512 302,512 Q346,512 374.5,498 Q403,484 420,464 L428,504 M313,372 Q284,372 261,360.5 Q238,349 222,329.5 Q206,310 198,283.5 Q190,257 190,227 Q190,179 215.5,155.5 Q241,132 278,132 Q303,132 324,143.5 Q345,155 360,175 Q375,195 383.5,221 Q392,247 392,276 Q392,329 369,350.5 Q346,372 313,372"/> 
            <glyph glyph-name="b" unicode="&#x62;" horiz-adv-x="579" d=" M579,303 Q579,238 560.5,181.5 Q542,125 506.5,83 Q471,41 420,16.5 Q369,-8 304,-8 Q267,-8 236.5,6 Q206,20 189,43 L180,0 L14,0 L152,708 L318,708 L272,472 Q286,489 318,500.5 Q350,512 390,512 Q434,512 469,496 Q504,480 528.5,451.5 Q553,423 566,385 Q579,347 579,303 M297,132 Q323,132 344.5,143.5 Q366,155 381,174.5 Q396,194 404.5,219 Q413,244 413,270 Q413,321 390.5,346.5 Q368,372 329,372 Q305,372 284.5,360.5 Q264,349 248.5,329.5 Q233,310 224.5,284 Q216,258 216,228 Q216,182 240.5,157 Q265,132 297,132"/> 
            <glyph glyph-name="c" unicode="&#x63;" horiz-adv-x="554" d=" M512,139 Q463,63 401.5,27.5 Q340,-8 252,-8 Q197,-8 154.5,9.5 Q112,27 83,56.5 Q54,86 39,125 Q24,164 24,207 Q24,268 46,323.5 Q68,379 108.5,421 Q149,463 207,487.5 Q265,512 337,512 Q429,512 480,473.5 Q531,435 554,364 L400,305 Q395,336 375,354 Q355,372 319,372 Q286,372 262,358.5 Q238,345 222,324 Q206,303 198,277 Q190,251 190,225 Q190,183 211,157.5 Q232,132 274,132 Q338,132 378,199"/> 
            <glyph glyph-name="d" unicode="&#x64;" horiz-adv-x="628" d=" M24,202 Q24,259 41,314.5 Q58,370 92.5,414 Q127,458 178.5,485 Q230,512 300,512 Q346,512 372,498 Q398,484 415,464 L462,708 L628,708 L490,0 L324,0 L333,43 Q309,14 280,3 Q251,-8 211,-8 Q169,-8 135,8 Q101,24 76,52.5 Q51,81 37.5,119 Q24,157 24,202 M311,372 Q281,372 258.5,358 Q236,344 221,322.5 Q206,301 198,274.5 Q190,248 190,224 Q190,174 213.5,153 Q237,132 276,132 Q299,132 319,144 Q339,156 354,176 Q369,196 377.5,223.5 Q386,251 386,282 Q386,331 365,351.5 Q344,372 311,372"/> 
            <glyph glyph-name="e" unicode="&#x65;" horiz-adv-x="539" d=" M180,202 Q187,164 211.5,144.5 Q236,125 268,125 Q302,125 328.5,138 Q355,151 381,185 L501,124 Q456,57 399,24.5 Q342,-8 257,-8 Q201,-8 158,10 Q115,28 85,59 Q55,90 39.5,130.5 Q24,171 24,216 Q24,270 43.5,323 Q63,376 101,418 Q139,460 196,486 Q253,512 328,512 Q387,512 427.5,494.5 Q468,477 492.5,448.5 Q517,420 528,384.5 Q539,349 539,313 Q539,288 533,257 L523,202 M313,393 Q272,393 243,370.5 Q214,348 197,316 L390,316 Q390,328 386,342 Q382,356 372.5,367 Q363,378 348.5,385.5 Q334,393 313,393"/> 
            <glyph glyph-name="f" unicode="&#x66;" horiz-adv-x="449" d=" M60,504 L113,504 L115,514 Q135,615 188.5,661.5 Q242,708 338,708 Q374,708 400.5,702 Q427,696 449,684 L393,562 Q386,569 374,574.5 Q362,580 346,580 Q320,580 304,565 Q288,550 283,524 L279,504 L380,504 L355,378 L254,378 L181,0 L15,0 L88,378 L35,378"/> 
            <glyph glyph-name="g" unicode="&#x67;" horiz-adv-x="543" d=" M258,174 Q215,174 182,186 Q162,176 156,167 Q150,158 150,147 Q150,136 159.5,128 Q169,120 188,120 L282,120 Q315,120 344,112 Q373,104 394.5,87.5 Q416,71 428,46 Q440,21 440,-13 Q440,-112 373,-162 Q306,-212 179,-212 Q132,-212 91.5,-201.5 Q51,-191 22,-171.5 Q-7,-152 -23.5,-124.5 Q-40,-97 -40,-64 Q-40,-29 -25.5,1 Q-11,31 24,59 Q10,84 10,115 Q10,150 29.5,183.5 Q49,217 102,245 Q77,279 77,322 Q77,360 92.5,394.5 Q108,429 135.5,455 Q163,481 202.5,496.5 Q242,512 290,512 Q347,512 387,492 L499,548 L543,456 L459,417 Q469,391 469,359 Q469,309 452.5,274 Q436,239 407.5,217 Q379,195 340.5,184.5 Q302,174 258,174 M159,-4 Q136,-4 111,1 Q100,-13 100,-33 Q100,-63 126.5,-77.5 Q153,-92 198,-92 Q234,-92 261.5,-80 Q289,-68 289,-39 Q289,-18 272,-11 Q255,-4 229,-4 M279,394 Q254,394 237.5,376 Q221,358 221,332 Q221,314 234,303 Q247,292 265,292 Q291,292 307,308.5 Q323,325 323,351 Q323,370 311.5,382 Q300,394 279,394"/> 
            <glyph glyph-name="h" unicode="&#x68;" horiz-adv-x="568" d=" M317,708 L265,446 Q289,474 330,493 Q371,512 424,512 Q495,512 531.5,475 Q568,438 568,377 Q568,360 564,337 L499,0 L333,0 L388,286 Q390,294 390.5,299.5 Q391,305 391,311 Q391,337 377,351.5 Q363,366 337,366 Q295,366 266,329.5 Q237,293 223,221 L180,0 L14,0 L151,708"/> 
            <glyph glyph-name="i" unicode="&#x69;" horiz-adv-x="322" d=" M277,504 L180,0 L14,0 L111,504 M126,661 Q126,682 133.5,699.5 Q141,717 154,730.5 Q167,744 185,751.5 Q203,759 224,759 Q245,759 263,751.5 Q281,744 294,730.5 Q307,717 314.5,699.5 Q322,682 322,661 Q322,640 314.5,622.5 Q307,605 294,591.5 Q281,578 263,570.5 Q245,563 224,563 Q203,563 185,570.5 Q167,578 154,591.5 Q141,605 133.5,622.5 Q126,640 126,661"/> 
            <glyph glyph-name="j" unicode="&#x6A;" horiz-adv-x="322" d=" M277,504 L190,54 Q164,-78 89.5,-141 Q15,-204 -94,-212 L-108,-76 Q-84,-71 -62.5,-63.5 Q-41,-56 -24.5,-42.5 Q-8,-29 4,-8.5 Q16,12 22,43 L111,504 M126,661 Q126,682 133.5,699.5 Q141,717 154,730.5 Q167,744 185,751.5 Q203,759 224,759 Q245,759 263,751.5 Q281,744 294,730.5 Q307,717 314.5,699.5 Q322,682 322,661 Q322,640 314.5,622.5 Q307,605 294,591.5 Q281,578 263,570.5 Q245,563 224,563 Q203,563 185,570.5 Q167,578 154,591.5 Q141,605 133.5,622.5 Q126,640 126,661"/> 
            <glyph glyph-name="k" unicode="&#x6B;" horiz-adv-x="592" d=" M317,708 L251,362 L388,504 L592,504 L352,269 L512,0 L324,0 L216,190 L180,0 L14,0 L151,708"/> 
            <glyph glyph-name="l" unicode="&#x6C;" horiz-adv-x="317" d=" M317,708 L180,0 L14,0 L151,708"/> 
            <glyph glyph-name="m" unicode="&#x6D;" horiz-adv-x="825" d=" M309,0 L368,306 Q369,312 369.5,317.5 Q370,323 370,328 Q370,350 360,363 Q350,376 325,376 Q285,376 254.5,338.5 Q224,301 208,218 L166,0 L14,0 L112,504 L264,504 L252,444 Q278,476 315,494 Q352,512 395,512 Q450,512 478.5,488.5 Q507,465 521,427 Q544,462 587,487 Q630,512 687,512 Q759,512 792,476 Q825,440 825,382 Q825,371 824,361 Q823,351 821,339 L756,0 L604,0 L663,306 Q666,319 666,332 Q666,351 655.5,363.5 Q645,376 622,376 Q583,376 551.5,340 Q520,304 503,219 L461,0"/> 
            <glyph glyph-name="n" unicode="&#x6E;" horiz-adv-x="558" d=" M278,504 L266,446 Q318,512 413,512 Q482,512 520,473 Q558,434 558,367 Q558,356 557.5,347 Q557,338 554,324 L491,0 L325,0 L383,298 Q385,308 385,316 Q385,366 336,366 Q298,366 267.5,329.5 Q237,293 223,221 L180,0 L14,0 L112,504"/> 
            <glyph glyph-name="o" unicode="&#x6F;" horiz-adv-x="564" d=" M24,213 Q24,272 44,326 Q64,380 101.5,421.5 Q139,463 194,487.5 Q249,512 319,512 Q374,512 419,496 Q464,480 496.5,450.5 Q529,421 546.5,380 Q564,339 564,288 Q564,226 542.5,172 Q521,118 482,78 Q443,38 387.5,15 Q332,-8 264,-8 Q211,-8 166.5,8.5 Q122,25 90.5,54 Q59,83 41.5,124 Q24,165 24,213 M310,372 Q283,372 260.5,359.5 Q238,347 222.5,327 Q207,307 198.5,281.5 Q190,256 190,229 Q190,180 216.5,156 Q243,132 281,132 Q308,132 329.5,143 Q351,154 366,172.5 Q381,191 389.5,217 Q398,243 398,273 Q398,319 373.5,345.5 Q349,372 310,372"/> 
            <glyph glyph-name="p" unicode="&#x70;" horiz-adv-x="578" d=" M578,302 Q578,240 559,184 Q540,128 504.5,85.5 Q469,43 417,17.5 Q365,-8 299,-8 Q261,-8 233,3 Q205,14 185,30 L140,-204 L-26,-204 L112,504 L278,504 L269,461 Q295,485 328.5,498.5 Q362,512 404,512 Q485,512 531.5,455.5 Q578,399 578,302 M302,132 Q327,132 347.5,145 Q368,158 382.5,179 Q397,200 404.5,227 Q412,254 412,282 Q412,324 392,348 Q372,372 338,372 Q309,372 287,358.5 Q265,345 249,323.5 Q233,302 225,275 Q217,248 217,222 Q217,177 240.5,154.5 Q264,132 302,132"/> 
            <glyph glyph-name="q" unicode="&#x71;" horiz-adv-x="589" d=" M24,209 Q24,276 44.5,332 Q65,388 101.5,428 Q138,468 188,490 Q238,512 298,512 Q343,512 371.5,496.5 Q400,481 414,461 L423,504 L589,504 L451,-204 L285,-204 L332,40 Q305,16 276.5,4 Q248,-8 211,-8 Q166,-8 131.5,7.5 Q97,23 73,51.5 Q49,80 36.5,120 Q24,160 24,209 M311,372 Q284,372 262,360.5 Q240,349 224,328.5 Q208,308 199,281 Q190,254 190,224 Q190,176 214,154 Q238,132 271,132 Q295,132 316,143 Q337,154 352.5,174.5 Q368,195 377,222.5 Q386,250 386,283 Q386,331 365.5,351.5 Q345,372 311,372"/> 
            <glyph glyph-name="r" unicode="&#x72;" horiz-adv-x="482" d=" M14,0 L112,504 L278,504 L267,449 Q292,478 330,495 Q368,512 418,512 Q438,512 454,508 Q470,504 482,498 L417,349 Q407,356 395.5,360 Q384,364 368,364 Q343,364 319.5,354 Q296,344 276,322.5 Q256,301 240.5,265.5 Q225,230 215,179 L180,0"/> 
            <glyph glyph-name="s" unicode="&#x73;" horiz-adv-x="421" d=" M253,512 Q312,512 356,488.5 Q400,465 421,428 L316,346 Q302,366 284,378 Q266,390 246,390 Q229,390 218.5,381.5 Q208,373 208,359 Q208,345 220,335 Q232,325 259,315 Q289,304 314,290.5 Q339,277 356.5,259.5 Q374,242 384,219.5 Q394,197 394,168 Q394,120 376,86.5 Q358,53 329.5,32 Q301,11 266,1.5 Q231,-8 196,-8 Q144,-8 107.5,4.5 Q71,17 46.5,38 Q22,59 7.5,85.5 Q-7,112 -14,139 L120,194 Q126,159 148.5,137.5 Q171,116 197,116 Q223,116 236,126.5 Q249,137 249,152 Q249,165 240.5,173.5 Q232,182 218,189 Q204,196 187,202.5 Q170,209 152,219 Q141,225 126,235.5 Q111,246 97.5,262.5 Q84,279 74.5,301.5 Q65,324 65,354 Q65,385 76,413.5 Q87,442 110.5,464 Q134,486 169.5,499 Q205,512 253,512"/> 
            <glyph glyph-name="t" unicode="&#x74;" horiz-adv-x="408" d=" M333,16 Q308,2 282.5,-3 Q257,-8 223,-8 Q148,-8 102.5,35.5 Q57,79 57,152 Q57,173 61,196 L96,378 L25,378 L49,504 L120,504 L141,608 L322,708 L282,504 L408,504 L384,378 L259,378 L226,209 Q224,201 223.5,195 Q223,189 223,180 Q223,160 235.5,148 Q248,136 271,136 Q281,136 295,138.5 Q309,141 323,148"/> 
            <glyph glyph-name="u" unicode="&#x75;" horiz-adv-x="589" d=" M325,0 L337,58 Q284,-8 192,-8 Q126,-8 85,31 Q44,70 44,137 Q44,148 44.5,157 Q45,166 48,180 L111,504 L277,504 L219,206 Q217,196 217,188 Q217,164 231,151 Q245,138 266,138 Q311,138 338.5,174.5 Q366,211 380,283 L423,504 L589,504 L491,0"/> 
            <glyph glyph-name="v" unicode="&#x76;" horiz-adv-x="523" d=" M191,504 L219,225 L355,504 L523,504 L251,0 L107,0 L29,504"/> 
            <glyph glyph-name="w" unicode="&#x77;" horiz-adv-x="789" d=" M789,504 L531,0 L394,0 L374,277 L248,0 L107,0 L41,504 L204,504 L220,231 L341,504 L489,504 L503,231 L622,504"/> 
            <glyph glyph-name="x" unicode="&#x78;" horiz-adv-x="537" d=" M537,504 L347,269 L459,0 L281,0 L231,126 L133,0 L-52,0 L164,276 L66,504 L244,504 L281,408 L354,504"/> 
            <glyph glyph-name="y" unicode="&#x79;" horiz-adv-x="544" d=" M125,45 L36,504 L214,504 L249,259 L373,504 L544,504 L151,-204 L-9,-204"/> 
            <glyph glyph-name="z" unicode="&#x7A;" horiz-adv-x="480" d=" M83,504 L480,504 L465,426 L222,136 L423,136 L397,0 L-16,0 L-2,78 L242,368 L57,368"/> 
            <glyph glyph-name="{" unicode="&#x7B;" horiz-adv-x="397" d=" M81,216 Q84,231 84,243 Q84,267 70.5,278.5 Q57,290 25,290 L48,410 Q87,410 106.5,426.5 Q126,443 134,484 L166,650 Q170,672 181.5,690.5 Q193,709 209,722.5 Q225,736 245,743 Q265,750 286,750 L397,750 L371,616 L347,616 Q326,616 314.5,606.5 Q303,597 298,571 L275,448 Q265,397 241,376 Q217,355 181,350 Q209,346 224.5,329 Q240,312 240,281 Q240,267 237,252 L213,129 Q212,124 212,121 Q212,118 212,115 Q212,84 244,84 L268,84 L242,-50 L131,-50 Q92,-50 69.5,-28.5 Q47,-7 47,31 Q47,42 50,56"/> 
            <glyph glyph-name="|" unicode="&#x7C;" horiz-adv-x="235" d=" M235,750 L235,-50 L73,-50 L73,750"/> 
            <glyph glyph-name="}" unicode="&#x7D;" horiz-adv-x="317" d=" M261,484 Q258,469 258,457 Q258,433 271.5,421.5 Q285,410 317,410 L294,290 Q255,290 235.5,273.5 Q216,257 208,216 L176,50 Q172,27 160.5,9 Q149,-9 133,-22.5 Q117,-36 97,-43 Q77,-50 56,-50 L-55,-50 L-29,84 L-5,84 Q16,84 27.5,93.5 Q39,103 44,129 L67,252 Q77,303 101,324 Q125,345 161,350 Q133,354 117.5,371 Q102,388 102,419 Q102,433 105,448 L129,571 Q130,576 130,579 Q130,582 130,585 Q130,616 98,616 L74,616 L100,750 L211,750 Q250,750 272.5,728.5 Q295,707 295,669 Q295,657 292,644"/> 
            <glyph glyph-name="~" unicode="&#x7E;" horiz-adv-x="574" d=" M31,322 Q58,373 108.5,406 Q159,439 218,439 Q250,439 273.5,430 Q297,421 318,410 Q339,399 359.5,390 Q380,381 406,381 Q435,381 458.5,396.5 Q482,412 503,438 L574,346 Q547,295 496.5,262 Q446,229 387,229 Q355,229 331.5,238 Q308,247 287,258 Q266,269 245.5,278 Q225,287 199,287 Q170,287 146.5,271.5 Q123,256 102,230"/> 
            <glyph glyph-name="¡" unicode="&#xA1;" horiz-adv-x="292" d=" M-15,-204 L104,246 L236,246 L181,-204 M292,415 Q292,377 266.5,351.5 Q241,326 203,326 Q165,326 139.5,351.5 Q114,377 114,415 Q114,453 139.5,478.5 Q165,504 203,504 Q241,504 266.5,478.5 Q292,453 292,415"/> 
            <glyph glyph-name="¢" unicode="&#xA2;" horiz-adv-x="572" d=" M530,239 Q491,178 444,143 Q397,108 335,97 L306,-50 L168,-50 L197,101 Q159,111 130.5,131.5 Q102,152 82,179 Q62,206 52,239 Q42,272 42,307 Q42,362 59.5,412 Q77,462 109.5,502 Q142,542 189,569.5 Q236,597 295,607 L323,750 L461,750 L432,603 Q487,589 520.5,553.5 Q554,518 572,464 L418,405 Q413,436 393,454 Q373,472 337,472 Q304,472 280,458.5 Q256,445 240,424 Q224,403 216,377 Q208,351 208,325 Q208,283 229,257.5 Q250,232 292,232 Q356,232 396,299"/> 
            <glyph glyph-name="£" unicode="&#xA3;" horiz-adv-x="562" d=" M66,424 L108,424 Q107,435 106.5,446.5 Q106,458 106,471 Q106,520 122.5,563 Q139,606 170.5,638 Q202,670 248.5,689 Q295,708 356,708 Q442,708 493,666 Q544,624 562,560 L420,504 Q411,534 395,552 Q379,570 347,570 Q320,570 301.5,558.5 Q283,547 271.5,528 Q260,509 255,484 Q250,459 250,433 L250,424 L415,424 L392,304 L253,304 Q251,251 227.5,204.5 Q204,158 159,127 Q196,150 239,150 Q256,150 268.5,146 Q281,142 291.5,137 Q302,132 313,128 Q324,124 338,124 Q360,124 377.5,139 Q395,154 418,185 L508,105 Q484,72 462,50 Q440,28 417,15.5 Q394,3 369.5,-2.5 Q345,-8 318,-8 Q289,-8 268.5,-3.5 Q248,1 230,7 Q212,13 194.5,17.5 Q177,22 155,22 Q126,22 100,15 Q74,8 36,-8 L-23,76 Q2,95 27.5,116.5 Q53,138 74,164 Q95,190 108.5,221 Q122,252 122,288 Q122,292 122,295 Q122,298 121,304 L43,304"/> 
            <glyph glyph-name="¤" unicode="&#xA4;" horiz-adv-x="561" d=" M106,216 Q85,259 85,307 Q85,354 106,398 L11,465 L128,582 L194,488 Q214,498 237,503.5 Q260,509 286,509 Q312,509 335,503.5 Q358,498 378,488 L444,582 L561,465 L466,398 Q487,354 487,307 Q487,259 466,216 L561,149 L444,32 L378,126 Q358,116 335,110.5 Q312,105 286,105 Q260,105 237,110.5 Q214,116 194,126 L128,32 L11,149 M221,307 Q221,275 238,255.5 Q255,236 286,236 Q317,236 334,255.5 Q351,275 351,307 Q351,339 334,358.5 Q317,378 286,378 Q255,378 238,358.5 Q221,339 221,307"/> 
            <glyph glyph-name="¥" unicode="&#xA5;" horiz-adv-x="650" d=" M254,700 L311,458 L460,700 L650,700 L444,412 L519,412 L495,292 L368,292 L357,232 L484,232 L460,112 L333,112 L311,0 L133,0 L155,112 L28,112 L52,232 L179,232 L190,292 L63,292 L87,412 L164,412 L71,700"/> 
            <glyph glyph-name="¦" unicode="&#xA6;" horiz-adv-x="235" d=" M235,299 L235,-50 L73,-50 L73,299 M73,401 L73,750 L235,750 L235,401"/> 
            <glyph glyph-name="§" unicode="&#xA7;" horiz-adv-x="540" d=" M502,237 Q502,208 493,183.5 Q484,159 470,139 Q456,119 439,104 Q422,89 405,79 Q424,38 424,-11 Q424,-47 410.5,-83 Q397,-119 369.5,-147.5 Q342,-176 299,-194 Q256,-212 197,-212 Q158,-212 123,-201.5 Q88,-191 60,-171 Q32,-151 14.5,-121.5 Q-3,-92 -6,-54 L146,-8 Q149,-40 164.5,-59 Q180,-78 206,-78 Q232,-78 247.5,-61.5 Q263,-45 263,-22 Q263,14 233,39.5 Q203,65 152,92 Q117,111 94,130 Q71,149 57,170 Q43,191 37.5,215 Q32,239 32,266 Q32,292 40,315.5 Q48,339 61.5,358.5 Q75,378 92,393.5 Q109,409 128,419 Q118,439 114,461.5 Q110,484 110,507 Q110,543 123.5,579 Q137,615 164.5,643.5 Q192,672 235,690 Q278,708 337,708 Q376,708 411,697.5 Q446,687 474,667 Q502,647 519.5,617.5 Q537,588 540,550 L388,504 Q385,536 369.5,555 Q354,574 328,574 Q302,574 286.5,557.5 Q271,541 271,518 Q271,482 301,456.5 Q331,431 382,404 Q417,385 440,367 Q463,349 477,329.5 Q491,310 496.5,287.5 Q502,265 502,237 M217,323 Q206,316 197,304.5 Q188,293 188,276 Q188,264 193.5,254 Q199,244 212,233.5 Q225,223 246.5,211 Q268,199 300,182 L316,173 Q327,181 336.5,192 Q346,203 346,220 Q346,232 340.5,242 Q335,252 322,262.5 Q309,273 287.5,285 Q266,297 234,314"/> 
            <glyph glyph-name="¨" unicode="&#xA8;" horiz-adv-x="410" d=" M43,651 Q43,686 65.5,709.5 Q88,733 125,733 Q162,733 184.5,709.5 Q207,686 207,651 Q207,616 184.5,592.5 Q162,569 125,569 Q88,569 65.5,592.5 Q43,616 43,651 M246,651 Q246,686 268.5,709.5 Q291,733 328,733 Q365,733 387.5,709.5 Q410,686 410,651 Q410,616 387.5,592.5 Q365,569 328,569 Q291,569 268.5,592.5 Q246,616 246,651"/> 
            <glyph glyph-name="©" unicode="&#xA9;" horiz-adv-x="821" d=" M51,350 Q51,433 80.5,504.5 Q110,576 161.5,628.5 Q213,681 283.5,710.5 Q354,740 436,740 Q518,740 588,710.5 Q658,681 710,628.5 Q762,576 791.5,504.5 Q821,433 821,350 Q821,267 791.5,195.5 Q762,124 710,71.5 Q658,19 588,-10.5 Q518,-40 436,-40 Q354,-40 283.5,-10.5 Q213,19 161.5,71.5 Q110,124 80.5,195.5 Q51,267 51,350 M171,350 Q171,290 190.5,240 Q210,190 245.5,153.5 Q281,117 329.5,96.5 Q378,76 436,76 Q494,76 542.5,96.5 Q591,117 626.5,153.5 Q662,190 681.5,240 Q701,290 701,350 Q701,410 681.5,460 Q662,510 626.5,546.5 Q591,583 542.5,603.5 Q494,624 436,624 Q378,624 329.5,603.5 Q281,583 245.5,546.5 Q210,510 190.5,460 Q171,410 171,350 M629,279 Q624,244 606,217 Q588,190 561.5,171.5 Q535,153 502.5,143.5 Q470,134 436,134 Q397,134 360,147.5 Q323,161 294.5,188 Q266,215 248.5,255.5 Q231,296 231,350 Q231,404 248.5,444.5 Q266,485 294.5,512 Q323,539 360,552.5 Q397,566 436,566 Q470,566 502.5,556.5 Q535,547 561.5,528.5 Q588,510 606,483 Q624,456 629,421 L512,401 Q500,436 480.5,448 Q461,460 436,460 Q399,460 376,429.5 Q353,399 353,350 Q353,301 376,270.5 Q399,240 436,240 Q461,240 480.5,252 Q500,264 512,299"/> 
            <glyph glyph-name="ª" unicode="&#xAA;" horiz-adv-x="391" d=" M59,591 Q70,639 110.5,671.5 Q151,704 216,704 Q297,704 344,665.5 Q391,627 391,538 L391,300 L291,300 L283,344 Q262,319 235,307.5 Q208,296 170,296 Q145,296 122,303.5 Q99,311 82,326 Q65,341 54.5,363.5 Q44,386 44,416 Q44,475 86,510.5 Q128,546 211,546 L273,546 L273,559 Q273,585 258,597.5 Q243,610 216,610 Q195,610 180,600 Q165,590 158,567 M165,424 Q165,407 176.5,399.5 Q188,392 206,392 Q238,392 255.5,411 Q273,430 273,453 L273,458 L212,458 Q189,458 177,448.5 Q165,439 165,424"/> 
            <glyph glyph-name="«" unicode="&#xAB;" horiz-adv-x="709" d=" M43,361 L409,586 L375,417 L196,308 L333,196 L303,38 L24,267 M343,361 L709,586 L675,417 L496,308 L633,196 L603,38 L324,267"/> 
            <glyph glyph-name="¬" unicode="&#xAC;" horiz-adv-x="530" d=" M29,425 L530,425 L530,120 L368,120 L368,279 L29,279"/> 
            <glyph glyph-name="®" unicode="&#xAE;" horiz-adv-x="821" d=" M51,350 Q51,433 80.5,504.5 Q110,576 161.5,628.5 Q213,681 283.5,710.5 Q354,740 436,740 Q518,740 588,710.5 Q658,681 710,628.5 Q762,576 791.5,504.5 Q821,433 821,350 Q821,267 791.5,195.5 Q762,124 710,71.5 Q658,19 588,-10.5 Q518,-40 436,-40 Q354,-40 283.5,-10.5 Q213,19 161.5,71.5 Q110,124 80.5,195.5 Q51,267 51,350 M395,319 L389,319 L389,137 L278,137 L278,563 L449,563 Q521,563 557.5,531 Q594,499 594,441 Q594,390 568.5,361 Q543,332 504,324 L618,145 Q657,182 679,234.5 Q701,287 701,350 Q701,410 681.5,460 Q662,510 626.5,546.5 Q591,583 542.5,603.5 Q494,624 436,624 Q378,624 329.5,603.5 Q281,583 245.5,546.5 Q210,510 190.5,460 Q171,410 171,350 Q171,290 190.5,240 Q210,190 245.5,153.5 Q281,117 329.5,96.5 Q378,76 436,76 Q487,76 531,92 Q575,108 609,137 L504,137 M389,476 L389,406 L439,406 Q467,406 475,415 Q483,424 483,441 Q483,459 475,467.5 Q467,476 439,476"/> 
            <glyph glyph-name="¯" unicode="&#xAF;" horiz-adv-x="348" d=" M71,734 L348,734 L325,612 L49,612"/> 
            <glyph glyph-name="°" unicode="&#xB0;" horiz-adv-x="371" d=" M85,572 Q85,602 96,628 Q107,654 126,673 Q145,692 171,703 Q197,714 228,714 Q259,714 285,703 Q311,692 330,673 Q349,654 360,628 Q371,602 371,572 Q371,542 360,516 Q349,490 330,471 Q311,452 285,441 Q259,430 228,430 Q197,430 171,441 Q145,452 126,471 Q107,490 96,516 Q85,542 85,572 M182,572 Q182,551 194.5,538 Q207,525 228,525 Q249,525 261.5,538 Q274,551 274,572 Q274,593 261.5,606 Q249,619 228,619 Q207,619 194.5,606 Q182,593 182,572"/> 
            <glyph glyph-name="±" unicode="&#xB1;" horiz-adv-x="545" d=" M366,682 L366,504 L544,504 L544,364 L366,364 L366,186 L226,186 L226,364 L48,364 L48,504 L226,504 L226,682 M545,140 L545,0 L49,0 L49,140"/> 
            <glyph glyph-name="²" unicode="&#xB2;" horiz-adv-x="355" d=" M27,339 L209,517 Q224,532 233,546 Q242,560 242,577 Q242,591 234,598.5 Q226,606 213,606 Q179,606 166,563 L71,588 Q88,639 125,671.5 Q162,704 229,704 Q285,704 320,674 Q355,644 355,596 Q355,530 290,467 L212,390 L320,390 L302,300 L20,300"/> 
            <glyph glyph-name="³" unicode="&#xB3;" horiz-adv-x="370" d=" M150,438 L150,434 Q150,416 162,404 Q174,392 194,392 Q215,392 227.5,405.5 Q240,419 240,442 Q240,462 228,472.5 Q216,483 201,483 Q190,483 183,480.5 Q176,478 168,473 L132,530 L207,610 L100,610 L117,700 L370,700 L361,654 L258,551 Q303,548 326,518 Q349,488 349,451 Q349,378 305.5,337 Q262,296 190,296 Q122,296 86,334 Q50,372 50,427"/> 
            <glyph glyph-name="´" unicode="&#xB4;" horiz-adv-x="335" d=" M125,708 L335,708 L152,548 L32,548"/> 
            <glyph glyph-name="µ" unicode="&#xB5;" horiz-adv-x="525" d=" M361,0 L361,58 Q341,30 305,11 Q269,-8 218,-8 L214,-8 L214,-204 L50,-204 L50,504 L214,504 L214,210 Q214,175 229,156.5 Q244,138 271,138 Q313,138 337,174.5 Q361,211 361,283 L361,504 L525,504 L525,0"/> 
            <glyph glyph-name="¶" unicode="&#xB6;" horiz-adv-x="780" d=" M62,421 Q62,480 83.5,531 Q105,582 144,619.5 Q183,657 237,678.5 Q291,700 357,700 L780,700 L756,576 L694,576 L543,-204 L403,-204 L554,576 L473,576 L322,-204 L182,-204 L263,214 Q225,214 189,228.5 Q153,243 124.5,269.5 Q96,296 79,334.5 Q62,373 62,421"/> 
            <glyph glyph-name="·" unicode="&#xB7;" horiz-adv-x="240" d=" M54,375 Q54,415 80.5,441.5 Q107,468 147,468 Q187,468 213.5,441.5 Q240,415 240,375 Q240,335 213.5,308.5 Q187,282 147,282 Q107,282 80.5,308.5 Q54,335 54,375"/> 
            <glyph glyph-name="¸" unicode="&#xB8;" horiz-adv-x="203" d=" M77,-279 L-79,-200 L95,-54 L203,-54"/> 
            <glyph glyph-name="¹" unicode="&#xB9;" horiz-adv-x="296" d=" M296,700 L219,300 L105,300 L156,562 L67,524 L89,635 L239,700"/> 
            <glyph glyph-name="º" unicode="&#xBA;" horiz-adv-x="446" d=" M28,500 Q28,541 41,578 Q54,615 80.5,643 Q107,671 146,687.5 Q185,704 237,704 Q289,704 328,687.5 Q367,671 393,643 Q419,615 432.5,578 Q446,541 446,500 Q446,459 432.5,422 Q419,385 393,357 Q367,329 328,312.5 Q289,296 237,296 Q185,296 146,312.5 Q107,329 80.5,357 Q54,385 41,422 Q28,459 28,500 M162,500 Q162,457 181,431.5 Q200,406 237,406 Q274,406 293,431.5 Q312,457 312,500 Q312,543 293,568.5 Q274,594 237,594 Q200,594 181,568.5 Q162,543 162,500"/> 
            <glyph glyph-name="»" unicode="&#xBB;" horiz-adv-x="688" d=" M669,263 L303,38 L337,207 L516,316 L379,428 L409,586 L688,357 M369,263 L3,38 L37,207 L216,316 L79,428 L109,586 L388,357"/> 
            <glyph glyph-name="¼" unicode="&#xBC;" horiz-adv-x="811" d=" M608,61 L434,61 L444,110 L665,400 L781,400 L734,154 L775,154 L757,61 L715,61 L704,0 L597,0 M627,154 L645,248 L578,154 M284,700 L207,300 L93,300 L144,562 L55,524 L77,635 L227,700 M811,675 L133,-44 L59,26 L736,745"/> 
            <glyph glyph-name="½" unicode="&#xBD;" horiz-adv-x="833" d=" M811,675 L133,-44 L59,26 L736,745 M540,700 L463,300 L349,300 L400,562 L311,524 L333,635 L483,700 M505,65575 L687,65753 Q702,65768 711,65782 Q720,65796 720,65813 Q720,65827 712,65834.5 Q704,65842 691,65842 Q657,65842 644,65799 L549,65824 Q566,65875 603,65907.5 Q640,65940 707,65940 Q763,65940 798,65910 Q833,65880 833,65832 Q833,65766 768,65703 L690,65626 L798,65626 L780,65536 L498,65536"/> 
            <glyph glyph-name="¾" unicode="&#xBE;" horiz-adv-x="879" d=" M676,61 L502,61 L512,110 L733,400 L849,400 L802,154 L843,154 L825,61 L783,61 L772,0 L665,0 M695,154 L713,248 L646,154 M150,438 L150,434 Q150,416 162,404 Q174,392 194,392 Q215,392 227.5,405.5 Q240,419 240,442 Q240,462 228,472.5 Q216,483 201,483 Q190,483 183,480.5 Q176,478 168,473 L132,530 L207,610 L100,610 L117,700 L370,700 L361,654 L258,551 Q303,548 326,518 Q349,488 349,451 Q349,378 305.5,337 Q262,296 190,296 Q122,296 86,334 Q50,372 50,427 M879,675 L201,-44 L127,26 L804,745"/> 
            <glyph glyph-name="¿" unicode="&#xBF;" horiz-adv-x="359" d=" M45,171 Q70,230 107,256.5 Q144,283 208,283 Q231,283 255.5,275.5 Q280,268 300.5,253.5 Q321,239 334,217 Q347,195 347,166 Q347,139 340,117 Q333,95 316,76 Q299,57 270.5,41 Q242,25 199,10 Q175,2 157,-4.5 Q139,-11 127.5,-18 Q116,-25 110.5,-33.5 Q105,-42 105,-54 Q105,-70 118,-80 Q131,-90 152,-90 Q178,-90 198,-71 Q218,-52 223,-25 L359,-56 Q348,-88 330,-116.5 Q312,-145 284.5,-166 Q257,-187 218.5,-199.5 Q180,-212 129,-212 Q93,-212 62,-202 Q31,-192 7.5,-174 Q-16,-156 -29.5,-131 Q-43,-106 -43,-76 Q-43,-35 -30.5,-7 Q-18,21 6,41.5 Q30,62 65.5,76 Q101,90 147,104 Q173,112 193,120.5 Q213,129 213,149 Q213,158 207,164 Q201,170 190,170 Q167,170 150,138 M340,415 Q340,377 314.5,351.5 Q289,326 251,326 Q213,326 187.5,351.5 Q162,377 162,415 Q162,453 187.5,478.5 Q213,504 251,504 Q289,504 314.5,478.5 Q340,453 340,415"/> 
            <glyph glyph-name="À" unicode="&#xC0;" horiz-adv-x="561" d=" M364,149 L178,149 L104,0 L-82,0 L291,700 L461,700 L561,0 L380,0 M253,301 L349,301 L333,469 M462,744 L343,744 L222,904 L428,904"/> 
            <glyph glyph-name="Á" unicode="&#xC1;" horiz-adv-x="599" d=" M364,149 L178,149 L104,0 L-82,0 L291,700 L461,700 L561,0 L380,0 M253,301 L349,301 L333,469 M389,904 L599,904 L416,744 L296,744"/> 
            <glyph glyph-name="Â" unicode="&#xC2;" horiz-adv-x="570" d=" M364,149 L178,149 L104,0 L-82,0 L291,700 L461,700 L561,0 L380,0 M253,301 L349,301 L333,469 M387,954 L431,954 L570,762 L430,762 L388,818 L327,762 L175,762"/> 
            <glyph glyph-name="Ã" unicode="&#xC3;" horiz-adv-x="593" d=" M364,149 L178,149 L104,0 L-82,0 L291,700 L461,700 L561,0 L380,0 M253,301 L349,301 L333,469 M177,820 Q203,861 241.5,888 Q280,915 328,915 Q353,915 370,909 Q387,903 400.5,896.5 Q414,890 426.5,884 Q439,878 456,878 Q474,878 488.5,887.5 Q503,897 520,919 L593,854 Q567,813 533.5,786 Q500,759 451,759 Q426,759 408,765 Q390,771 375.5,777.5 Q361,784 347.5,790 Q334,796 318,796 Q298,796 281.5,785.5 Q265,775 250,755"/> 
            <glyph glyph-name="Ä" unicode="&#xC4;" horiz-adv-x="576" d=" M364,149 L178,149 L104,0 L-82,0 L291,700 L461,700 L561,0 L380,0 M253,301 L349,301 L333,469 M209,847 Q209,882 231.5,905.5 Q254,929 291,929 Q328,929 350.5,905.5 Q373,882 373,847 Q373,812 350.5,788.5 Q328,765 291,765 Q254,765 231.5,788.5 Q209,812 209,847 M412,847 Q412,882 434.5,905.5 Q457,929 494,929 Q531,929 553.5,905.5 Q576,882 576,847 Q576,812 553.5,788.5 Q531,765 494,765 Q457,765 434.5,788.5 Q412,812 412,847"/> 
            <glyph glyph-name="Å" unicode="&#xC5;" horiz-adv-x="561" d=" M364,149 L178,149 L104,0 L-82,0 L291,700 L461,700 L561,0 L380,0 M253,301 L349,301 L333,469 M288,851 Q288,897 318,927.5 Q348,958 396,958 Q444,958 474,927.5 Q504,897 504,851 Q504,805 474,774.5 Q444,744 396,744 Q348,744 318,774.5 Q288,805 288,851 M366,851 Q366,837 374,828 Q382,819 396,819 Q410,819 418,828 Q426,837 426,851 Q426,865 418,874 Q410,883 396,883 Q382,883 374,874 Q366,865 366,851"/> 
            <glyph glyph-name="Æ" unicode="&#xC6;" horiz-adv-x="932" d=" M902,548 L605,548 L586,449 L819,449 L789,297 L556,297 L528,152 L835,152 L805,0 L318,0 L347,149 L198,149 L109,0 L-82,0 L357,700 L932,700 M289,301 L377,301 L412,479 L396,479"/> 
            <glyph glyph-name="Ç" unicode="&#xC7;" horiz-adv-x="710" d=" M548,444 Q544,465 534,485 Q524,505 508,521 Q492,537 469,546.5 Q446,556 416,556 Q367,556 329,533.5 Q291,511 264.5,475 Q238,439 224,394 Q210,349 210,303 Q210,222 248.5,183 Q287,144 352,144 Q399,144 435.5,177 Q472,210 495,259 L653,206 Q624,144 590,102.5 Q556,61 515,36.5 Q474,12 425.5,2 Q377,-8 320,-8 Q258,-8 205,13 Q152,34 113,72.5 Q74,111 52,165 Q30,219 30,285 Q30,369 57.5,445.5 Q85,522 137,580.5 Q189,639 262.5,673.5 Q336,708 429,708 Q493,708 542.5,691 Q592,674 627,644 Q662,614 683,573.5 Q704,533 710,485 M266,-279 L110,-200 L284,-54 L392,-54"/> 
            <glyph glyph-name="È" unicode="&#xC8;" horiz-adv-x="628" d=" M628,700 L598,548 L301,548 L282,449 L515,449 L485,297 L252,297 L224,152 L531,152 L501,0 L14,0 L151,700 M480,744 L361,744 L240,904 L446,904"/> 
            <glyph glyph-name="É" unicode="&#xC9;" horiz-adv-x="628" d=" M628,700 L598,548 L301,548 L282,449 L515,449 L485,297 L252,297 L224,152 L531,152 L501,0 L14,0 L151,700 M384,904 L594,904 L411,744 L291,744"/> 
            <glyph glyph-name="Ê" unicode="&#xCA;" horiz-adv-x="628" d=" M628,700 L598,548 L301,548 L282,449 L515,449 L485,297 L252,297 L224,152 L531,152 L501,0 L14,0 L151,700 M410,954 L454,954 L593,762 L453,762 L411,818 L350,762 L198,762"/> 
            <glyph glyph-name="Ë" unicode="&#xCB;" horiz-adv-x="628" d=" M628,700 L598,548 L301,548 L282,449 L515,449 L485,297 L252,297 L224,152 L531,152 L501,0 L14,0 L151,700 M220,847 Q220,882 242.5,905.5 Q265,929 302,929 Q339,929 361.5,905.5 Q384,882 384,847 Q384,812 361.5,788.5 Q339,765 302,765 Q265,765 242.5,788.5 Q220,812 220,847 M423,847 Q423,882 445.5,905.5 Q468,929 505,929 Q542,929 564.5,905.5 Q587,882 587,847 Q587,812 564.5,788.5 Q542,765 505,765 Q468,765 445.5,788.5 Q423,812 423,847"/> 
            <glyph glyph-name="Ì" unicode="&#xCC;" horiz-adv-x="339" d=" M194,0 L14,0 L151,700 L331,700 M339,744 L220,744 L99,904 L305,904"/> 
            <glyph glyph-name="Í" unicode="&#xCD;" horiz-adv-x="444" d=" M194,0 L14,0 L151,700 L331,700 M234,904 L444,904 L261,744 L141,744"/> 
            <glyph glyph-name="Î" unicode="&#xCE;" horiz-adv-x="433" d=" M194,0 L14,0 L151,700 L331,700 M65786,954 L65830,954 L65969,762 L65829,762 L65787,818 L65726,762 L65574,762"/> 
            <glyph glyph-name="Ï" unicode="&#xCF;" horiz-adv-x="439" d=" M194,0 L14,0 L151,700 L331,700 M72,847 Q72,882 94.5,905.5 Q117,929 154,929 Q191,929 213.5,905.5 Q236,882 236,847 Q236,812 213.5,788.5 Q191,765 154,765 Q117,765 94.5,788.5 Q72,812 72,847 M275,847 Q275,882 297.5,905.5 Q320,929 357,929 Q394,929 416.5,905.5 Q439,882 439,847 Q439,812 416.5,788.5 Q394,765 357,765 Q320,765 297.5,788.5 Q275,812 275,847"/> 
            <glyph glyph-name="Ð" unicode="&#xD0;" horiz-adv-x="701" d=" M39,416 L120,416 L176,700 L389,700 Q456,700 513,679 Q570,658 612,620.5 Q654,583 677.5,530 Q701,477 701,414 Q701,319 670.5,242.5 Q640,166 584.5,112 Q529,58 451,29 Q373,0 277,0 L39,0 L94,284 L14,284 M285,152 Q342,152 386,171 Q430,190 459.5,223 Q489,256 504.5,301 Q520,346 520,397 Q520,441 507,470 Q494,499 472,516.5 Q450,534 421.5,541 Q393,548 362,548 L322,548 L296,416 L389,416 L364,284 L270,284 L245,152"/> 
            <glyph glyph-name="Ñ" unicode="&#xD1;" horiz-adv-x="717" d=" M717,700 L580,0 L407,0 L258,418 L176,0 L14,0 L151,700 L324,700 L473,282 L555,700 M232,820 Q258,861 296.5,888 Q335,915 383,915 Q408,915 425,909 Q442,903 455.5,896.5 Q469,890 481.5,884 Q494,878 511,878 Q529,878 543.5,887.5 Q558,897 575,919 L648,854 Q622,813 588.5,786 Q555,759 506,759 Q481,759 463,765 Q445,771 430.5,777.5 Q416,784 402.5,790 Q389,796 373,796 Q353,796 336.5,785.5 Q320,775 305,755"/> 
            <glyph glyph-name="Ò" unicode="&#xD2;" horiz-adv-x="736" d=" M429,708 Q495,708 551.5,688.5 Q608,669 649,630.5 Q690,592 713,535.5 Q736,479 736,405 Q736,317 707.5,241.5 Q679,166 627.5,110.5 Q576,55 503,23.5 Q430,-8 340,-8 Q276,-8 219.5,12.5 Q163,33 121,71 Q79,109 54.5,163.5 Q30,218 30,286 Q30,370 57.5,446.5 Q85,523 136.5,581 Q188,639 262,673.5 Q336,708 429,708 M422,556 Q371,556 331.5,533 Q292,510 265,474 Q238,438 224,393 Q210,348 210,304 Q210,263 221.5,233 Q233,203 252.5,183.5 Q272,164 297.5,154 Q323,144 352,144 Q399,144 436.5,167 Q474,190 500.5,226 Q527,262 541,307.5 Q555,353 555,398 Q555,476 517,516 Q479,556 422,556 M521,744 L402,744 L281,904 L487,904"/> 
            <glyph glyph-name="Ó" unicode="&#xD3;" horiz-adv-x="736" d=" M429,708 Q495,708 551.5,688.5 Q608,669 649,630.5 Q690,592 713,535.5 Q736,479 736,405 Q736,317 707.5,241.5 Q679,166 627.5,110.5 Q576,55 503,23.5 Q430,-8 340,-8 Q276,-8 219.5,12.5 Q163,33 121,71 Q79,109 54.5,163.5 Q30,218 30,286 Q30,370 57.5,446.5 Q85,523 136.5,581 Q188,639 262,673.5 Q336,708 429,708 M422,556 Q371,556 331.5,533 Q292,510 265,474 Q238,438 224,393 Q210,348 210,304 Q210,263 221.5,233 Q233,203 252.5,183.5 Q272,164 297.5,154 Q323,144 352,144 Q399,144 436.5,167 Q474,190 500.5,226 Q527,262 541,307.5 Q555,353 555,398 Q555,476 517,516 Q479,556 422,556 M446,904 L656,904 L473,744 L353,744"/> 
            <glyph glyph-name="Ô" unicode="&#xD4;" horiz-adv-x="736" d=" M429,708 Q495,708 551.5,688.5 Q608,669 649,630.5 Q690,592 713,535.5 Q736,479 736,405 Q736,317 707.5,241.5 Q679,166 627.5,110.5 Q576,55 503,23.5 Q430,-8 340,-8 Q276,-8 219.5,12.5 Q163,33 121,71 Q79,109 54.5,163.5 Q30,218 30,286 Q30,370 57.5,446.5 Q85,523 136.5,581 Q188,639 262,673.5 Q336,708 429,708 M422,556 Q371,556 331.5,533 Q292,510 265,474 Q238,438 224,393 Q210,348 210,304 Q210,263 221.5,233 Q233,203 252.5,183.5 Q272,164 297.5,154 Q323,144 352,144 Q399,144 436.5,167 Q474,190 500.5,226 Q527,262 541,307.5 Q555,353 555,398 Q555,476 517,516 Q479,556 422,556 M454,954 L498,954 L637,762 L497,762 L455,818 L394,762 L242,762"/> 
            <glyph glyph-name="Õ" unicode="&#xD5;" horiz-adv-x="736" d=" M429,708 Q495,708 551.5,688.5 Q608,669 649,630.5 Q690,592 713,535.5 Q736,479 736,405 Q736,317 707.5,241.5 Q679,166 627.5,110.5 Q576,55 503,23.5 Q430,-8 340,-8 Q276,-8 219.5,12.5 Q163,33 121,71 Q79,109 54.5,163.5 Q30,218 30,286 Q30,370 57.5,446.5 Q85,523 136.5,581 Q188,639 262,673.5 Q336,708 429,708 M422,556 Q371,556 331.5,533 Q292,510 265,474 Q238,438 224,393 Q210,348 210,304 Q210,263 221.5,233 Q233,203 252.5,183.5 Q272,164 297.5,154 Q323,144 352,144 Q399,144 436.5,167 Q474,190 500.5,226 Q527,262 541,307.5 Q555,353 555,398 Q555,476 517,516 Q479,556 422,556 M247,820 Q273,861 311.5,888 Q350,915 398,915 Q423,915 440,909 Q457,903 470.5,896.5 Q484,890 496.5,884 Q509,878 526,878 Q544,878 558.5,887.5 Q573,897 590,919 L663,854 Q637,813 603.5,786 Q570,759 521,759 Q496,759 478,765 Q460,771 445.5,777.5 Q431,784 417.5,790 Q404,796 388,796 Q368,796 351.5,785.5 Q335,775 320,755"/> 
            <glyph glyph-name="Ö" unicode="&#xD6;" horiz-adv-x="736" d=" M429,708 Q495,708 551.5,688.5 Q608,669 649,630.5 Q690,592 713,535.5 Q736,479 736,405 Q736,317 707.5,241.5 Q679,166 627.5,110.5 Q576,55 503,23.5 Q430,-8 340,-8 Q276,-8 219.5,12.5 Q163,33 121,71 Q79,109 54.5,163.5 Q30,218 30,286 Q30,370 57.5,446.5 Q85,523 136.5,581 Q188,639 262,673.5 Q336,708 429,708 M422,556 Q371,556 331.5,533 Q292,510 265,474 Q238,438 224,393 Q210,348 210,304 Q210,263 221.5,233 Q233,203 252.5,183.5 Q272,164 297.5,154 Q323,144 352,144 Q399,144 436.5,167 Q474,190 500.5,226 Q527,262 541,307.5 Q555,353 555,398 Q555,476 517,516 Q479,556 422,556 M286,847 Q286,882 308.5,905.5 Q331,929 368,929 Q405,929 427.5,905.5 Q450,882 450,847 Q450,812 427.5,788.5 Q405,765 368,765 Q331,765 308.5,788.5 Q286,812 286,847 M489,847 Q489,882 511.5,905.5 Q534,929 571,929 Q608,929 630.5,905.5 Q653,882 653,847 Q653,812 630.5,788.5 Q608,765 571,765 Q534,765 511.5,788.5 Q489,812 489,847"/> 
            <glyph glyph-name="×" unicode="&#xD7;" horiz-adv-x="562" d=" M153,571 L308,416 L463,571 L562,472 L407,317 L562,162 L463,63 L308,218 L153,63 L54,162 L209,317 L54,472"/> 
            <glyph glyph-name="Ø" unicode="&#xD8;" horiz-adv-x="777" d=" M429,708 Q530,708 604,664 L693,755 L777,670 L690,581 Q712,546 724,503 Q736,460 736,409 Q736,320 707.5,243.5 Q679,167 627.5,111 Q576,55 503,23.5 Q430,-8 340,-8 Q239,-8 163,39 L73,-54 L-11,30 L77,121 Q54,155 42,196 Q30,237 30,286 Q30,370 57.5,446.5 Q85,523 136.5,581 Q188,639 262,673.5 Q336,708 429,708 M422,556 Q371,556 331.5,533 Q292,510 265,474 Q238,438 224,393 Q210,348 210,304 Q210,278 214,261 L484,540 Q470,547 454.5,551.5 Q439,556 422,556 M555,398 Q555,420 552,438 L283,162 Q298,154 315.5,149 Q333,144 352,144 Q399,144 436.5,167 Q474,190 500.5,226 Q527,262 541,307.5 Q555,353 555,398"/> 
            <glyph glyph-name="Ù" unicode="&#xD9;" horiz-adv-x="688" d=" M604,266 Q590,196 562,144.5 Q534,93 493,59 Q452,25 399,8.5 Q346,-8 284,-8 Q239,-8 196.5,5 Q154,18 120.5,44.5 Q87,71 66.5,111.5 Q46,152 46,207 Q46,221 47.5,235 Q49,249 52,266 L136,700 L301,700 L219,274 Q215,254 215,240 Q215,195 240,170.5 Q265,146 311,146 Q357,146 392.5,177 Q428,208 441,274 L523,700 L688,700 M489,744 L370,744 L249,904 L455,904"/> 
            <glyph glyph-name="Ú" unicode="&#xDA;" horiz-adv-x="688" d=" M604,266 Q590,196 562,144.5 Q534,93 493,59 Q452,25 399,8.5 Q346,-8 284,-8 Q239,-8 196.5,5 Q154,18 120.5,44.5 Q87,71 66.5,111.5 Q46,152 46,207 Q46,221 47.5,235 Q49,249 52,266 L136,700 L301,700 L219,274 Q215,254 215,240 Q215,195 240,170.5 Q265,146 311,146 Q357,146 392.5,177 Q428,208 441,274 L523,700 L688,700 M428,904 L638,904 L455,744 L335,744"/> 
            <glyph glyph-name="Û" unicode="&#xDB;" horiz-adv-x="688" d=" M604,266 Q590,196 562,144.5 Q534,93 493,59 Q452,25 399,8.5 Q346,-8 284,-8 Q239,-8 196.5,5 Q154,18 120.5,44.5 Q87,71 66.5,111.5 Q46,152 46,207 Q46,221 47.5,235 Q49,249 52,266 L136,700 L301,700 L219,274 Q215,254 215,240 Q215,195 240,170.5 Q265,146 311,146 Q357,146 392.5,177 Q428,208 441,274 L523,700 L688,700 M426,954 L470,954 L609,762 L469,762 L427,818 L366,762 L214,762"/> 
            <glyph glyph-name="Ü" unicode="&#xDC;" horiz-adv-x="688" d=" M604,266 Q590,196 562,144.5 Q534,93 493,59 Q452,25 399,8.5 Q346,-8 284,-8 Q239,-8 196.5,5 Q154,18 120.5,44.5 Q87,71 66.5,111.5 Q46,152 46,207 Q46,221 47.5,235 Q49,249 52,266 L136,700 L301,700 L219,274 Q215,254 215,240 Q215,195 240,170.5 Q265,146 311,146 Q357,146 392.5,177 Q428,208 441,274 L523,700 L688,700 M255,847 Q255,882 277.5,905.5 Q300,929 337,929 Q374,929 396.5,905.5 Q419,882 419,847 Q419,812 396.5,788.5 Q374,765 337,765 Q300,765 277.5,788.5 Q255,812 255,847 M458,847 Q458,882 480.5,905.5 Q503,929 540,929 Q577,929 599.5,905.5 Q622,882 622,847 Q622,812 599.5,788.5 Q577,765 540,765 Q503,765 480.5,788.5 Q458,812 458,847"/> 
            <glyph glyph-name="Ý" unicode="&#xDD;" horiz-adv-x="630" d=" M224,700 L285,468 L438,700 L630,700 L348,298 L290,0 L110,0 L168,298 L44,700 M347,904 L557,904 L374,744 L254,744"/> 
            <glyph glyph-name="Þ" unicode="&#xDE;" horiz-adv-x="608" d=" M305,567 L384,567 Q488,567 548,517.5 Q608,468 608,374 Q608,311 585.5,265.5 Q563,220 524.5,190.5 Q486,161 435.5,147 Q385,133 328,133 L220,133 L194,0 L14,0 L151,700 L331,700 M345,279 Q387,279 411,301.5 Q435,324 435,362 Q435,421 372,421 L276,421 L248,279"/> 
            <glyph glyph-name="ß" unicode="&#xDF;" horiz-adv-x="555" d=" M58,450 L100,450 L110,500 Q130,603 197.5,655.5 Q265,708 363,708 Q412,708 448,696 Q484,684 508,663 Q532,642 543.5,614 Q555,586 555,554 Q555,507 529,464 Q503,421 452,397 Q495,375 519.5,332 Q544,289 544,239 Q544,114 474.5,53 Q405,-8 284,-8 Q250,-8 225.5,-5.5 Q201,-3 190,0 L217,134 Q246,121 285,121 Q305,121 323.5,127 Q342,133 356.5,145.5 Q371,158 379.5,178 Q388,198 388,226 Q388,268 362,291 Q336,314 289,314 L265,314 L291,450 L311,450 Q351,450 377.5,470 Q404,490 404,527 Q404,551 391,566.5 Q378,582 351,582 Q320,582 299,561.5 Q278,541 270,503 L172,0 L12,0 L74,314 L32,314"/> 
            <glyph glyph-name="à" unicode="&#xE0;" horiz-adv-x="594" d=" M594,504 L496,0 L330,0 L339,43 Q315,14 283.5,3 Q252,-8 217,-8 Q170,-8 134.5,8 Q99,24 74,53.5 Q49,83 36.5,123.5 Q24,164 24,212 Q24,265 41.5,318.5 Q59,372 93.5,415 Q128,458 180,485 Q232,512 302,512 Q346,512 374.5,498 Q403,484 420,464 L428,504 M313,372 Q284,372 261,360.5 Q238,349 222,329.5 Q206,310 198,283.5 Q190,257 190,227 Q190,179 215.5,155.5 Q241,132 278,132 Q303,132 324,143.5 Q345,155 360,175 Q375,195 383.5,221 Q392,247 392,276 Q392,329 369,350.5 Q346,372 313,372 M421,548 L302,548 L181,708 L387,708"/> 
            <glyph glyph-name="á" unicode="&#xE1;" horiz-adv-x="594" d=" M594,504 L496,0 L330,0 L339,43 Q315,14 283.5,3 Q252,-8 217,-8 Q170,-8 134.5,8 Q99,24 74,53.5 Q49,83 36.5,123.5 Q24,164 24,212 Q24,265 41.5,318.5 Q59,372 93.5,415 Q128,458 180,485 Q232,512 302,512 Q346,512 374.5,498 Q403,484 420,464 L428,504 M313,372 Q284,372 261,360.5 Q238,349 222,329.5 Q206,310 198,283.5 Q190,257 190,227 Q190,179 215.5,155.5 Q241,132 278,132 Q303,132 324,143.5 Q345,155 360,175 Q375,195 383.5,221 Q392,247 392,276 Q392,329 369,350.5 Q346,372 313,372 M344,708 L554,708 L371,548 L251,548"/> 
            <glyph glyph-name="â" unicode="&#xE2;" horiz-adv-x="594" d=" M594,504 L496,0 L330,0 L339,43 Q315,14 283.5,3 Q252,-8 217,-8 Q170,-8 134.5,8 Q99,24 74,53.5 Q49,83 36.5,123.5 Q24,164 24,212 Q24,265 41.5,318.5 Q59,372 93.5,415 Q128,458 180,485 Q232,512 302,512 Q346,512 374.5,498 Q403,484 420,464 L428,504 M313,372 Q284,372 261,360.5 Q238,349 222,329.5 Q206,310 198,283.5 Q190,257 190,227 Q190,179 215.5,155.5 Q241,132 278,132 Q303,132 324,143.5 Q345,155 360,175 Q375,195 383.5,221 Q392,247 392,276 Q392,329 369,350.5 Q346,372 313,372 M361,758 L405,758 L544,566 L404,566 L362,622 L301,566 L149,566"/> 
            <glyph glyph-name="ã" unicode="&#xE3;" horiz-adv-x="594" d=" M594,504 L496,0 L330,0 L339,43 Q315,14 283.5,3 Q252,-8 217,-8 Q170,-8 134.5,8 Q99,24 74,53.5 Q49,83 36.5,123.5 Q24,164 24,212 Q24,265 41.5,318.5 Q59,372 93.5,415 Q128,458 180,485 Q232,512 302,512 Q346,512 374.5,498 Q403,484 420,464 L428,504 M313,372 Q284,372 261,360.5 Q238,349 222,329.5 Q206,310 198,283.5 Q190,257 190,227 Q190,179 215.5,155.5 Q241,132 278,132 Q303,132 324,143.5 Q345,155 360,175 Q375,195 383.5,221 Q392,247 392,276 Q392,329 369,350.5 Q346,372 313,372 M133,624 Q159,665 197.5,692 Q236,719 284,719 Q309,719 326,713 Q343,707 356.5,700.5 Q370,694 382.5,688 Q395,682 412,682 Q430,682 444.5,691.5 Q459,701 476,723 L549,658 Q523,617 489.5,590 Q456,563 407,563 Q382,563 364,569 Q346,575 331.5,581.5 Q317,588 303.5,594 Q290,600 274,600 Q254,600 237.5,589.5 Q221,579 206,559"/> 
            <glyph glyph-name="ä" unicode="&#xE4;" horiz-adv-x="594" d=" M594,504 L496,0 L330,0 L339,43 Q315,14 283.5,3 Q252,-8 217,-8 Q170,-8 134.5,8 Q99,24 74,53.5 Q49,83 36.5,123.5 Q24,164 24,212 Q24,265 41.5,318.5 Q59,372 93.5,415 Q128,458 180,485 Q232,512 302,512 Q346,512 374.5,498 Q403,484 420,464 L428,504 M313,372 Q284,372 261,360.5 Q238,349 222,329.5 Q206,310 198,283.5 Q190,257 190,227 Q190,179 215.5,155.5 Q241,132 278,132 Q303,132 324,143.5 Q345,155 360,175 Q375,195 383.5,221 Q392,247 392,276 Q392,329 369,350.5 Q346,372 313,372 M174,651 Q174,686 196.5,709.5 Q219,733 256,733 Q293,733 315.5,709.5 Q338,686 338,651 Q338,616 315.5,592.5 Q293,569 256,569 Q219,569 196.5,592.5 Q174,616 174,651 M377,651 Q377,686 399.5,709.5 Q422,733 459,733 Q496,733 518.5,709.5 Q541,686 541,651 Q541,616 518.5,592.5 Q496,569 459,569 Q422,569 399.5,592.5 Q377,616 377,651"/> 
            <glyph glyph-name="å" unicode="&#xE5;" horiz-adv-x="594" d=" M594,504 L496,0 L330,0 L339,43 Q315,14 283.5,3 Q252,-8 217,-8 Q170,-8 134.5,8 Q99,24 74,53.5 Q49,83 36.5,123.5 Q24,164 24,212 Q24,265 41.5,318.5 Q59,372 93.5,415 Q128,458 180,485 Q232,512 302,512 Q346,512 374.5,498 Q403,484 420,464 L428,504 M313,372 Q284,372 261,360.5 Q238,349 222,329.5 Q206,310 198,283.5 Q190,257 190,227 Q190,179 215.5,155.5 Q241,132 278,132 Q303,132 324,143.5 Q345,155 360,175 Q375,195 383.5,221 Q392,247 392,276 Q392,329 369,350.5 Q346,372 313,372 M236,655 Q236,701 266,731.5 Q296,762 344,762 Q392,762 422,731.5 Q452,701 452,655 Q452,609 422,578.5 Q392,548 344,548 Q296,548 266,578.5 Q236,609 236,655 M314,655 Q314,641 322,632 Q330,623 344,623 Q358,623 366,632 Q374,641 374,655 Q374,669 366,678 Q358,687 344,687 Q330,687 322,678 Q314,669 314,655"/> 
            <glyph glyph-name="æ" unicode="&#xE6;" horiz-adv-x="846" d=" M73,368 Q99,442 156,477 Q213,512 295,512 Q345,512 385,499.5 Q425,487 457,458 Q492,483 536.5,497.5 Q581,512 635,512 Q694,512 734.5,494.5 Q775,477 799.5,448.5 Q824,420 835,384.5 Q846,349 846,313 Q846,299 844.5,286.5 Q843,274 841,262 L830,202 L490,202 Q495,164 519,144.5 Q543,125 575,125 Q609,125 635.5,138 Q662,151 688,185 L808,124 Q763,57 706,24.5 Q649,-8 564,-8 Q498,-8 450,16.5 Q402,41 373,82 Q339,40 291,16 Q243,-8 190,-8 Q154,-8 121.5,0 Q89,8 65,25.5 Q41,43 27,70 Q13,97 13,136 Q13,181 30.5,213.5 Q48,246 78,267.5 Q108,289 149,299.5 Q190,310 238,310 L346,310 L349,327 Q350,332 350,334 Q350,336 350,339 Q350,364 333,378.5 Q316,393 287,393 Q261,393 238.5,380 Q216,367 202,338 M620,393 Q576,393 548.5,369.5 Q521,346 506,310 L697,310 Q697,324 693,339 Q689,354 679.5,366 Q670,378 655.5,385.5 Q641,393 620,393 M235,202 Q206,202 187.5,189 Q169,176 169,153 Q169,132 185,123.5 Q201,115 221,115 Q239,115 256,121.5 Q273,128 287,139 Q301,150 310.5,164.5 Q320,179 323,196 L324,202"/> 
            <glyph glyph-name="ç" unicode="&#xE7;" horiz-adv-x="554" d=" M512,139 Q463,63 401.5,27.5 Q340,-8 252,-8 Q197,-8 154.5,9.5 Q112,27 83,56.5 Q54,86 39,125 Q24,164 24,207 Q24,268 46,323.5 Q68,379 108.5,421 Q149,463 207,487.5 Q265,512 337,512 Q429,512 480,473.5 Q531,435 554,364 L400,305 Q395,336 375,354 Q355,372 319,372 Q286,372 262,358.5 Q238,345 222,324 Q206,303 198,277 Q190,251 190,225 Q190,183 211,157.5 Q232,132 274,132 Q338,132 378,199 M193,-279 L37,-200 L211,-54 L319,-54"/> 
            <glyph glyph-name="è" unicode="&#xE8;" horiz-adv-x="539" d=" M180,202 Q187,164 211.5,144.5 Q236,125 268,125 Q302,125 328.5,138 Q355,151 381,185 L501,124 Q456,57 399,24.5 Q342,-8 257,-8 Q201,-8 158,10 Q115,28 85,59 Q55,90 39.5,130.5 Q24,171 24,216 Q24,270 43.5,323 Q63,376 101,418 Q139,460 196,486 Q253,512 328,512 Q387,512 427.5,494.5 Q468,477 492.5,448.5 Q517,420 528,384.5 Q539,349 539,313 Q539,288 533,257 L523,202 M313,393 Q272,393 243,370.5 Q214,348 197,316 L390,316 Q390,328 386,342 Q382,356 372.5,367 Q363,378 348.5,385.5 Q334,393 313,393 M402,548 L283,548 L162,708 L368,708"/> 
            <glyph glyph-name="é" unicode="&#xE9;" horiz-adv-x="552" d=" M180,202 Q187,164 211.5,144.5 Q236,125 268,125 Q302,125 328.5,138 Q355,151 381,185 L501,124 Q456,57 399,24.5 Q342,-8 257,-8 Q201,-8 158,10 Q115,28 85,59 Q55,90 39.5,130.5 Q24,171 24,216 Q24,270 43.5,323 Q63,376 101,418 Q139,460 196,486 Q253,512 328,512 Q387,512 427.5,494.5 Q468,477 492.5,448.5 Q517,420 528,384.5 Q539,349 539,313 Q539,288 533,257 L523,202 M313,393 Q272,393 243,370.5 Q214,348 197,316 L390,316 Q390,328 386,342 Q382,356 372.5,367 Q363,378 348.5,385.5 Q334,393 313,393 M342,708 L552,708 L369,548 L249,548"/> 
            <glyph glyph-name="ê" unicode="&#xEA;" horiz-adv-x="539" d=" M180,202 Q187,164 211.5,144.5 Q236,125 268,125 Q302,125 328.5,138 Q355,151 381,185 L501,124 Q456,57 399,24.5 Q342,-8 257,-8 Q201,-8 158,10 Q115,28 85,59 Q55,90 39.5,130.5 Q24,171 24,216 Q24,270 43.5,323 Q63,376 101,418 Q139,460 196,486 Q253,512 328,512 Q387,512 427.5,494.5 Q468,477 492.5,448.5 Q517,420 528,384.5 Q539,349 539,313 Q539,288 533,257 L523,202 M313,393 Q272,393 243,370.5 Q214,348 197,316 L390,316 Q390,328 386,342 Q382,356 372.5,367 Q363,378 348.5,385.5 Q334,393 313,393 M346,758 L390,758 L529,566 L389,566 L347,622 L286,566 L134,566"/> 
            <glyph glyph-name="ë" unicode="&#xEB;" horiz-adv-x="539" d=" M180,202 Q187,164 211.5,144.5 Q236,125 268,125 Q302,125 328.5,138 Q355,151 381,185 L501,124 Q456,57 399,24.5 Q342,-8 257,-8 Q201,-8 158,10 Q115,28 85,59 Q55,90 39.5,130.5 Q24,171 24,216 Q24,270 43.5,323 Q63,376 101,418 Q139,460 196,486 Q253,512 328,512 Q387,512 427.5,494.5 Q468,477 492.5,448.5 Q517,420 528,384.5 Q539,349 539,313 Q539,288 533,257 L523,202 M313,393 Q272,393 243,370.5 Q214,348 197,316 L390,316 Q390,328 386,342 Q382,356 372.5,367 Q363,378 348.5,385.5 Q334,393 313,393 M165,651 Q165,686 187.5,709.5 Q210,733 247,733 Q284,733 306.5,709.5 Q329,686 329,651 Q329,616 306.5,592.5 Q284,569 247,569 Q210,569 187.5,592.5 Q165,616 165,651 M368,651 Q368,686 390.5,709.5 Q413,733 450,733 Q487,733 509.5,709.5 Q532,686 532,651 Q532,616 509.5,592.5 Q487,569 450,569 Q413,569 390.5,592.5 Q368,616 368,651"/> 
            <glyph glyph-name="ì" unicode="&#xEC;" horiz-adv-x="293" d=" M279,504 L182,0 L16,0 L113,504 M293,548 L174,548 L53,708 L259,708"/> 
            <glyph glyph-name="í" unicode="&#xED;" horiz-adv-x="409" d=" M279,504 L182,0 L16,0 L113,504 M199,708 L409,708 L226,548 L106,548"/> 
            <glyph glyph-name="î" unicode="&#xEE;" horiz-adv-x="393" d=" M279,504 L182,0 L16,0 L113,504 M466,758 L510,758 L649,566 L509,566 L467,622 L406,566 L254,566"/> 
            <glyph glyph-name="ï" unicode="&#xEF;" horiz-adv-x="399" d=" M279,504 L182,0 L16,0 L113,504 M288,651 Q288,686 310.5,709.5 Q333,733 370,733 Q407,733 429.5,709.5 Q452,686 452,651 Q452,616 429.5,592.5 Q407,569 370,569 Q333,569 310.5,592.5 Q288,616 288,651 M491,651 Q491,686 513.5,709.5 Q536,733 573,733 Q610,733 632.5,709.5 Q655,686 655,651 Q655,616 632.5,592.5 Q610,569 573,569 Q536,569 513.5,592.5 Q491,616 491,651"/> 
            <glyph glyph-name="ð" unicode="&#xF0;" horiz-adv-x="570" d=" M237,585 L266,618 Q247,629 228,637 Q209,645 192,652 L285,767 Q325,750 364,728 L413,783 L483,723 L439,673 Q503,616 536.5,540.5 Q570,465 570,365 Q570,294 554,227 Q538,160 501.5,107.5 Q465,55 407,23.5 Q349,-8 265,-8 Q213,-8 169,9 Q125,26 92.5,56.5 Q60,87 42,130 Q24,173 24,224 Q24,275 44,326.5 Q64,378 102.5,419 Q141,460 198,486 Q255,512 329,512 Q367,512 402,499 Q382,533 343,566 L309,527 M306,372 Q283,372 263,360.5 Q243,349 227.5,328.5 Q212,308 203,281.5 Q194,255 194,225 Q194,186 218.5,159 Q243,132 284,132 Q308,132 327.5,143 Q347,154 361.5,173 Q376,192 384,217.5 Q392,243 392,272 Q392,316 372.5,344 Q353,372 306,372"/> 
            <glyph glyph-name="ñ" unicode="&#xF1;" horiz-adv-x="560" d=" M278,504 L266,446 Q318,512 413,512 Q482,512 520,473 Q558,434 558,367 Q558,356 557.5,347 Q557,338 554,324 L491,0 L325,0 L383,298 Q385,308 385,316 Q385,366 336,366 Q298,366 267.5,329.5 Q237,293 223,221 L180,0 L14,0 L112,504 M144,624 Q170,665 208.5,692 Q247,719 295,719 Q320,719 337,713 Q354,707 367.5,700.5 Q381,694 393.5,688 Q406,682 423,682 Q441,682 455.5,691.5 Q470,701 487,723 L560,658 Q534,617 500.5,590 Q467,563 418,563 Q393,563 375,569 Q357,575 342.5,581.5 Q328,588 314.5,594 Q301,600 285,600 Q265,600 248.5,589.5 Q232,579 217,559"/> 
            <glyph glyph-name="ò" unicode="&#xF2;" horiz-adv-x="564" d=" M24,213 Q24,272 44,326 Q64,380 101.5,421.5 Q139,463 194,487.5 Q249,512 319,512 Q374,512 419,496 Q464,480 496.5,450.5 Q529,421 546.5,380 Q564,339 564,288 Q564,226 542.5,172 Q521,118 482,78 Q443,38 387.5,15 Q332,-8 264,-8 Q211,-8 166.5,8.5 Q122,25 90.5,54 Q59,83 41.5,124 Q24,165 24,213 M310,372 Q283,372 260.5,359.5 Q238,347 222.5,327 Q207,307 198.5,281.5 Q190,256 190,229 Q190,180 216.5,156 Q243,132 281,132 Q308,132 329.5,143 Q351,154 366,172.5 Q381,191 389.5,217 Q398,243 398,273 Q398,319 373.5,345.5 Q349,372 310,372 M396,548 L277,548 L156,708 L362,708"/> 
            <glyph glyph-name="ó" unicode="&#xF3;" horiz-adv-x="564" d=" M24,213 Q24,272 44,326 Q64,380 101.5,421.5 Q139,463 194,487.5 Q249,512 319,512 Q374,512 419,496 Q464,480 496.5,450.5 Q529,421 546.5,380 Q564,339 564,288 Q564,226 542.5,172 Q521,118 482,78 Q443,38 387.5,15 Q332,-8 264,-8 Q211,-8 166.5,8.5 Q122,25 90.5,54 Q59,83 41.5,124 Q24,165 24,213 M310,372 Q283,372 260.5,359.5 Q238,347 222.5,327 Q207,307 198.5,281.5 Q190,256 190,229 Q190,180 216.5,156 Q243,132 281,132 Q308,132 329.5,143 Q351,154 366,172.5 Q381,191 389.5,217 Q398,243 398,273 Q398,319 373.5,345.5 Q349,372 310,372 M326,708 L536,708 L353,548 L233,548"/> 
            <glyph glyph-name="ô" unicode="&#xF4;" horiz-adv-x="564" d=" M24,213 Q24,272 44,326 Q64,380 101.5,421.5 Q139,463 194,487.5 Q249,512 319,512 Q374,512 419,496 Q464,480 496.5,450.5 Q529,421 546.5,380 Q564,339 564,288 Q564,226 542.5,172 Q521,118 482,78 Q443,38 387.5,15 Q332,-8 264,-8 Q211,-8 166.5,8.5 Q122,25 90.5,54 Q59,83 41.5,124 Q24,165 24,213 M310,372 Q283,372 260.5,359.5 Q238,347 222.5,327 Q207,307 198.5,281.5 Q190,256 190,229 Q190,180 216.5,156 Q243,132 281,132 Q308,132 329.5,143 Q351,154 366,172.5 Q381,191 389.5,217 Q398,243 398,273 Q398,319 373.5,345.5 Q349,372 310,372 M339,758 L383,758 L522,566 L382,566 L340,622 L279,566 L127,566"/> 
            <glyph glyph-name="õ" unicode="&#xF5;" horiz-adv-x="564" d=" M24,213 Q24,272 44,326 Q64,380 101.5,421.5 Q139,463 194,487.5 Q249,512 319,512 Q374,512 419,496 Q464,480 496.5,450.5 Q529,421 546.5,380 Q564,339 564,288 Q564,226 542.5,172 Q521,118 482,78 Q443,38 387.5,15 Q332,-8 264,-8 Q211,-8 166.5,8.5 Q122,25 90.5,54 Q59,83 41.5,124 Q24,165 24,213 M310,372 Q283,372 260.5,359.5 Q238,347 222.5,327 Q207,307 198.5,281.5 Q190,256 190,229 Q190,180 216.5,156 Q243,132 281,132 Q308,132 329.5,143 Q351,154 366,172.5 Q381,191 389.5,217 Q398,243 398,273 Q398,319 373.5,345.5 Q349,372 310,372 M135,624 Q161,665 199.5,692 Q238,719 286,719 Q311,719 328,713 Q345,707 358.5,700.5 Q372,694 384.5,688 Q397,682 414,682 Q432,682 446.5,691.5 Q461,701 478,723 L551,658 Q525,617 491.5,590 Q458,563 409,563 Q384,563 366,569 Q348,575 333.5,581.5 Q319,588 305.5,594 Q292,600 276,600 Q256,600 239.5,589.5 Q223,579 208,559"/> 
            <glyph glyph-name="ö" unicode="&#xF6;" horiz-adv-x="564" d=" M24,213 Q24,272 44,326 Q64,380 101.5,421.5 Q139,463 194,487.5 Q249,512 319,512 Q374,512 419,496 Q464,480 496.5,450.5 Q529,421 546.5,380 Q564,339 564,288 Q564,226 542.5,172 Q521,118 482,78 Q443,38 387.5,15 Q332,-8 264,-8 Q211,-8 166.5,8.5 Q122,25 90.5,54 Q59,83 41.5,124 Q24,165 24,213 M310,372 Q283,372 260.5,359.5 Q238,347 222.5,327 Q207,307 198.5,281.5 Q190,256 190,229 Q190,180 216.5,156 Q243,132 281,132 Q308,132 329.5,143 Q351,154 366,172.5 Q381,191 389.5,217 Q398,243 398,273 Q398,319 373.5,345.5 Q349,372 310,372 M155,651 Q155,686 177.5,709.5 Q200,733 237,733 Q274,733 296.5,709.5 Q319,686 319,651 Q319,616 296.5,592.5 Q274,569 237,569 Q200,569 177.5,592.5 Q155,616 155,651 M358,651 Q358,686 380.5,709.5 Q403,733 440,733 Q477,733 499.5,709.5 Q522,686 522,651 Q522,616 499.5,592.5 Q477,569 440,569 Q403,569 380.5,592.5 Q358,616 358,651"/> 
            <glyph glyph-name="÷" unicode="&#xF7;" horiz-adv-x="544" d=" M52,375 L544,375 L544,255 L52,255 M205,124 Q205,164 231.5,190.5 Q258,217 298,217 Q338,217 364.5,190.5 Q391,164 391,124 Q391,84 364.5,57.5 Q338,31 298,31 Q258,31 231.5,57.5 Q205,84 205,124 M205,506 Q205,546 231.5,572.5 Q258,599 298,599 Q338,599 364.5,572.5 Q391,546 391,506 Q391,466 364.5,439.5 Q338,413 298,413 Q258,413 231.5,439.5 Q205,466 205,506"/> 
            <glyph glyph-name="ø" unicode="&#xF8;" horiz-adv-x="610" d=" M24,213 Q24,272 44,326 Q64,380 102.5,421.5 Q141,463 195.5,487.5 Q250,512 319,512 Q384,512 435,489 L521,577 L610,493 L530,411 Q564,358 564,288 Q564,226 542.5,172 Q521,118 482,78 Q443,38 387.5,15 Q332,-8 264,-8 Q197,-8 145,18 L61,-68 L-27,16 L54,99 Q24,147 24,213 M280,132 Q335,132 366,171.5 Q397,211 397,275 L258,134 Q263,132 268,132 Q273,132 280,132 M310,372 Q284,372 262.5,360.5 Q241,349 225,330.5 Q209,312 200.5,288 Q192,264 191,240 L320,371 Q317,372 310,372"/> 
            <glyph glyph-name="ù" unicode="&#xF9;" horiz-adv-x="589" d=" M325,0 L337,58 Q284,-8 192,-8 Q126,-8 85,31 Q44,70 44,137 Q44,148 44.5,157 Q45,166 48,180 L111,504 L277,504 L219,206 Q217,196 217,188 Q217,164 231,151 Q245,138 266,138 Q311,138 338.5,174.5 Q366,211 380,283 L423,504 L589,504 L491,0 M420,548 L301,548 L180,708 L386,708"/> 
            <glyph glyph-name="ú" unicode="&#xFA;" horiz-adv-x="589" d=" M325,0 L337,58 Q284,-8 192,-8 Q126,-8 85,31 Q44,70 44,137 Q44,148 44.5,157 Q45,166 48,180 L111,504 L277,504 L219,206 Q217,196 217,188 Q217,164 231,151 Q245,138 266,138 Q311,138 338.5,174.5 Q366,211 380,283 L423,504 L589,504 L491,0 M363,708 L573,708 L390,548 L270,548"/> 
            <glyph glyph-name="û" unicode="&#xFB;" horiz-adv-x="589" d=" M325,0 L337,58 Q284,-8 192,-8 Q126,-8 85,31 Q44,70 44,137 Q44,148 44.5,157 Q45,166 48,180 L111,504 L277,504 L219,206 Q217,196 217,188 Q217,164 231,151 Q245,138 266,138 Q311,138 338.5,174.5 Q366,211 380,283 L423,504 L589,504 L491,0 M362,758 L406,758 L545,566 L405,566 L363,622 L302,566 L150,566"/> 
            <glyph glyph-name="ü" unicode="&#xFC;" horiz-adv-x="589" d=" M325,0 L337,58 Q284,-8 192,-8 Q126,-8 85,31 Q44,70 44,137 Q44,148 44.5,157 Q45,166 48,180 L111,504 L277,504 L219,206 Q217,196 217,188 Q217,164 231,151 Q245,138 266,138 Q311,138 338.5,174.5 Q366,211 380,283 L423,504 L589,504 L491,0 M186,651 Q186,686 208.5,709.5 Q231,733 268,733 Q305,733 327.5,709.5 Q350,686 350,651 Q350,616 327.5,592.5 Q305,569 268,569 Q231,569 208.5,592.5 Q186,616 186,651 M389,651 Q389,686 411.5,709.5 Q434,733 471,733 Q508,733 530.5,709.5 Q553,686 553,651 Q553,616 530.5,592.5 Q508,569 471,569 Q434,569 411.5,592.5 Q389,616 389,651"/> 
            <glyph glyph-name="ý" unicode="&#xFD;" horiz-adv-x="544" d=" M125,45 L36,504 L214,504 L249,259 L373,504 L544,504 L151,-204 L-9,-204 M315,708 L525,708 L342,548 L222,548"/> 
            <glyph glyph-name="þ" unicode="&#xFE;" horiz-adv-x="578" d=" M578,302 Q578,240 559,184 Q540,128 504.5,85.5 Q469,43 417,17.5 Q365,-8 299,-8 Q261,-8 233,3 Q205,14 185,30 L140,-204 L-26,-204 L153,708 L319,708 L269,461 Q295,485 327.5,498.5 Q360,512 404,512 Q485,512 531.5,455.5 Q578,399 578,302 M297,132 Q324,132 345.5,145 Q367,158 382,179 Q397,200 404.5,227 Q412,254 412,282 Q412,327 392,349.5 Q372,372 338,372 Q309,372 287,358.5 Q265,345 249,323.5 Q233,302 225,275 Q217,248 217,222 Q217,177 240,154.5 Q263,132 297,132"/> 
            <glyph glyph-name="ÿ" unicode="&#xFF;" horiz-adv-x="544" d=" M125,45 L36,504 L214,504 L249,259 L373,504 L544,504 L151,-204 L-9,-204 M124,651 Q124,686 146.5,709.5 Q169,733 206,733 Q243,733 265.5,709.5 Q288,686 288,651 Q288,616 265.5,592.5 Q243,569 206,569 Q169,569 146.5,592.5 Q124,616 124,651 M327,651 Q327,686 349.5,709.5 Q372,733 409,733 Q446,733 468.5,709.5 Q491,686 491,651 Q491,616 468.5,592.5 Q446,569 409,569 Q372,569 349.5,592.5 Q327,616 327,651"/> 
            <glyph glyph-name="ı" unicode="&#x131;" horiz-adv-x="277" d=" M277,504 L180,0 L14,0 L111,504"/> 
            <glyph glyph-name="Ł" unicode="&#x141;" horiz-adv-x="526" d=" M346,700 L300,464 L377,503 L421,387 L269,310 L239,152 L526,152 L496,0 L29,0 L71,211 L24,187 L-18,303 L101,364 L166,700"/> 
            <glyph glyph-name="ł" unicode="&#x142;" horiz-adv-x="405" d=" M121,396 L181,708 L347,708 L304,487 L360,516 L405,399 L275,334 L210,0 L44,0 L91,242 L38,214 L-7,331"/> 
            <glyph glyph-name="Œ" unicode="&#x152;" horiz-adv-x="1097" d=" M1097,700 L1067,548 L770,548 L751,449 L984,449 L954,297 L721,297 L693,152 L1000,152 L970,0 L483,0 L490,35 Q458,12 421.5,2 Q385,-8 340,-8 Q276,-8 219.5,12.5 Q163,33 121,71 Q79,109 54.5,163.5 Q30,218 30,286 Q30,370 57.5,446.5 Q85,523 136.5,581 Q188,639 262,673.5 Q336,708 429,708 Q482,708 526.5,694 Q571,680 609,648 L620,700 M422,556 Q371,556 331.5,533 Q292,510 265,474 Q238,438 224,393 Q210,348 210,304 Q210,263 221.5,233 Q233,203 252.5,183.5 Q272,164 297.5,154 Q323,144 352,144 Q399,144 436.5,167 Q474,190 500.5,226 Q527,262 541,307.5 Q555,353 555,398 Q555,476 517,516 Q479,556 422,556"/> 
            <glyph glyph-name="œ" unicode="&#x153;" horiz-adv-x="912" d=" M553,202 Q560,164 584.5,144.5 Q609,125 641,125 Q675,125 701.5,138 Q728,151 754,185 L874,124 Q829,57 772,24.5 Q715,-8 630,-8 Q575,-8 532,9.5 Q489,27 459,57 Q421,26 372,9 Q323,-8 264,-8 Q211,-8 166.5,8.5 Q122,25 90.5,54 Q59,83 41.5,124 Q24,165 24,213 Q24,272 44,326 Q64,380 102.5,421.5 Q141,463 195.5,487.5 Q250,512 319,512 Q377,512 423.5,494.5 Q470,477 502,445 Q540,476 589,494 Q638,512 701,512 Q760,512 800.5,494.5 Q841,477 865.5,448.5 Q890,420 901,384.5 Q912,349 912,313 Q912,288 906,257 L896,202 M310,372 Q283,372 260.5,359.5 Q238,347 222.5,327 Q207,307 198.5,281.5 Q190,256 190,229 Q190,180 216.5,156 Q243,132 281,132 Q308,132 329.5,143 Q351,154 366,172.5 Q381,191 389.5,217 Q398,243 398,273 Q398,319 373.5,345.5 Q349,372 310,372 M686,393 Q645,393 616,370.5 Q587,348 570,316 L763,316 Q763,328 759,342 Q755,356 745.5,367 Q736,378 721.5,385.5 Q707,393 686,393"/> 
            <glyph glyph-name="Š" unicode="&#x160;" horiz-adv-x="578" d=" M395,496 Q370,560 324,560 Q301,560 286.5,546.5 Q272,533 272,512 Q272,480 301,456.5 Q330,433 378,410 Q405,397 428.5,380 Q452,363 469,341 Q486,319 496,291 Q506,263 506,227 Q506,176 487.5,133 Q469,90 434.5,58.5 Q400,27 351,9.5 Q302,-8 240,-8 Q183,-8 140.5,9.5 Q98,27 69,55.5 Q40,84 23.5,120 Q7,156 2,193 L149,275 Q150,249 157,225 Q164,201 177,183 Q190,165 208.5,154.5 Q227,144 252,144 Q281,144 302.5,161.5 Q324,179 324,212 Q324,229 319,242.5 Q314,256 301.5,268 Q289,280 268,292.5 Q247,305 216,321 Q193,333 172,349 Q151,365 134.5,386.5 Q118,408 108.5,436 Q99,464 99,499 Q99,545 117,583.5 Q135,622 167,649.5 Q199,677 242,692.5 Q285,708 336,708 Q418,708 466,670.5 Q514,633 537,577 M366,762 L322,762 L183,954 L323,954 L365,898 L426,954 L578,954"/> 
            <glyph glyph-name="š" unicode="&#x161;" horiz-adv-x="497" d=" M507,512 Q566,512 610,488.5 Q654,465 675,428 L570,346 Q556,366 538,378 Q520,390 500,390 Q483,390 472.5,381.5 Q462,373 462,359 Q462,345 474,335 Q486,325 513,315 Q543,304 568,290.5 Q593,277 610.5,259.5 Q628,242 638,219.5 Q648,197 648,168 Q648,120 630,86.5 Q612,53 583.5,32 Q555,11 520,1.5 Q485,-8 450,-8 Q398,-8 361.5,4.5 Q325,17 300.5,38 Q276,59 261.5,85.5 Q247,112 240,139 L374,194 Q380,159 402.5,137.5 Q425,116 451,116 Q477,116 490,126.5 Q503,137 503,152 Q503,165 494.5,173.5 Q486,182 472,189 Q458,196 441,202.5 Q424,209 406,219 Q395,225 380,235.5 Q365,246 351.5,262.5 Q338,279 328.5,301.5 Q319,324 319,354 Q319,385 330,413.5 Q341,442 364.5,464 Q388,486 423.5,499 Q459,512 507,512 M285,566 L241,566 L102,758 L242,758 L284,702 L345,758 L497,758"/> 
            <glyph glyph-name="Ÿ" unicode="&#x178;" horiz-adv-x="630" d=" M224,700 L285,468 L438,700 L630,700 L348,298 L290,0 L110,0 L168,298 L44,700 M160,847 Q160,882 182.5,905.5 Q205,929 242,929 Q279,929 301.5,905.5 Q324,882 324,847 Q324,812 301.5,788.5 Q279,765 242,765 Q205,765 182.5,788.5 Q160,812 160,847 M363,847 Q363,882 385.5,905.5 Q408,929 445,929 Q482,929 504.5,905.5 Q527,882 527,847 Q527,812 504.5,788.5 Q482,765 445,765 Q408,765 385.5,788.5 Q363,812 363,847"/> 
            <glyph glyph-name="Ž" unicode="&#x17D;" horiz-adv-x="601" d=" M115,700 L601,700 L583,610 L216,150 L510,150 L480,0 L-36,0 L-18,90 L351,550 L85,550 M385,762 L341,762 L202,954 L342,954 L384,898 L445,954 L597,954"/> 
            <glyph glyph-name="ž" unicode="&#x17E;" horiz-adv-x="515" d=" M83,504 L480,504 L465,426 L222,136 L423,136 L397,0 L-16,0 L-2,78 L242,368 L57,368 M303,566 L259,566 L120,758 L260,758 L302,702 L363,758 L515,758"/> 
            <glyph glyph-name="ƒ" unicode="&#x192;" horiz-adv-x="511" d=" M101,504 L176,504 L181,530 Q199,623 258.5,665.5 Q318,708 409,708 Q438,708 463,702.5 Q488,697 511,684 L457,560 Q441,574 428.5,577 Q416,580 401,580 Q382,580 366,567.5 Q350,555 343,520 L340,504 L428,504 L403,378 L316,378 L234,-34 Q216,-126 155,-169 Q94,-212 6,-212 Q-26,-212 -51,-206 Q-76,-200 -90,-191 L-37,-54 Q-23,-63 -10.5,-67.5 Q2,-72 18,-72 Q44,-72 56,-55 Q68,-38 75,-5 L150,378 L76,378"/> 
            <glyph glyph-name="ˆ" unicode="&#x2C6;" horiz-adv-x="445" d=" M262,758 L306,758 L445,566 L305,566 L263,622 L202,566 L50,566"/> 
            <glyph glyph-name="ˇ" unicode="&#x2C7;" horiz-adv-x="458" d=" M246,566 L202,566 L63,758 L203,758 L245,702 L306,758 L458,758"/> 
            <glyph glyph-name="˘" unicode="&#x2D8;" horiz-adv-x="312" d=" M155,700 Q154,697 154,694 Q154,672 177,672 Q189,672 198,680 Q207,688 209,700 L312,700 Q307,676 296,654 Q285,632 266.5,615.5 Q248,599 223,589.5 Q198,580 166,580 Q109,580 79.5,608.5 Q50,637 50,679 Q50,690 52,700"/> 
            <glyph glyph-name="˙" unicode="&#x2D9;" horiz-adv-x="293" d=" M97,661 Q97,682 104.5,699.5 Q112,717 125,730.5 Q138,744 156,751.5 Q174,759 195,759 Q216,759 234,751.5 Q252,744 265,730.5 Q278,717 285.5,699.5 Q293,682 293,661 Q293,640 285.5,622.5 Q278,605 265,591.5 Q252,578 234,570.5 Q216,563 195,563 Q174,563 156,570.5 Q138,578 125,591.5 Q112,605 104.5,622.5 Q97,640 97,661"/> 
            <glyph glyph-name="˚" unicode="&#x2DA;" horiz-adv-x="259" d=" M43,655 Q43,701 73,731.5 Q103,762 151,762 Q199,762 229,731.5 Q259,701 259,655 Q259,609 229,578.5 Q199,548 151,548 Q103,548 73,578.5 Q43,609 43,655 M121,655 Q121,641 129,632 Q137,623 151,623 Q165,623 173,632 Q181,641 181,655 Q181,669 173,678 Q165,687 151,687 Q137,687 129,678 Q121,669 121,655"/> 
            <glyph glyph-name="˛" unicode="&#x2DB;" horiz-adv-x="182" d=" M128,0 Q120,-6 109,-14 Q98,-22 87.5,-31.5 Q77,-41 69.5,-51 Q62,-61 62,-71 Q62,-89 80,-89 Q91,-89 103,-79.5 Q115,-70 128,-55 L182,-108 Q152,-154 118.5,-173 Q85,-192 47,-192 Q-3,-192 -25.5,-168 Q-48,-144 -48,-111 Q-48,-71 -24,-45 Q0,-19 33,0"/> 
            <glyph glyph-name="˜" unicode="&#x2DC;" horiz-adv-x="465" d=" M49,624 Q75,665 113.5,692 Q152,719 200,719 Q225,719 242,713 Q259,707 272.5,700.5 Q286,694 298.5,688 Q311,682 328,682 Q346,682 360.5,691.5 Q375,701 392,723 L465,658 Q439,617 405.5,590 Q372,563 323,563 Q298,563 280,569 Q262,575 247.5,581.5 Q233,588 219.5,594 Q206,600 190,600 Q170,600 153.5,589.5 Q137,579 122,559"/> 
            <glyph glyph-name="˝" unicode="&#x2DD;" horiz-adv-x="547" d=" M124,708 L324,708 L154,548 L35,548 M347,708 L547,708 L377,548 L258,548"/> 
            <glyph glyph-name="Ω" unicode="&#x3A9;" horiz-adv-x="655" d=" M655,0 L376,0 L376,80 Q392,111 406.5,147.5 Q421,184 432,227 Q443,270 450,320 Q457,370 457,428 Q457,485 431,519.5 Q405,554 354,554 Q303,554 277,519.5 Q251,485 251,428 Q251,312 275.5,227 Q300,142 332,80 L332,0 L53,0 L53,128 L185,128 Q155,170 131,219 Q111,261 94,317.5 Q77,374 77,440 Q77,498 96,547 Q115,596 151,632 Q187,668 238.5,688 Q290,708 354,708 Q418,708 469.5,688 Q521,668 557,632 Q593,596 612,547 Q631,498 631,440 Q631,374 614,317.5 Q597,261 577,219 Q553,170 523,128 L655,128"/> 
            <glyph glyph-name="π" unicode="&#x3C0;" horiz-adv-x="592" d=" M29,504 L592,504 L592,364 L507,364 L507,0 L349,0 L349,364 L272,364 L272,0 L114,0 L114,364 L29,364"/> 
            <glyph glyph-name="–" unicode="&#x2013;" horiz-adv-x="534" d=" M59,387 L534,387 L507,247 L32,247"/> 
            <glyph glyph-name="—" unicode="&#x2014;" horiz-adv-x="720" d=" M59,387 L720,387 L693,247 L32,247"/> 
            <glyph glyph-name="‘" unicode="&#x2018;" horiz-adv-x="291" d=" M291,456 L180,456 L70,708 L261,708"/> 
            <glyph glyph-name="’" unicode="&#x2019;" horiz-adv-x="361" d=" M168,708 L361,708 L158,456 L44,456"/> 
            <glyph glyph-name="‚" unicode="&#x201A;" horiz-adv-x="301" d=" M108,238 L301,238 L98,-14 L-16,-14"/> 
            <glyph glyph-name="“" unicode="&#x201C;" horiz-adv-x="514" d=" M514,456 L403,456 L293,708 L484,708 M291,456 L180,456 L70,708 L261,708"/> 
            <glyph glyph-name="”" unicode="&#x201D;" horiz-adv-x="582" d=" M389,708 L582,708 L379,456 L265,456 M168,708 L361,708 L158,456 L44,456"/> 
            <glyph glyph-name="„" unicode="&#x201E;" horiz-adv-x="522" d=" M329,238 L522,238 L319,-14 L205,-14 M108,238 L301,238 L98,-14 L-16,-14"/> 
            <glyph glyph-name="†" unicode="&#x2020;" horiz-adv-x="526" d=" M74,504 L218,504 L266,750 L430,750 L382,504 L526,504 L500,368 L356,368 L275,-50 L111,-50 L192,368 L48,368"/> 
            <glyph glyph-name="‡" unicode="&#x2021;" horiz-adv-x="530" d=" M78,504 L222,504 L270,750 L434,750 L386,504 L530,504 L504,368 L360,368 L353,332 L497,332 L471,196 L327,196 L279,-50 L115,-50 L163,196 L19,196 L45,332 L189,332 L196,368 L52,368"/> 
            <glyph glyph-name="•" unicode="&#x2022;" horiz-adv-x="310" d=" M42,330 Q42,358 52.5,382.5 Q63,407 81,425 Q99,443 123.5,453.5 Q148,464 176,464 Q204,464 228.5,453.5 Q253,443 271,425 Q289,407 299.5,382.5 Q310,358 310,330 Q310,302 299.5,277.5 Q289,253 271,235 Q253,217 228.5,206.5 Q204,196 176,196 Q148,196 123.5,206.5 Q99,217 81,235 Q63,253 52.5,277.5 Q42,302 42,330"/> 
            <glyph glyph-name="…" unicode="&#x2026;" horiz-adv-x="848" d=" M662,85 Q662,125 688.5,151.5 Q715,178 755,178 Q795,178 821.5,151.5 Q848,125 848,85 Q848,45 821.5,18.5 Q795,-8 755,-8 Q715,-8 688.5,18.5 Q662,45 662,85 M340,85 Q340,125 366.5,151.5 Q393,178 433,178 Q473,178 499.5,151.5 Q526,125 526,85 Q526,45 499.5,18.5 Q473,-8 433,-8 Q393,-8 366.5,18.5 Q340,45 340,85 M18,85 Q18,125 44.5,151.5 Q71,178 111,178 Q151,178 177.5,151.5 Q204,125 204,85 Q204,45 177.5,18.5 Q151,-8 111,-8 Q71,-8 44.5,18.5 Q18,45 18,85"/> 
            <glyph glyph-name="‰" unicode="&#x2030;" horiz-adv-x="1215" d=" M873,126 Q873,162 886.5,195.5 Q900,229 925.5,255 Q951,281 987,296.5 Q1023,312 1069,312 Q1135,312 1175,274.5 Q1215,237 1215,174 Q1215,138 1201,105.5 Q1187,73 1161.5,47.5 Q1136,22 1100.5,7 Q1065,-8 1022,-8 Q953,-8 913,29 Q873,66 873,126 M1054,206 Q1028,206 1009.5,187 Q991,168 991,140 Q991,121 1003.5,109.5 Q1016,98 1036,98 Q1062,98 1079.5,116.5 Q1097,135 1097,161 Q1097,182 1085.5,194 Q1074,206 1054,206 M59,522 Q59,558 72.5,591.5 Q86,625 111.5,651 Q137,677 173,692.5 Q209,708 255,708 Q321,708 361,670.5 Q401,633 401,570 Q401,534 387,501.5 Q373,469 347.5,443.5 Q322,418 286.5,403 Q251,388 208,388 Q139,388 99,425 Q59,462 59,522 M240,602 Q214,602 195.5,583 Q177,564 177,536 Q177,517 189.5,505.5 Q202,494 222,494 Q248,494 265.5,512.5 Q283,531 283,557 Q283,578 271.5,590 Q260,602 240,602 M466,126 Q466,162 479.5,195.5 Q493,229 518.5,255 Q544,281 580,296.5 Q616,312 662,312 Q728,312 768,274.5 Q808,237 808,174 Q808,138 794,105.5 Q780,73 754.5,47.5 Q729,22 693.5,7 Q658,-8 615,-8 Q546,-8 506,29 Q466,66 466,126 M647,206 Q621,206 602.5,187 Q584,168 584,140 Q584,121 596.5,109.5 Q609,98 629,98 Q655,98 672.5,116.5 Q690,135 690,161 Q690,182 678.5,194 Q667,206 647,206 M818,675 L140,-44 L66,26 L743,745"/> 
            <glyph glyph-name="‹" unicode="&#x2039;" horiz-adv-x="409" d=" M43,361 L409,586 L375,417 L196,308 L333,196 L303,38 L24,267"/> 
            <glyph glyph-name="›" unicode="&#x203A;" horiz-adv-x="388" d=" M369,263 L3,38 L37,207 L216,316 L79,428 L109,586 L388,357"/> 
            <glyph glyph-name="⁄" unicode="&#x2044;" horiz-adv-x="714" d=" M714,675 L36,-44 L-38,26 L639,745"/> 
            <glyph glyph-name="€" unicode="&#x20AC;" horiz-adv-x="667" d=" M102,492 L143,492 Q169,552 204,593 Q239,634 280,659.5 Q321,685 366,696.5 Q411,708 458,708 Q542,708 591.5,676 Q641,644 667,587 L525,512 Q514,538 493.5,555 Q473,572 438,572 Q421,572 403.5,569 Q386,566 368.5,557.5 Q351,549 335,533 Q319,517 304,492 L504,492 L422,368 L262,368 L255,332 L473,332 L391,208 L249,208 Q260,167 290,151.5 Q320,136 353,136 Q388,136 417.5,153 Q447,170 470,202 L579,119 Q533,55 473,23.5 Q413,-8 334,-8 Q291,-8 251.5,3.5 Q212,15 179.5,40.5 Q147,66 124.5,107 Q102,148 93,208 L-10,208 L71,332 L99,332 L106,368 L20,368"/> 
            <glyph glyph-name="™" unicode="&#x2122;" horiz-adv-x="845" d=" M78,700 L395,700 L376,600 L272,600 L214,300 L105,300 L163,600 L59,600 M441,700 L553,700 L602,488 L731,700 L845,700 L768,300 L659,300 L692,472 L612,337 L540,337 L506,474 L473,300 L364,300"/> 
            <glyph glyph-name="Ω" unicode="&#x2126;" horiz-adv-x="655" d=" M655,0 L376,0 L376,80 Q392,111 406.5,147.5 Q421,184 432,227 Q443,270 450,320 Q457,370 457,428 Q457,485 431,519.5 Q405,554 354,554 Q303,554 277,519.5 Q251,485 251,428 Q251,312 275.5,227 Q300,142 332,80 L332,0 L53,0 L53,128 L185,128 Q155,170 131,219 Q111,261 94,317.5 Q77,374 77,440 Q77,498 96,547 Q115,596 151,632 Q187,668 238.5,688 Q290,708 354,708 Q418,708 469.5,688 Q521,668 557,632 Q593,596 612,547 Q631,498 631,440 Q631,374 614,317.5 Q597,261 577,219 Q553,170 523,128 L655,128"/> 
            <glyph glyph-name="∂" unicode="&#x2202;" horiz-adv-x="571" d=" M84,561 Q109,626 168.5,667 Q228,708 308,708 Q381,708 431,686 Q481,664 512,621 Q543,578 557,514.5 Q571,451 571,368 Q571,289 554,220.5 Q537,152 500,101 Q463,50 405.5,21 Q348,-8 266,-8 Q211,-8 166.5,8 Q122,24 91,52.5 Q60,81 43.5,121.5 Q27,162 27,211 Q27,277 51,332 Q75,387 117,427 Q159,467 215,489.5 Q271,512 335,512 Q364,512 382,508.5 Q400,505 415,498 Q408,534 385,559 Q362,584 324,584 Q290,584 262.5,570 Q235,556 219,521 M322,378 Q292,378 268.5,364.5 Q245,351 228,329 Q211,307 202,279 Q193,251 193,223 Q193,204 197.5,186.5 Q202,169 212.5,155.5 Q223,142 238.5,134 Q254,126 277,126 Q307,126 330.5,139 Q354,152 370.5,173.5 Q387,195 396,223 Q405,251 405,281 Q405,329 383.5,353.5 Q362,378 322,378"/> 
            <glyph glyph-name="∆" unicode="&#x2206;" horiz-adv-x="609" d=" M-9,52 L233,700 L367,700 L609,52 L609,0 L-9,0 M179,134 L421,134 L300,492"/> 
            <glyph glyph-name="∏" unicode="&#x220F;" horiz-adv-x="512" d=" M56,700 L512,700 L512,0 L344,0 L344,558 L224,558 L224,0 L56,0"/> 
            <glyph glyph-name="∑" unicode="&#x2211;" horiz-adv-x="503" d=" M40,0 L40,69 L216,350 L40,631 L40,700 L503,700 L503,566 L259,566 L376,374 L376,326 L258,134 L503,134 L503,0"/> 
            <glyph glyph-name="−" unicode="&#x2212;" horiz-adv-x="555" d=" M555,387 L528,247 L32,247 L59,387"/> 
            <glyph glyph-name="√" unicode="&#x221A;" horiz-adv-x="599" d=" M28,402 L246,402 L303,224 L437,708 L599,708 L379,0 L234,0 L149,251 L28,251"/> 
            <glyph glyph-name="∞" unicode="&#x221E;" horiz-adv-x="834" d=" M619,294 Q651,294 670,311 Q689,328 689,359 Q689,390 670,407 Q651,424 619,424 Q593,424 567,407.5 Q541,391 520,359 Q541,327 567,310.5 Q593,294 619,294 M635,162 Q610,162 582.5,167 Q555,172 529,183 Q503,194 479,212.5 Q455,231 437,257 Q419,231 395,212.5 Q371,194 345,183 Q319,172 291.5,167 Q264,162 239,162 Q192,162 155,177 Q118,192 92.5,218 Q67,244 53.5,280.5 Q40,317 40,359 Q40,401 53.5,437.5 Q67,474 92.5,500 Q118,526 155,541 Q192,556 239,556 Q264,556 291.5,551 Q319,546 345,534.5 Q371,523 395,505 Q419,487 437,461 Q455,487 479,505 Q503,523 529,534.5 Q555,546 582.5,551 Q610,556 635,556 Q682,556 719,541 Q756,526 781.5,500 Q807,474 820.5,437.5 Q834,401 834,359 Q834,317 820.5,280.5 Q807,244 781.5,218 Q756,192 719,177 Q682,162 635,162 M255,294 Q281,294 307,310.5 Q333,327 354,359 Q333,391 307,407.5 Q281,424 255,424 Q223,424 204,407 Q185,390 185,359 Q185,328 204,311 Q223,294 255,294"/> 
            <glyph glyph-name="∫" unicode="&#x222B;" horiz-adv-x="511" d=" M181,530 Q199,623 258.5,665.5 Q318,708 409,708 Q438,708 463,702.5 Q488,697 511,684 L457,560 Q441,574 428.5,577 Q416,580 401,580 Q382,580 366,567.5 Q350,555 343,520 L234,-34 Q216,-126 155,-169 Q94,-212 6,-212 Q-26,-212 -51,-206 Q-76,-200 -90,-191 L-37,-54 Q-23,-63 -10.5,-67.5 Q2,-72 18,-72 Q44,-72 56,-55 Q68,-38 75,-5"/> 
            <glyph glyph-name="≈" unicode="&#x2248;" horiz-adv-x="559" d=" M272,473 Q299,524 349.5,557 Q400,590 459,590 Q491,590 514.5,581 Q538,572 559,561 Q580,550 600.5,541 Q621,532 647,532 Q676,532 699.5,547.5 Q723,563 744,589 L815,497 Q788,446 737.5,413 Q687,380 628,380 Q596,380 572.5,389 Q549,398 528,409 Q507,420 486.5,429 Q466,438 440,438 Q411,438 387.5,422.5 Q364,407 343,381 M269,424 Q296,475 346.5,508 Q397,541 456,541 Q488,541 511.5,532 Q535,523 556,512 Q577,501 597.5,492 Q618,483 644,483 Q673,483 696.5,498.5 Q720,514 741,540 L812,448 Q785,397 734.5,364 Q684,331 625,331 Q593,331 569.5,340 Q546,349 525,360 Q504,371 483.5,380 Q463,389 437,389 Q408,389 384.5,373.5 Q361,358 340,332"/> 
            <glyph glyph-name="≠" unicode="&#x2260;" horiz-adv-x="539" d=" M127,142 L74,142 L74,282 L210,282 L242,338 L74,338 L74,478 L324,478 L388,589 L509,520 L486,478 L539,478 L539,338 L403,338 L371,282 L539,282 L539,142 L289,142 L225,31 L104,100"/> 
            <glyph glyph-name="≤" unicode="&#x2264;" horiz-adv-x="528" d=" M77,496 L489,700 L489,532 L274,430 L489,328 L489,160 L77,364 M528,140 L528,0 L32,0 L32,140"/> 
            <glyph glyph-name="≥" unicode="&#x2265;" horiz-adv-x="551" d=" M513,364 L101,160 L101,328 L316,430 L101,532 L101,700 L513,496 M551,140 L551,0 L55,0 L55,140"/> 
            <glyph glyph-name="◊" unicode="&#x25CA;" horiz-adv-x="532" d=" M24,350 L206,700 L350,700 L532,350 L350,0 L206,0 M380,350 L278,562 L176,350 L278,138"/> 
            <glyph glyph-name="" unicode="&#xF8FF;" horiz-adv-x="664" d=" M664,22 Q664,14 658,7 Q652,0 642,0 Q639,0 635,1 L368,78 L101,1 Q97,0 94,0 Q84,0 78,7 Q72,14 72,22 L72,617 Q72,634 88,639 L358,717 Q364,719 368,719 Q372,719 378,717 L648,639 Q664,634 664,617 M346,669 L116,602 Q119,555 138,514 Q157,473 187.5,441.5 Q218,410 258.5,390 Q299,370 346,366 M390,366 Q436,370 477,390 Q518,410 548.5,441.5 Q579,473 598,514 Q617,555 620,602 L390,669 M115,51 L346,118 L346,322 Q272,328 211.5,365.5 Q151,403 115,463 M621,463 Q584,403 524,365.5 Q464,328 390,322 L390,118 L621,51"/> 
            <glyph glyph-name="ﬁ" unicode="&#xFB01;" horiz-adv-x="564" d=" M60,504 L113,504 L114,513 Q133,610 207.5,659 Q282,708 394,708 Q425,708 449,705.5 Q473,703 493,698.5 Q513,694 530,687.5 Q547,681 564,673 L494,542 Q474,556 443,565 Q412,574 383,574 Q340,574 312,555.5 Q284,537 279,504 L562,504 L464,0 L298,0 L371,378 L254,378 L181,0 L15,0 L88,378 L35,378"/> 
            <glyph glyph-name="ﬂ" unicode="&#xFB02;" horiz-adv-x="652" d=" M60,504 L113,504 L114,512 Q125,602 183.5,655 Q242,708 342,708 L652,708 L515,0 L349,0 L461,580 L348,580 Q316,580 302,565 Q288,550 283,524 L279,504 L376,504 L351,378 L254,378 L181,0 L15,0 L88,378 L35,378"/> 
            <glyph glyph-name="" unicode="&#xD;" horiz-adv-x="680" d=" M166,301 L199,399 L84,399 L98,517 L237,517 L296,700 L416,700 L357,517 L449,517 L509,700 L629,700 L569,517 L680,517 L666,399 L531,399 L498,301 L613,301 L599,183 L460,183 L401,0 L281,0 L340,183 L248,183 L188,0 L68,0 L128,183 L17,183 L31,301 M286,301 L378,301 L411,399 L319,399"/> 
            <glyph glyph-name="#" unicode="&#x23;" horiz-adv-x="818" d=" M59,522 Q59,558 72.5,591.5 Q86,625 111.5,651 Q137,677 173,692.5 Q209,708 255,708 Q321,708 361,670.5 Q401,633 401,570 Q401,534 387,501.5 Q373,469 347.5,443.5 Q322,418 286.5,403 Q251,388 208,388 Q139,388 99,425 Q59,462 59,522 M240,602 Q214,602 195.5,583 Q177,564 177,536 Q177,517 189.5,505.5 Q202,494 222,494 Q248,494 265.5,512.5 Q283,531 283,557 Q283,578 271.5,590 Q260,602 240,602 M466,126 Q466,162 479.5,195.5 Q493,229 518.5,255 Q544,281 580,296.5 Q616,312 662,312 Q728,312 768,274.5 Q808,237 808,174 Q808,138 794,105.5 Q780,73 754.5,47.5 Q729,22 693.5,7 Q658,-8 615,-8 Q546,-8 506,29 Q466,66 466,126 M647,206 Q621,206 602.5,187 Q584,168 584,140 Q584,121 596.5,109.5 Q609,98 629,98 Q655,98 672.5,116.5 Q690,135 690,161 Q690,182 678.5,194 Q667,206 647,206 M818,675 L140,-44 L66,26 L743,745"/> 
            <glyph glyph-name="$" unicode="&#x24;" horiz-adv-x="604" d=" M590,283 Q576,248 559,214 Q542,180 519,148 L604,0 L431,0 L409,39 Q374,17 335,4.5 Q296,-8 250,-8 Q197,-8 154.5,7 Q112,22 82,48 Q52,74 35.5,109.5 Q19,145 19,187 Q19,347 197,427 Q188,448 180.5,473 Q173,498 173,528 Q173,564 187,596.5 Q201,629 226.5,654 Q252,679 288.5,693.5 Q325,708 370,708 Q444,708 486,670 Q528,632 528,565 Q528,499 488.5,456 Q449,413 386,381 L447,273 Q467,305 483,338 Q499,371 511,401 M265,128 Q286,128 306.5,135 Q327,142 346,155 L254,320 Q209,298 192,270 Q175,242 175,213 Q175,172 199.5,150 Q224,128 265,128 M315,534 Q315,508 328,484 Q354,496 370,512 Q386,528 386,552 Q386,566 378.5,575 Q371,584 356,584 Q339,584 327,570.5 Q315,557 315,534"/> 
            <glyph glyph-name="%" unicode="&#x25;" horiz-adv-x="283" d=" M114,708 L283,708 L197,449 L98,449"/> 
            <glyph glyph-name="&amp;" unicode="&#x26;" horiz-adv-x="374" d=" M374,750 Q284,636 233,497.5 Q182,359 182,214 Q182,132 191,70.5 Q200,9 219,-50 L83,-50 Q66,-3 52,67.5 Q38,138 38,210 Q38,378 92.5,514 Q147,650 238,750"/> 
            </font>
</defs>
</svg>
