<?xml version="1.0" standalone="no"?>
<!DOCTYPE svg PUBLIC "-//W3C//DTD SVG 1.1//EN" "http://www.w3.org/Graphics/SVG/1.1/DTD/svg11.dtd" >
<svg xmlns="http://www.w3.org/2000/svg">
    <defs>
        <font id="Apercu-Black">
            <font-face font-family="Apercu"
                       units-per-em="1000"
                       ascent="958"
                       descent="-279"
                       bbox="-82 -279 1188 958"
                    />
            <missing-glyph horiz-adv-x="0" />
            
            <glyph glyph-name="#" unicode="&#x23;" horiz-adv-x="681" d=" M194,301 L214,399 L99,399 L99,517 L238,517 L275,700 L395,700 L358,517 L450,517 L488,700 L608,700 L570,517 L681,517 L681,399 L546,399 L526,301 L641,301 L641,183 L502,183 L465,0 L345,0 L382,183 L290,183 L252,0 L132,0 L170,183 L59,183 L59,301 M314,301 L406,301 L426,399 L334,399"/> 
            <glyph glyph-name="$" unicode="&#x24;" horiz-adv-x="524" d=" M361,490 Q344,527 326,543.5 Q308,560 284,560 Q264,560 252,549 Q240,538 240,518 Q240,493 261,475.5 Q282,458 313.5,442.5 Q345,427 382,409.5 Q419,392 450.5,367 Q482,342 503,306 Q524,270 524,217 Q524,128 479,72 Q434,16 354,-1 L354,-90 L216,-90 L216,0 Q140,18 93,70 Q46,122 32,188 L170,275 Q177,249 187,225 Q197,201 211.5,183 Q226,165 245.5,154.5 Q265,144 289,144 Q315,144 332,156.5 Q349,169 349,199 Q349,228 328.5,247.5 Q308,267 277,283.5 Q246,300 210.5,317.5 Q175,335 144,360 Q113,385 92.5,422 Q72,459 72,515 Q72,581 110.5,631.5 Q149,682 216,700 L216,790 L354,790 L354,699 Q401,687 434.5,657.5 Q468,628 493,577"/> 
            <glyph glyph-name="%" unicode="&#x25;" horiz-adv-x="789" d=" M47,548 Q47,582 59,611 Q71,640 93,661.5 Q115,683 146,695.5 Q177,708 215,708 Q253,708 284,695.5 Q315,683 337,661.5 Q359,640 371,611 Q383,582 383,548 Q383,514 371,485 Q359,456 337,434.5 Q315,413 284,400.5 Q253,388 215,388 Q177,388 146,400.5 Q115,413 93,434.5 Q71,456 59,485 Q47,514 47,548 M163,548 Q163,524 177.5,509 Q192,494 215,494 Q238,494 252.5,509 Q267,524 267,548 Q267,572 252.5,587 Q238,602 215,602 Q192,602 177.5,587 Q163,572 163,548 M453,152 Q453,186 465,215 Q477,244 499,265.5 Q521,287 552,299.5 Q583,312 621,312 Q659,312 690,299.5 Q721,287 743,265.5 Q765,244 777,215 Q789,186 789,152 Q789,118 777,89 Q765,60 743,38.5 Q721,17 690,4.5 Q659,-8 621,-8 Q583,-8 552,4.5 Q521,17 499,38.5 Q477,60 465,89 Q453,118 453,152 M569,152 Q569,128 583.5,113 Q598,98 621,98 Q644,98 658.5,113 Q673,128 673,152 Q673,176 658.5,191 Q644,206 621,206 Q598,206 583.5,191 Q569,176 569,152 M736,675 L198,-44 L110,26 L648,745"/> 
            <glyph glyph-name="&amp;" unicode="&#x26;" horiz-adv-x="659" d=" M594,279 Q586,246 574.5,211 Q563,176 546,147 L659,0 L484,0 L450,45 Q413,20 368.5,6 Q324,-8 273,-8 Q223,-8 180.5,6.5 Q138,21 106,48.5 Q74,76 56,115.5 Q38,155 38,206 Q38,243 48.5,274.5 Q59,306 77,332.5 Q95,359 119,380.5 Q143,402 170,419 Q150,448 137,481.5 Q124,515 124,560 Q124,590 136,617 Q148,644 170.5,664.5 Q193,685 225.5,696.5 Q258,708 299,708 Q339,708 371,696 Q403,684 425,664 Q447,644 458.5,618 Q470,592 470,564 Q470,532 463.5,506.5 Q457,481 443.5,460 Q430,439 410,421 Q390,403 363,385 L457,262 Q471,289 481.5,319.5 Q492,350 502,385 M285,128 Q309,128 330.5,134 Q352,140 370,151 L245,318 Q192,279 192,216 Q192,181 217.5,154.5 Q243,128 285,128 M264,550 Q264,532 270.5,515.5 Q277,499 287,485 Q305,496 319,512.5 Q333,529 333,552 Q333,566 323.5,575 Q314,584 299,584 Q284,584 274,575 Q264,566 264,550"/> 
            <glyph glyph-name="'" unicode="&#x27;" horiz-adv-x="241" d=" M72,708 L241,708 L206,449 L107,449"/> 
            <glyph glyph-name="(" unicode="&#x28;" horiz-adv-x="299" d=" M299,750 Q277,708 259.5,664.5 Q242,621 230,573 Q218,525 211.5,470 Q205,415 205,350 Q205,281 211.5,226 Q218,171 230,123.5 Q242,76 259.5,34 Q277,-8 299,-50 L163,-50 Q144,-16 125,23 Q106,62 91,109.5 Q76,157 67,216 Q58,275 58,350 Q58,425 67,484 Q76,543 91,590.5 Q106,638 125,676.5 Q144,715 163,750"/> 
            <glyph glyph-name=")" unicode="&#x29;" horiz-adv-x="263" d=" M158,750 Q177,715 196,676.5 Q215,638 230,590.5 Q245,543 254,484 Q263,425 263,350 Q263,275 254,216 Q245,157 230,109.5 Q215,62 196,23 Q177,-16 158,-50 L22,-50 Q44,-8 61.5,34 Q79,76 91,123.5 Q103,171 109.5,226 Q116,281 116,350 Q116,415 109.5,470 Q103,525 91,573 Q79,621 61.5,664.5 Q44,708 22,750"/> 
            <glyph glyph-name="*" unicode="&#x2A;" horiz-adv-x="445" d=" M189,594 L189,708 L301,708 L301,594 L410,629 L445,522 L337,487 L404,394 L313,328 L245,422 L177,328 L86,394 L153,487 L45,522 L80,629"/> 
            <glyph glyph-name="+" unicode="&#x2B;" horiz-adv-x="545" d=" M367,565 L367,387 L545,387 L545,247 L367,247 L367,69 L227,69 L227,247 L49,247 L49,387 L227,387 L227,565"/> 
            <glyph glyph-name="," unicode="&#x2C;" horiz-adv-x="316" d=" M123,146 L316,146 L157,-156 L52,-156"/> 
            <glyph glyph-name="-" unicode="&#x2D;" horiz-adv-x="452" d=" M59,387 L452,387 L452,247 L59,247"/> 
            <glyph glyph-name="." unicode="&#x2E;" horiz-adv-x="258" d=" M72,85 Q72,125 98.5,151.5 Q125,178 165,178 Q205,178 231.5,151.5 Q258,125 258,85 Q258,45 231.5,18.5 Q205,-8 165,-8 Q125,-8 98.5,18.5 Q72,45 72,85"/> 
            <glyph glyph-name="/" unicode="&#x2F;" horiz-adv-x="600" d=" M600,750 L164,-50 L8,-50 L444,750"/> 
            <glyph glyph-name="0" unicode="&#x30;" horiz-adv-x="586" d=" M316,708 Q381,708 431,683.5 Q481,659 515.5,613 Q550,567 568,500.5 Q586,434 586,350 Q586,266 568,199.5 Q550,133 515.5,87 Q481,41 431,16.5 Q381,-8 316,-8 Q251,-8 201,16.5 Q151,41 116.5,87 Q82,133 64,199.5 Q46,266 46,350 Q46,434 64,500.5 Q82,567 116.5,613 Q151,659 201,683.5 Q251,708 316,708 M316,564 Q260,564 231,508.5 Q202,453 202,350 Q202,247 231,191.5 Q260,136 316,136 Q372,136 401,191.5 Q430,247 430,350 Q430,453 401,508.5 Q372,564 316,564"/> 
            <glyph glyph-name="1" unicode="&#x31;" horiz-adv-x="352" d=" M352,700 L352,0 L190,0 L190,482 L62,406 L62,584 L263,700"/> 
            <glyph glyph-name="2" unicode="&#x32;" horiz-adv-x="531" d=" M58,74 L314,387 Q335,413 348,440 Q361,467 361,496 Q361,526 342.5,547 Q324,568 292,568 Q255,568 236,545 Q217,522 212,484 L65,514 Q70,552 86.5,587 Q103,622 131.5,649 Q160,676 200,692 Q240,708 292,708 Q346,708 387.5,692 Q429,676 457.5,648.5 Q486,621 501,583 Q516,545 516,501 Q516,449 494.5,405 Q473,361 436,315 L297,140 L531,140 L531,0 L58,0"/> 
            <glyph glyph-name="3" unicode="&#x33;" horiz-adv-x="544" d=" M202,223 Q211,185 233,158.5 Q255,132 300,132 Q338,132 363.5,157 Q389,182 389,226 Q389,269 362.5,296.5 Q336,324 295,324 Q281,324 264,320.5 Q247,317 235,310 L169,403 L287,562 L83,562 L83,700 L500,700 L500,634 L350,435 Q393,435 429,422 Q465,409 490.5,382.5 Q516,356 530,317 Q544,278 544,227 Q544,173 525.5,129.5 Q507,86 474,55.5 Q441,25 396.5,8.5 Q352,-8 300,-8 Q243,-8 198.5,8 Q154,24 123,52.5 Q92,81 73.5,119 Q55,157 51,201"/> 
            <glyph glyph-name="4" unicode="&#x34;" horiz-adv-x="584" d=" M352,114 L54,114 L54,200 L346,700 L502,700 L502,252 L584,252 L584,114 L502,114 L502,0 L352,0 M352,252 L352,470 L229,252"/> 
            <glyph glyph-name="5" unicode="&#x35;" horiz-adv-x="540" d=" M212,214 Q215,192 224,177.5 Q233,163 245.5,154 Q258,145 272,141.5 Q286,138 300,138 Q334,138 356.5,161.5 Q379,185 379,232 Q379,277 356.5,303 Q334,329 294,329 Q264,329 237,314.5 Q210,300 196,274 L76,300 L113,700 L499,700 L499,562 L241,562 L225,444 Q242,453 266.5,458.5 Q291,464 322,464 Q377,464 418,447 Q459,430 486,399.5 Q513,369 526.5,326 Q540,283 540,232 Q540,179 522.5,135 Q505,91 472.5,59 Q440,27 395.5,9.5 Q351,-8 297,-8 Q252,-8 212,6.5 Q172,21 141,46.5 Q110,72 89.5,108 Q69,144 65,188"/> 
            <glyph glyph-name="6" unicode="&#x36;" horiz-adv-x="547" d=" M315,448 Q367,448 409.5,431.5 Q452,415 482.5,385 Q513,355 530,313 Q547,271 547,220 Q547,170 529.5,128 Q512,86 480.5,56 Q449,26 404.5,9 Q360,-8 307,-8 Q253,-8 208,9 Q163,26 130.5,56.5 Q98,87 80.5,129 Q63,171 63,220 Q63,252 71,286.5 Q79,321 102,361 L296,708 L467,708 M307,310 Q271,310 245.5,287 Q220,264 220,220 Q220,178 245.5,154 Q271,130 307,130 Q343,130 368.5,154 Q394,178 394,220 Q394,264 368.5,287 Q343,310 307,310"/> 
            <glyph glyph-name="7" unicode="&#x37;" horiz-adv-x="499" d=" M499,628 L245,0 L78,0 L307,562 L45,562 L45,700 L499,700"/> 
            <glyph glyph-name="8" unicode="&#x38;" horiz-adv-x="539" d=" M301,708 Q347,708 385.5,693 Q424,678 452,651.5 Q480,625 495,590.5 Q510,556 510,517 Q510,474 492.5,438 Q475,402 445,377 Q488,353 513.5,311 Q539,269 539,209 Q539,158 519.5,117.5 Q500,77 467.5,49.5 Q435,22 392,7 Q349,-8 301,-8 Q253,-8 210,7 Q167,22 134.5,49.5 Q102,77 82.5,117.5 Q63,158 63,209 Q63,269 88.5,311 Q114,353 157,377 Q127,402 109.5,438 Q92,474 92,517 Q92,556 107,590.5 Q122,625 150,651.5 Q178,678 216,693 Q254,708 301,708 M301,300 Q264,300 238.5,277.5 Q213,255 213,213 Q213,171 238.5,148.5 Q264,126 301,126 Q338,126 363.5,148.5 Q389,171 389,213 Q389,255 363.5,277.5 Q338,300 301,300 M301,584 Q268,584 249,563.5 Q230,543 230,510 Q230,477 249,456.5 Q268,436 301,436 Q334,436 353,456.5 Q372,477 372,510 Q372,543 353,563.5 Q334,584 301,584"/> 
            <glyph glyph-name="9" unicode="&#x39;" horiz-adv-x="548" d=" M296,252 Q244,252 201.5,268.5 Q159,285 128.5,315 Q98,345 81,387 Q64,429 64,480 Q64,530 81.5,572 Q99,614 130.5,644 Q162,674 206.5,691 Q251,708 304,708 Q361,708 406,691 Q451,674 482.5,643.5 Q514,613 531,571 Q548,529 548,480 Q548,448 537,408 Q526,368 497,317 L315,-8 L144,-8 M304,390 Q340,390 365.5,413 Q391,436 391,480 Q391,522 365.5,546 Q340,570 304,570 Q268,570 242.5,546 Q217,522 217,480 Q217,436 242.5,413 Q268,390 304,390"/> 
            <glyph glyph-name=":" unicode="&#x3A;" horiz-adv-x="260" d=" M74,85 Q74,125 100.5,151.5 Q127,178 167,178 Q207,178 233.5,151.5 Q260,125 260,85 Q260,45 233.5,18.5 Q207,-8 167,-8 Q127,-8 100.5,18.5 Q74,45 74,85 M74,419 Q74,459 100.5,485.5 Q127,512 167,512 Q207,512 233.5,485.5 Q260,459 260,419 Q260,379 233.5,352.5 Q207,326 167,326 Q127,326 100.5,352.5 Q74,379 74,419"/> 
            <glyph glyph-name=";" unicode="&#x3B;" horiz-adv-x="275" d=" M82,146 L275,146 L116,-156 L11,-156 M77,419 Q77,459 103.5,485.5 Q130,512 170,512 Q210,512 236.5,485.5 Q263,459 263,419 Q263,379 236.5,352.5 Q210,326 170,326 Q130,326 103.5,352.5 Q77,379 77,419"/> 
            <glyph glyph-name="&lt;" unicode="&#x3C;" horiz-adv-x="453" d=" M41,376 L453,590 L453,422 L228,310 L453,198 L453,30 L41,244"/> 
            <glyph glyph-name="=" unicode="&#x3D;" horiz-adv-x="546" d=" M546,282 L546,142 L81,142 L81,282 M546,478 L546,338 L81,338 L81,478"/> 
            <glyph glyph-name="&gt;" unicode="&#x3E;" horiz-adv-x="458" d=" M458,244 L46,30 L46,198 L271,310 L46,422 L46,590 L458,376"/> 
            <glyph glyph-name="?" unicode="&#x3F;" horiz-adv-x="432" d=" M390,318 Q370,262 334,237.5 Q298,213 240,213 Q209,213 182,222 Q155,231 135.5,248 Q116,265 104.5,288.5 Q93,312 93,341 Q93,392 120,427.5 Q147,463 211,486 Q253,501 270.5,514 Q288,527 288,547 Q288,562 275,574 Q262,586 239,586 Q213,586 198.5,568.5 Q184,551 181,528 L38,552 Q44,583 60,611.5 Q76,640 101.5,661.5 Q127,683 161.5,695.5 Q196,708 238,708 Q329,708 380.5,666 Q432,624 432,556 Q432,520 421,494 Q410,468 390.5,449.5 Q371,431 343,417.5 Q315,404 281,392 Q250,381 238,371 Q226,361 226,347 Q226,337 233,331.5 Q240,326 249,326 Q263,326 271,333.5 Q279,341 285,358 M151,81 Q151,119 176.5,144.5 Q202,170 240,170 Q278,170 303.5,144.5 Q329,119 329,81 Q329,43 303.5,17.5 Q278,-8 240,-8 Q202,-8 176.5,17.5 Q151,43 151,81"/> 
            <glyph glyph-name="@" unicode="&#x40;" horiz-adv-x="864" d=" M241,296 Q241,340 255.5,380 Q270,420 298,450 Q326,480 367.5,498 Q409,516 463,516 Q495,516 519,507 Q543,498 560,484 L570,509 L665,509 L645,290 Q644,281 644,278.5 Q644,276 644,274 Q644,230 678,230 Q702,230 717.5,261.5 Q733,293 733,357 Q733,415 713.5,461 Q694,507 659.5,538 Q625,569 577,585.5 Q529,602 471,602 Q417,602 366.5,582.5 Q316,563 277.5,525 Q239,487 215.5,431 Q192,375 192,301 Q192,226 219.5,174 Q247,122 289.5,89 Q332,56 382.5,41 Q433,26 480,26 Q511,26 536.5,28 Q562,30 588,35.5 Q614,41 643,51 Q672,61 709,78 L751,-37 Q715,-53 681.5,-64 Q648,-75 614.5,-81.5 Q581,-88 545.5,-91 Q510,-94 470,-94 Q374,-94 297,-64 Q220,-34 166,18.5 Q112,71 83,143.5 Q54,216 54,301 Q54,396 86,473 Q118,550 174,604.5 Q230,659 307.5,688.5 Q385,718 476,718 Q570,718 642,691 Q714,664 763.5,615 Q813,566 838.5,499 Q864,432 864,352 Q864,293 849.5,247.5 Q835,202 808.5,171 Q782,140 746,124 Q710,108 668,108 Q631,108 601,125 Q571,142 559,165 Q534,134 500.5,121 Q467,108 425,108 Q383,108 349,122 Q315,136 291,161 Q267,186 254,220.5 Q241,255 241,296 M460,394 Q430,394 405,368.5 Q380,343 380,295 Q380,263 397.5,246.5 Q415,230 441,230 Q475,230 498.5,257.5 Q522,285 522,327 Q522,359 505.5,376.5 Q489,394 460,394"/> 
            <glyph glyph-name="A" unicode="&#x41;" horiz-adv-x="649" d=" M420,149 L234,149 L189,0 L5,0 L242,700 L412,700 L649,0 L465,0 M279,301 L375,301 L327,465"/> 
            <glyph glyph-name="B" unicode="&#x42;" horiz-adv-x="614" d=" M361,700 Q406,700 445.5,688.5 Q485,677 514.5,654.5 Q544,632 561,598 Q578,564 578,520 Q578,470 555.5,434.5 Q533,399 505,382 Q527,372 546.5,356.5 Q566,341 581,320 Q596,299 605,271.5 Q614,244 614,211 Q614,160 595.5,120.5 Q577,81 544,54.5 Q511,28 465.5,14 Q420,0 366,0 L81,0 L81,700 M255,562 L255,442 L346,442 Q385,442 401.5,458.5 Q418,475 418,502 Q418,529 401.5,545.5 Q385,562 343,562 M255,294 L255,152 L354,152 Q405,152 427,169.5 Q449,187 449,222 Q449,257 427,275.5 Q405,294 354,294"/> 
            <glyph glyph-name="C" unicode="&#x43;" horiz-adv-x="684" d=" M524,447 Q516,469 503.5,489 Q491,509 473.5,524 Q456,539 432.5,547.5 Q409,556 379,556 Q347,556 318,543 Q289,530 266.5,504 Q244,478 231,439.5 Q218,401 218,350 Q218,299 231,260.5 Q244,222 266,196 Q288,170 317.5,157 Q347,144 379,144 Q410,144 433.5,152.5 Q457,161 474,176 Q491,191 503.5,210.5 Q516,230 524,253 L682,209 Q652,100 574,46 Q496,-8 381,-8 Q311,-8 249,15 Q187,38 140.5,83 Q94,128 67,195 Q40,262 40,350 Q40,438 67.5,505 Q95,572 142,617 Q189,662 251,685 Q313,708 381,708 Q502,708 580.5,651 Q659,594 684,493"/> 
            <glyph glyph-name="D" unicode="&#x44;" horiz-adv-x="664" d=" M81,0 L81,700 L318,700 Q384,700 446.5,680 Q509,660 557.5,617 Q606,574 635,508 Q664,442 664,350 Q664,258 635,192 Q606,126 557.5,83 Q509,40 446.5,20 Q384,0 318,0 M296,152 Q332,152 366,161.5 Q400,171 427,193.5 Q454,216 470,254.5 Q486,293 486,350 Q486,407 470,445.5 Q454,484 427,506.5 Q400,529 366,538.5 Q332,548 296,548 L255,548 L255,152"/> 
            <glyph glyph-name="E" unicode="&#x45;" horiz-adv-x="567" d=" M557,700 L557,548 L259,548 L259,449 L493,449 L493,297 L259,297 L259,152 L567,152 L567,0 L81,0 L81,700"/> 
            <glyph glyph-name="F" unicode="&#x46;" horiz-adv-x="562" d=" M562,700 L562,548 L259,548 L259,436 L501,436 L501,284 L259,284 L259,0 L81,0 L81,700"/> 
            <glyph glyph-name="G" unicode="&#x47;" horiz-adv-x="684" d=" M533,61 Q476,-8 367,-8 Q303,-8 244,14.5 Q185,37 139.5,81.5 Q94,126 67,193 Q40,260 40,350 Q40,440 68.5,507 Q97,574 144,618.5 Q191,663 253,685.5 Q315,708 383,708 Q501,708 579,649.5 Q657,591 684,481 L527,440 Q516,492 476.5,524 Q437,556 381,556 Q345,556 313,542 Q281,528 257.5,501.5 Q234,475 220.5,436.5 Q207,398 207,350 Q207,302 220.5,263.5 Q234,225 257,198.5 Q280,172 311.5,158 Q343,144 378,144 Q432,144 465.5,168 Q499,192 513,233 L395,233 L395,363 L677,363 L677,0 L542,0"/> 
            <glyph glyph-name="H" unicode="&#x48;" horiz-adv-x="669" d=" M81,700 L259,700 L259,456 L491,456 L491,700 L669,700 L669,0 L491,0 L491,292 L259,292 L259,0 L81,0"/> 
            <glyph glyph-name="I" unicode="&#x49;" horiz-adv-x="259" d=" M259,0 L81,0 L81,700 L259,700"/> 
            <glyph glyph-name="J" unicode="&#x4A;" horiz-adv-x="483" d=" M162,227 Q168,182 188,163 Q208,144 236,144 Q278,144 296.5,173 Q315,202 315,250 L315,700 L483,700 L483,246 Q483,180 465.5,132 Q448,84 415.5,53 Q383,22 337.5,7 Q292,-8 236,-8 Q183,-8 142,7.5 Q101,23 71.5,50 Q42,77 24.5,115 Q7,153 2,198"/> 
            <glyph glyph-name="K" unicode="&#x4B;" horiz-adv-x="715" d=" M259,465 L475,700 L695,700 L411,387 L715,0 L490,0 L259,303 L259,0 L81,0 L81,700 L259,700"/> 
            <glyph glyph-name="L" unicode="&#x4C;" horiz-adv-x="547" d=" M259,700 L259,152 L547,152 L547,0 L81,0 L81,700"/> 
            <glyph glyph-name="M" unicode="&#x4D;" horiz-adv-x="743" d=" M81,700 L269,700 L412,316 L555,700 L743,700 L743,0 L583,0 L583,360 L475,64 L349,64 L241,360 L241,0 L81,0"/> 
            <glyph glyph-name="N" unicode="&#x4E;" horiz-adv-x="645" d=" M645,700 L645,0 L472,0 L241,418 L241,0 L81,0 L81,700 L254,700 L485,282 L485,700"/> 
            <glyph glyph-name="O" unicode="&#x4F;" horiz-adv-x="728" d=" M384,708 Q450,708 512,686 Q574,664 622,620 Q670,576 699,508.5 Q728,441 728,350 Q728,259 699,191.5 Q670,124 622,80 Q574,36 512,14 Q450,-8 384,-8 Q318,-8 256,14 Q194,36 146,80 Q98,124 69,191.5 Q40,259 40,350 Q40,441 69,508.5 Q98,576 146,620 Q194,664 256,686 Q318,708 384,708 M384,556 Q350,556 320,544 Q290,532 267.5,506.5 Q245,481 231.5,442 Q218,403 218,350 Q218,297 231.5,258 Q245,219 267.5,193.5 Q290,168 320,156 Q350,144 384,144 Q418,144 448,156 Q478,168 500.5,193.5 Q523,219 536.5,258 Q550,297 550,350 Q550,403 536.5,442 Q523,481 500.5,506.5 Q478,532 448,544 Q418,556 384,556"/> 
            <glyph glyph-name="P" unicode="&#x50;" horiz-adv-x="602" d=" M259,266 L259,0 L81,0 L81,700 L369,700 Q424,700 467.5,684.5 Q511,669 541,640.5 Q571,612 586.5,572 Q602,532 602,483 Q602,434 586.5,394 Q571,354 541,325.5 Q511,297 467.5,281.5 Q424,266 369,266 M357,412 Q395,412 413.5,431.5 Q432,451 432,483 Q432,515 413.5,534.5 Q395,554 357,554 L259,554 L259,412"/> 
            <glyph glyph-name="Q" unicode="&#x51;" horiz-adv-x="742" d=" M384,708 Q450,708 512,686 Q574,664 622,620 Q670,576 699,508.5 Q728,441 728,350 Q728,290 715.5,240.5 Q703,191 680,152 L742,90 L635,-16 L575,44 Q532,18 483.5,5 Q435,-8 384,-8 Q318,-8 256,14 Q194,36 146,80 Q98,124 69,191.5 Q40,259 40,350 Q40,441 69,508.5 Q98,576 146,620 Q194,664 256,686 Q318,708 384,708 M384,556 Q350,556 320,544 Q290,532 267.5,506.5 Q245,481 231.5,442 Q218,403 218,350 Q218,297 231.5,258 Q245,219 267.5,193.5 Q290,168 320,156 Q350,144 384,144 Q406,144 423,148 Q440,152 457,162 L384,234 L491,340 L544,287 Q550,315 550,350 Q550,403 536.5,442 Q523,481 500.5,506.5 Q478,532 448,544 Q418,556 384,556"/> 
            <glyph glyph-name="R" unicode="&#x52;" horiz-adv-x="658" d=" M288,288 L253,288 L253,0 L81,0 L81,700 L358,700 Q410,700 451.5,685 Q493,670 522,644 Q551,618 566,581 Q581,544 581,501 Q581,439 551,388 Q521,337 465,311 L658,0 L467,0 M338,436 Q373,436 395,450 Q417,464 417,501 Q417,538 395,552 Q373,566 338,566 L253,566 L253,436"/> 
            <glyph glyph-name="S" unicode="&#x53;" horiz-adv-x="524" d=" M361,490 Q344,527 326,543.5 Q308,560 284,560 Q264,560 252,549 Q240,538 240,518 Q240,493 261,475.5 Q282,458 313.5,442.5 Q345,427 382,409.5 Q419,392 450.5,367 Q482,342 503,306 Q524,270 524,217 Q524,164 507.5,122.5 Q491,81 460,52 Q429,23 385,7.5 Q341,-8 286,-8 Q233,-8 190,7.5 Q147,23 114.5,50 Q82,77 61.5,112.5 Q41,148 32,188 L170,275 Q177,249 187,225 Q197,201 211.5,183 Q226,165 245.5,154.5 Q265,144 289,144 Q315,144 332,156.5 Q349,169 349,199 Q349,228 328.5,247.5 Q308,267 277,283.5 Q246,300 210.5,317.5 Q175,335 144,360 Q113,385 92.5,422 Q72,459 72,515 Q72,555 86.5,590.5 Q101,626 128,652 Q155,678 193,693 Q231,708 278,708 Q358,708 408.5,677 Q459,646 493,577"/> 
            <glyph glyph-name="T" unicode="&#x54;" horiz-adv-x="566" d=" M8,700 L566,700 L566,548 L376,548 L376,0 L198,0 L198,548 L8,548"/> 
            <glyph glyph-name="U" unicode="&#x55;" horiz-adv-x="611" d=" M611,266 Q611,196 591,144.5 Q571,93 534.5,59 Q498,25 447.5,8.5 Q397,-8 336,-8 Q275,-8 224.5,8.5 Q174,25 137.5,59 Q101,93 81,144.5 Q61,196 61,266 L61,700 L225,700 L225,268 Q225,202 257,174 Q289,146 336,146 Q383,146 415,174 Q447,202 447,268 L447,700 L611,700"/> 
            <glyph glyph-name="V" unicode="&#x56;" horiz-adv-x="639" d=" M236,0 L1,700 L179,700 L320,246 L461,700 L639,700 L404,0"/> 
            <glyph glyph-name="W" unicode="&#x57;" horiz-adv-x="937" d=" M937,700 L754,0 L582,0 L477,348 L372,0 L200,0 L17,700 L195,700 L293,261 L403,626 L551,626 L661,261 L759,700"/> 
            <glyph glyph-name="X" unicode="&#x58;" horiz-adv-x="617" d=" M590,700 L405,378 L617,0 L429,0 L312,210 L195,0 L7,0 L221,378 L34,700 L218,700 L312,534 L406,700"/> 
            <glyph glyph-name="Y" unicode="&#x59;" horiz-adv-x="586" d=" M186,700 L293,468 L400,700 L586,700 L382,298 L382,0 L204,0 L204,298 L0,700"/> 
            <glyph glyph-name="Z" unicode="&#x5A;" horiz-adv-x="544" d=" M42,700 L528,700 L528,610 L246,150 L544,150 L544,0 L27,0 L27,90 L312,550 L42,550"/> 
            <glyph glyph-name="[" unicode="&#x5B;" horiz-adv-x="335" d=" M81,750 L335,750 L335,616 L227,616 L227,84 L335,84 L335,-50 L81,-50"/> 
            <glyph glyph-name="\" unicode="&#x5C;" horiz-adv-x="577" d=" M141,750 L577,-50 L421,-50 L-15,750"/> 
            <glyph glyph-name="]" unicode="&#x5D;" horiz-adv-x="283" d=" M283,-50 L29,-50 L29,84 L137,84 L137,616 L29,616 L29,750 L283,750"/> 
            <glyph glyph-name="^" unicode="&#x5E;" horiz-adv-x="576" d=" M379,700 L576,403 L418,403 L311,562 L204,403 L46,403 L243,700"/> 
            <glyph glyph-name="_" unicode="&#x5F;" horiz-adv-x="498" d=" M23,0 L498,0 L498,-126 L23,-126"/> 
            <glyph glyph-name="`" unicode="&#x60;" horiz-adv-x="283" d=" M283,548 L164,548 L12,708 L220,708"/> 
            <glyph glyph-name="a" unicode="&#x61;" horiz-adv-x="475" d=" M53,368 Q60,398 77,424.5 Q94,451 119.5,470.5 Q145,490 178.5,501 Q212,512 253,512 Q305,512 346,500 Q387,488 415.5,462.5 Q444,437 459.5,397 Q475,357 475,301 L475,0 L349,0 L338,54 Q312,22 278,7 Q244,-8 195,-8 Q163,-8 134,2 Q105,12 83,31 Q61,50 48,78.5 Q35,107 35,145 Q35,220 88,265 Q141,310 247,310 L327,310 L327,327 Q327,361 307.5,376.5 Q288,392 253,392 Q227,392 207.5,379.5 Q188,367 179,338 M188,155 Q188,135 203,125 Q218,115 241,115 Q281,115 304,138 Q327,161 327,194 L327,200 L248,200 Q219,200 203.5,187.5 Q188,175 188,155"/> 
            <glyph glyph-name="b" unicode="&#x62;" horiz-adv-x="578" d=" M578,252 Q578,192 562,143.5 Q546,95 517,61.5 Q488,28 446,10 Q404,-8 353,-8 Q316,-8 285.5,5.5 Q255,19 236,43 L236,0 L72,0 L72,708 L236,708 L236,464 Q255,484 284.5,498 Q314,512 356,512 Q406,512 447,494 Q488,476 517,442.5 Q546,409 562,360.5 Q578,312 578,252 M418,252 Q418,315 391,343.5 Q364,372 323,372 Q282,372 255,343.5 Q228,315 228,252 Q228,189 255,160.5 Q282,132 323,132 Q364,132 391,160.5 Q418,189 418,252"/> 
            <glyph glyph-name="c" unicode="&#x63;" horiz-adv-x="543" d=" M543,139 Q509,63 449.5,27.5 Q390,-8 300,-8 Q238,-8 189.5,12.5 Q141,33 107.5,68.5 Q74,104 56.5,151.5 Q39,199 39,252 Q39,305 56.5,352.5 Q74,400 107.5,435.5 Q141,471 189.5,491.5 Q238,512 300,512 Q389,512 451,475.5 Q513,439 542,364 L397,304 Q386,335 363.5,353.5 Q341,372 305,372 Q256,372 232.5,338 Q209,304 209,252 Q209,200 232.5,166 Q256,132 307,132 Q339,132 362,149 Q385,166 402,198"/> 
            <glyph glyph-name="d" unicode="&#x64;" horiz-adv-x="545" d=" M39,252 Q39,312 55,360.5 Q71,409 100,442.5 Q129,476 170,494 Q211,512 261,512 Q303,512 332.5,499 Q362,486 381,464 L381,708 L545,708 L545,0 L381,0 L381,43 Q339,-8 264,-8 Q213,-8 171,10 Q129,28 100,61.5 Q71,95 55,143.5 Q39,192 39,252 M199,252 Q199,189 226,160.5 Q253,132 294,132 Q335,132 362,160.5 Q389,189 389,252 Q389,315 362,343.5 Q335,372 294,372 Q253,372 226,343.5 Q199,315 199,252"/> 
            <glyph glyph-name="e" unicode="&#x65;" horiz-adv-x="540" d=" M200,202 Q211,166 236.5,145.5 Q262,125 300,125 Q334,125 358,138 Q382,151 402,185 L532,139 Q500,70 442.5,31 Q385,-8 293,-8 Q225,-8 176.5,16 Q128,40 97.5,77.5 Q67,115 53,161 Q39,207 39,252 Q39,297 53,343 Q67,389 97.5,426.5 Q128,464 176.5,488 Q225,512 293,512 Q364,512 411.5,488 Q459,464 487.5,427 Q516,390 528,346 Q540,302 540,262 L540,202 M293,393 Q262,393 237.5,374.5 Q213,356 202,316 L385,316 Q381,348 358,370.5 Q335,393 293,393"/> 
            <glyph glyph-name="f" unicode="&#x66;" horiz-adv-x="383" d=" M29,504 L83,504 L83,513 Q83,610 135.5,659 Q188,708 277,708 Q306,708 333,702.5 Q360,697 383,684 L348,563 Q340,570 327.5,575 Q315,580 299,580 Q273,580 260,565 Q247,550 247,524 L247,504 L349,504 L349,378 L247,378 L247,0 L83,0 L83,378 L29,378"/> 
            <glyph glyph-name="g" unicode="&#x67;" horiz-adv-x="506" d=" M261,512 Q308,512 350,495 L451,548 L506,455 L436,419 Q444,402 449,383 Q454,364 454,342 Q454,302 438.5,271 Q423,240 397,218.5 Q371,197 336,185.5 Q301,174 261,174 Q226,174 195,183 Q183,174 180,165 Q177,156 177,150 Q177,136 188.5,128 Q200,120 220,120 L314,120 Q405,120 451.5,80 Q498,40 498,-33 Q498,-81 478,-115 Q458,-149 425,-170.5 Q392,-192 349.5,-202 Q307,-212 262,-212 Q209,-212 166,-201.5 Q123,-191 91.5,-170 Q60,-149 43,-118 Q26,-87 26,-46 Q26,-23 36.5,4.5 Q47,32 67,53 Q42,83 42,132 Q42,144 46,158 Q50,172 58,186 Q66,200 78,213.5 Q90,227 107,236 Q89,256 79,283 Q69,310 69,342 Q69,381 84,412.5 Q99,444 125,466 Q151,488 186,500 Q221,512 261,512 M215,-4 Q191,-4 168,0 Q165,-9 163.5,-16 Q162,-23 162,-32 Q162,-60 189,-76 Q216,-92 262,-92 Q300,-92 326,-80 Q352,-68 352,-43 Q352,-20 333,-12 Q314,-4 285,-4 M211,342 Q211,320 225,306 Q239,292 261,292 Q283,292 297,306 Q311,320 311,342 Q311,365 297,379.5 Q283,394 261,394 Q239,394 225,379.5 Q211,365 211,342"/> 
            <glyph glyph-name="h" unicode="&#x68;" horiz-adv-x="555" d=" M236,708 L236,446 Q256,475 295.5,493.5 Q335,512 382,512 Q467,512 511,467.5 Q555,423 555,337 L555,0 L391,0 L391,292 Q391,329 372,347.5 Q353,366 326,366 Q236,366 236,221 L236,0 L72,0 L72,708"/> 
            <glyph glyph-name="i" unicode="&#x69;" horiz-adv-x="241" d=" M45,661 Q45,682 52.5,699.5 Q60,717 73,730.5 Q86,744 104,751.5 Q122,759 143,759 Q164,759 182,751.5 Q200,744 213,730.5 Q226,717 233.5,699.5 Q241,682 241,661 Q241,640 233.5,622.5 Q226,605 213,591.5 Q200,578 182,570.5 Q164,563 143,563 Q122,563 104,570.5 Q86,578 73,591.5 Q60,605 52.5,622.5 Q45,640 45,661 M225,504 L225,0 L61,0 L61,504"/> 
            <glyph glyph-name="j" unicode="&#x6A;" horiz-adv-x="252" d=" M236,504 L236,54 Q236,-8 219,-55 Q202,-102 171.5,-135 Q141,-168 98.5,-187 Q56,-206 5,-212 L-36,-76 Q-11,-71 9.5,-63 Q30,-55 43.5,-42 Q57,-29 64.5,-8.5 Q72,12 72,43 L72,504 M56,661 Q56,682 63.5,699.5 Q71,717 84,730.5 Q97,744 115,751.5 Q133,759 154,759 Q175,759 193,751.5 Q211,744 224,730.5 Q237,717 244.5,699.5 Q252,682 252,661 Q252,640 244.5,622.5 Q237,605 224,591.5 Q211,578 193,570.5 Q175,563 154,563 Q133,563 115,570.5 Q97,578 84,591.5 Q71,605 63.5,622.5 Q56,640 56,661"/> 
            <glyph glyph-name="k" unicode="&#x6B;" horiz-adv-x="569" d=" M236,708 L236,354 L360,504 L556,504 L354,272 L569,0 L374,0 L236,184 L236,0 L72,0 L72,708"/> 
            <glyph glyph-name="l" unicode="&#x6C;" horiz-adv-x="236" d=" M236,708 L236,0 L72,0 L72,708"/> 
            <glyph glyph-name="m" unicode="&#x6D;" horiz-adv-x="814" d=" M367,0 L367,306 Q367,338 354,357 Q341,376 314,376 Q296,376 279.5,367 Q263,358 250.5,337 Q238,316 231,282 Q224,248 224,198 L224,0 L72,0 L72,504 L224,504 L224,444 Q246,474 277.5,493 Q309,512 355,512 Q410,512 443.5,490.5 Q477,469 497,427 Q517,460 553.5,486 Q590,512 650,512 Q730,512 772,469.5 Q814,427 814,357 L814,0 L662,0 L662,306 Q662,339 650,357.5 Q638,376 610,376 Q593,376 576.5,367 Q560,358 547,337 Q534,316 526.5,282 Q519,248 519,199 L519,0"/> 
            <glyph glyph-name="n" unicode="&#x6E;" horiz-adv-x="547" d=" M236,504 L236,446 Q256,475 294,493.5 Q332,512 379,512 Q466,512 506.5,468.5 Q547,425 547,346 L547,0 L383,0 L383,298 Q383,330 368,348 Q353,366 326,366 Q284,366 260,329.5 Q236,293 236,221 L236,0 L72,0 L72,504"/> 
            <glyph glyph-name="o" unicode="&#x6F;" horiz-adv-x="571" d=" M39,252 Q39,304 56,351 Q73,398 106,434 Q139,470 189,491 Q239,512 305,512 Q371,512 421,491 Q471,470 504,434 Q537,398 554,351 Q571,304 571,252 Q571,200 554,153 Q537,106 504,70 Q471,34 421,13 Q371,-8 305,-8 Q239,-8 189,13 Q139,34 106,70 Q73,106 56,153 Q39,200 39,252 M203,252 Q203,198 227.5,165 Q252,132 305,132 Q358,132 382.5,165 Q407,198 407,252 Q407,306 382.5,339 Q358,372 305,372 Q252,372 227.5,339 Q203,306 203,252"/> 
            <glyph glyph-name="p" unicode="&#x70;" horiz-adv-x="578" d=" M578,252 Q578,192 560.5,143.5 Q543,95 512,61.5 Q481,28 438.5,10 Q396,-8 346,-8 Q270,-8 236,30 L236,-204 L72,-204 L72,504 L236,504 L236,461 Q258,485 288,498.5 Q318,512 362,512 Q410,512 449.5,494 Q489,476 517.5,442.5 Q546,409 562,360.5 Q578,312 578,252 M418,252 Q418,315 391,343.5 Q364,372 323,372 Q282,372 255,343.5 Q228,315 228,252 Q228,189 255,160.5 Q282,132 323,132 Q364,132 391,160.5 Q418,189 418,252"/> 
            <glyph glyph-name="q" unicode="&#x71;" horiz-adv-x="545" d=" M39,252 Q39,312 55,360.5 Q71,409 100,442.5 Q129,476 171,494 Q213,512 264,512 Q301,512 329.5,500.5 Q358,489 381,461 L381,504 L545,504 L545,-204 L381,-204 L381,40 Q358,16 330.5,4 Q303,-8 261,-8 Q211,-8 170,10 Q129,28 100,61.5 Q71,95 55,143.5 Q39,192 39,252 M199,252 Q199,189 226,160.5 Q253,132 294,132 Q335,132 362,160.5 Q389,189 389,252 Q389,315 362,343.5 Q335,372 294,372 Q253,372 226,343.5 Q199,315 199,252"/> 
            <glyph glyph-name="r" unicode="&#x72;" horiz-adv-x="442" d=" M72,0 L72,504 L236,504 L236,449 Q256,478 293.5,495 Q331,512 376,512 Q396,512 412.5,508 Q429,504 442,498 L407,350 Q384,364 355,364 Q333,364 312,354 Q291,344 274,322.5 Q257,301 246.5,265.5 Q236,230 236,179 L236,0"/> 
            <glyph glyph-name="s" unicode="&#x73;" horiz-adv-x="417" d=" M229,512 Q288,512 329,489 Q370,466 395,428 L306,346 Q273,390 230,390 Q216,390 206,382.5 Q196,375 196,362 Q196,348 209.5,337 Q223,326 255,315 Q292,303 322,290.5 Q352,278 373,261.5 Q394,245 405.5,220.5 Q417,196 417,160 Q417,126 404.5,95.5 Q392,65 368,42 Q344,19 309.5,5.5 Q275,-8 232,-8 Q189,-8 155,3 Q121,14 95.5,33 Q70,52 51,77 Q32,102 19,129 L140,194 Q153,159 175,137.5 Q197,116 232,116 Q249,116 262.5,124 Q276,132 276,150 Q276,163 267,172.5 Q258,182 242.5,189.5 Q227,197 207.5,203.5 Q188,210 167,219 Q144,228 123.5,241 Q103,254 88,271.5 Q73,289 64,312 Q55,335 55,365 Q55,394 67,420.5 Q79,447 101.5,467.5 Q124,488 156,500 Q188,512 229,512"/> 
            <glyph glyph-name="t" unicode="&#x74;" horiz-adv-x="395" d=" M395,16 Q372,5 345.5,-1.5 Q319,-8 290,-8 Q247,-8 210.5,3.5 Q174,15 147,38 Q120,61 104.5,96 Q89,131 89,178 L89,378 L17,378 L17,504 L89,504 L89,608 L249,708 L249,504 L376,504 L376,378 L249,378 L249,209 Q249,136 306,136 Q319,136 333,138.5 Q347,141 360,148"/> 
            <glyph glyph-name="u" unicode="&#x75;" horiz-adv-x="540" d=" M376,0 L376,58 Q356,30 320,11 Q284,-8 233,-8 Q151,-8 108,37.5 Q65,83 65,174 L65,504 L229,504 L229,210 Q229,175 244,156.5 Q259,138 286,138 Q328,138 352,174.5 Q376,211 376,283 L376,504 L540,504 L540,0"/> 
            <glyph glyph-name="v" unicode="&#x76;" horiz-adv-x="499" d=" M169,504 L252,222 L335,504 L499,504 L324,0 L180,0 L5,504"/> 
            <glyph glyph-name="w" unicode="&#x77;" horiz-adv-x="771" d=" M771,504 L610,0 L470,0 L397,277 L324,0 L184,0 L23,504 L187,504 L255,231 L323,504 L471,504 L539,231 L607,504"/> 
            <glyph glyph-name="x" unicode="&#x78;" horiz-adv-x="520" d=" M501,504 L353,269 L520,0 L342,0 L264,134 L186,0 L8,0 L175,269 L27,504 L202,504 L264,402 L326,504"/> 
            <glyph glyph-name="y" unicode="&#x79;" horiz-adv-x="511" d=" M184,40 L3,504 L172,504 L263,259 L353,504 L511,504 L249,-204 L95,-204"/> 
            <glyph glyph-name="z" unicode="&#x7A;" horiz-adv-x="451" d=" M53,504 L437,504 L437,426 L243,136 L451,136 L451,0 L37,0 L37,78 L233,368 L53,368"/> 
            <glyph glyph-name="{" unicode="&#x7B;" horiz-adv-x="334" d=" M123,216 Q123,257 106.5,273.5 Q90,290 51,290 L51,410 Q90,410 106.5,426.5 Q123,443 123,484 L123,650 Q123,695 150.5,722.5 Q178,750 223,750 L334,750 L334,616 L310,616 Q286,616 277.5,606.5 Q269,597 269,571 L269,448 Q269,397 249.5,376 Q230,355 195,350 Q230,345 249.5,324 Q269,303 269,252 L269,129 Q269,103 277.5,93.5 Q286,84 310,84 L334,84 L334,-50 L223,-50 Q178,-50 150.5,-22.5 Q123,5 123,50"/> 
            <glyph glyph-name="|" unicode="&#x7C;" horiz-adv-x="243" d=" M243,750 L243,-50 L81,-50 L81,750"/> 
            <glyph glyph-name="}" unicode="&#x7D;" horiz-adv-x="303" d=" M231,50 Q231,5 203.5,-22.5 Q176,-50 131,-50 L20,-50 L20,84 L44,84 Q68,84 76.5,93.5 Q85,103 85,129 L85,252 Q85,303 104.5,324 Q124,345 159,350 Q124,355 104.5,376 Q85,397 85,448 L85,571 Q85,597 76.5,606.5 Q68,616 44,616 L20,616 L20,750 L131,750 Q176,750 203.5,722.5 Q231,695 231,650 L231,484 Q231,443 247.5,426.5 Q264,410 303,410 L303,290 Q264,290 247.5,273.5 Q231,257 231,216"/> 
            <glyph glyph-name="~" unicode="&#x7E;" horiz-adv-x="605" d=" M67,322 Q76,346 91.5,367 Q107,388 128.5,404 Q150,420 176.5,429.5 Q203,439 234,439 Q266,439 291.5,430 Q317,421 340,410 Q363,399 385.5,390 Q408,381 434,381 Q463,381 482.5,397 Q502,413 519,436 L605,346 Q596,322 580.5,301 Q565,280 543.5,264 Q522,248 495.5,238.5 Q469,229 438,229 Q406,229 380.5,238 Q355,247 332,258 Q309,269 286.5,278 Q264,287 238,287 Q209,287 189.5,271 Q170,255 153,232"/> 
            <glyph glyph-name="¡" unicode="&#xA1;" horiz-adv-x="286" d=" M90,-204 L122,246 L254,246 L286,-204 M99,415 Q99,453 124.5,478.5 Q150,504 188,504 Q226,504 251.5,478.5 Q277,453 277,415 Q277,377 251.5,351.5 Q226,326 188,326 Q150,326 124.5,351.5 Q99,377 99,415"/> 
            <glyph glyph-name="¢" unicode="&#xA2;" horiz-adv-x="553" d=" M553,239 Q500,120 380,98 L380,-50 L242,-50 L242,99 Q195,109 159.5,132.5 Q124,156 99,189.5 Q74,223 61.5,264.5 Q49,306 49,352 Q49,397 61.5,438.5 Q74,480 99,513.5 Q124,547 159.5,570.5 Q195,594 242,605 L242,750 L380,750 L380,605 Q442,593 485.5,558.5 Q529,524 552,464 L407,404 Q396,435 373.5,453.5 Q351,472 315,472 Q266,472 242.5,438 Q219,404 219,352 Q219,300 242.5,266 Q266,232 317,232 Q349,232 372,249 Q395,266 412,298"/> 
            <glyph glyph-name="£" unicode="&#xA3;" horiz-adv-x="562" d=" M56,424 L98,424 Q92,444 88.5,463 Q85,482 85,500 Q85,544 100.5,582 Q116,620 145,648 Q174,676 215,692 Q256,708 307,708 Q391,708 447,670.5 Q503,633 526,569 L396,506 Q381,536 360.5,553 Q340,570 307,570 Q278,570 255.5,551 Q233,532 233,494 Q233,456 241,424 L405,424 L405,304 L271,304 Q274,284 274,263 Q274,218 254,184 Q234,150 207,127 Q224,139 244.5,144.5 Q265,150 285,150 Q302,150 315.5,146 Q329,142 341,137 Q353,132 365,128 Q377,124 391,124 Q409,124 425,134 Q441,144 459,177 L562,110 Q524,44 481.5,18 Q439,-8 386,-8 Q359,-8 340,-3.5 Q321,1 304.5,7 Q288,13 271,17.5 Q254,22 231,22 Q196,22 169,14 Q142,6 110,-8 L34,76 Q54,94 74,114 Q94,134 110,156 Q126,178 136,202.5 Q146,227 146,254 Q146,265 143.5,279.5 Q141,294 138,304 L56,304"/> 
            <glyph glyph-name="¤" unicode="&#xA4;" horiz-adv-x="559" d=" M104,216 Q83,259 83,307 Q83,354 104,398 L9,465 L126,582 L192,488 Q212,498 235,503.5 Q258,509 284,509 Q310,509 333,503.5 Q356,498 376,488 L442,582 L559,465 L464,398 Q485,354 485,307 Q485,259 464,216 L559,149 L442,32 L376,126 Q356,116 333,110.5 Q310,105 284,105 Q258,105 235,110.5 Q212,116 192,126 L126,32 L9,149 M219,307 Q219,275 236,255.5 Q253,236 284,236 Q315,236 332,255.5 Q349,275 349,307 Q349,339 332,358.5 Q315,378 284,378 Q253,378 236,358.5 Q219,339 219,307"/> 
            <glyph glyph-name="¥" unicode="&#xA5;" horiz-adv-x="590" d=" M194,700 L299,458 L404,700 L590,700 L440,412 L515,412 L515,292 L388,292 L388,232 L515,232 L515,112 L388,112 L388,0 L210,0 L210,112 L83,112 L83,232 L210,232 L210,292 L83,292 L83,412 L158,412 L8,700"/> 
            <glyph glyph-name="¦" unicode="&#xA6;" horiz-adv-x="243" d=" M243,299 L243,-50 L81,-50 L81,299 M81,401 L81,750 L243,750 L243,401"/> 
            <glyph glyph-name="§" unicode="&#xA7;" horiz-adv-x="523" d=" M523,221 Q523,171 507.5,138.5 Q492,106 460,80 Q477,53 483,27.5 Q489,2 489,-20 Q489,-65 473,-100.5 Q457,-136 430,-161 Q403,-186 366,-199 Q329,-212 287,-212 Q248,-212 213.5,-203 Q179,-194 150.5,-175 Q122,-156 101.5,-127.5 Q81,-99 71,-61 L218,-16 Q236,-78 284,-78 Q300,-78 315.5,-66.5 Q331,-55 331,-26 Q331,-6 322,10 Q313,26 294.5,40.5 Q276,55 247.5,70 Q219,85 180,103 Q111,135 82.5,175.5 Q54,216 54,275 Q54,299 59,318.5 Q64,338 73,354.5 Q82,371 93.5,385.5 Q105,400 118,414 Q101,441 94.5,467 Q88,493 88,516 Q88,561 104,596.5 Q120,632 147,657 Q174,682 211,695 Q248,708 290,708 Q329,708 363.5,698.5 Q398,689 426.5,670.5 Q455,652 475.5,623.5 Q496,595 506,557 L359,512 Q341,574 293,574 Q277,574 261.5,562.5 Q246,551 246,522 Q246,502 255,486 Q264,470 282.5,455.5 Q301,441 329.5,426 Q358,411 397,393 Q466,361 494.5,320.5 Q523,280 523,221 M242,314 Q236,316 230.5,319 Q225,322 220,324 Q207,307 207,281 Q207,249 238.5,229.5 Q270,210 333,182 L357,171 Q370,190 370,215 Q370,231 363.5,242.5 Q357,254 342,264.5 Q327,275 302.5,286.5 Q278,298 242,314"/> 
            <glyph glyph-name="¨" unicode="&#xA8;" horiz-adv-x="382" d=" M15,651 Q15,686 37.5,709.5 Q60,733 97,733 Q134,733 156.5,709.5 Q179,686 179,651 Q179,616 156.5,592.5 Q134,569 97,569 Q60,569 37.5,592.5 Q15,616 15,651 M218,651 Q218,686 240.5,709.5 Q263,733 300,733 Q337,733 359.5,709.5 Q382,686 382,651 Q382,616 359.5,592.5 Q337,569 300,569 Q263,569 240.5,592.5 Q218,616 218,651"/> 
            <glyph glyph-name="©" unicode="&#xA9;" horiz-adv-x="824" d=" M54,350 Q54,433 83.5,504.5 Q113,576 164.5,628.5 Q216,681 286.5,710.5 Q357,740 439,740 Q521,740 591,710.5 Q661,681 713,628.5 Q765,576 794.5,504.5 Q824,433 824,350 Q824,267 794.5,195.5 Q765,124 713,71.5 Q661,19 591,-10.5 Q521,-40 439,-40 Q357,-40 286.5,-10.5 Q216,19 164.5,71.5 Q113,124 83.5,195.5 Q54,267 54,350 M174,350 Q174,290 193.5,240 Q213,190 248.5,153.5 Q284,117 332.5,96.5 Q381,76 439,76 Q497,76 545.5,96.5 Q594,117 629.5,153.5 Q665,190 684.5,240 Q704,290 704,350 Q704,410 684.5,460 Q665,510 629.5,546.5 Q594,583 545.5,603.5 Q497,624 439,624 Q381,624 332.5,603.5 Q284,583 248.5,546.5 Q213,510 193.5,460 Q174,410 174,350 M632,279 Q627,244 609,217 Q591,190 564.5,171.5 Q538,153 505.5,143.5 Q473,134 439,134 Q400,134 363,147.5 Q326,161 297.5,188 Q269,215 251.5,255.5 Q234,296 234,350 Q234,404 251.5,444.5 Q269,485 297.5,512 Q326,539 363,552.5 Q400,566 439,566 Q473,566 505.5,556.5 Q538,547 564.5,528.5 Q591,510 609,483 Q627,456 632,421 L515,401 Q503,436 483.5,448 Q464,460 439,460 Q402,460 379,429.5 Q356,399 356,350 Q356,301 379,270.5 Q402,240 439,240 Q464,240 483.5,252 Q503,264 515,299"/> 
            <glyph glyph-name="ª" unicode="&#xAA;" horiz-adv-x="400" d=" M68,591 Q79,639 119.5,671.5 Q160,704 225,704 Q306,704 353,665.5 Q400,627 400,538 L400,300 L300,300 L292,344 Q271,319 244,307.5 Q217,296 179,296 Q154,296 131,303.5 Q108,311 91,326 Q74,341 63.5,363.5 Q53,386 53,416 Q53,475 95,510.5 Q137,546 220,546 L282,546 L282,559 Q282,585 267,597.5 Q252,610 225,610 Q204,610 189,600 Q174,590 167,567 M174,424 Q174,407 185.5,399.5 Q197,392 215,392 Q247,392 264.5,411 Q282,430 282,453 L282,458 L221,458 Q198,458 186,448.5 Q174,439 174,424"/> 
            <glyph glyph-name="«" unicode="&#xAB;" horiz-adv-x="663" d=" M340,357 L663,586 L663,422 L504,310 L663,198 L663,34 L340,263 M40,357 L363,586 L363,422 L204,310 L363,198 L363,34 L40,263"/> 
            <glyph glyph-name="¬" unicode="&#xAC;" horiz-adv-x="555" d=" M54,425 L555,425 L555,120 L393,120 L393,279 L54,279"/> 
            <glyph glyph-name="®" unicode="&#xAE;" horiz-adv-x="824" d=" M54,350 Q54,433 83.5,504.5 Q113,576 164.5,628.5 Q216,681 286.5,710.5 Q357,740 439,740 Q521,740 591,710.5 Q661,681 713,628.5 Q765,576 794.5,504.5 Q824,433 824,350 Q824,267 794.5,195.5 Q765,124 713,71.5 Q661,19 591,-10.5 Q521,-40 439,-40 Q357,-40 286.5,-10.5 Q216,19 164.5,71.5 Q113,124 83.5,195.5 Q54,267 54,350 M398,319 L392,319 L392,137 L281,137 L281,563 L452,563 Q524,563 560.5,531 Q597,499 597,441 Q597,390 571.5,361 Q546,332 507,324 L621,145 Q660,182 682,234.5 Q704,287 704,350 Q704,410 684.5,460 Q665,510 629.5,546.5 Q594,583 545.5,603.5 Q497,624 439,624 Q381,624 332.5,603.5 Q284,583 248.5,546.5 Q213,510 193.5,460 Q174,410 174,350 Q174,290 193.5,240 Q213,190 248.5,153.5 Q284,117 332.5,96.5 Q381,76 439,76 Q490,76 534,92 Q578,108 612,137 L507,137 M392,476 L392,406 L442,406 Q470,406 478,415 Q486,424 486,441 Q486,459 478,467.5 Q470,476 442,476"/> 
            <glyph glyph-name="¯" unicode="&#xAF;" horiz-adv-x="286" d=" M9,734 L286,734 L286,612 L9,612"/> 
            <glyph glyph-name="°" unicode="&#xB0;" horiz-adv-x="340" d=" M54,572 Q54,602 65,628 Q76,654 95,673 Q114,692 140,703 Q166,714 197,714 Q228,714 254,703 Q280,692 299,673 Q318,654 329,628 Q340,602 340,572 Q340,542 329,516 Q318,490 299,471 Q280,452 254,441 Q228,430 197,430 Q166,430 140,441 Q114,452 95,471 Q76,490 65,516 Q54,542 54,572 M151,572 Q151,551 163.5,538 Q176,525 197,525 Q218,525 230.5,538 Q243,551 243,572 Q243,593 230.5,606 Q218,619 197,619 Q176,619 163.5,606 Q151,593 151,572"/> 
            <glyph glyph-name="±" unicode="&#xB1;" horiz-adv-x="558" d=" M379,682 L379,504 L557,504 L557,364 L379,364 L379,186 L239,186 L239,364 L61,364 L61,504 L239,504 L239,682 M558,65676 L558,65536 L62,65536 L62,65676"/> 
            <glyph glyph-name="²" unicode="&#xB2;" horiz-adv-x="305" d=" M25,339 L172,517 Q193,542 193,572 Q193,587 185.5,596.5 Q178,606 162,606 Q148,606 137,595 Q126,584 124,564 L27,589 Q36,642 73,673 Q110,704 164,704 Q230,704 266,671.5 Q302,639 302,582 Q302,551 290,523.5 Q278,496 260,474 L191,390 L305,390 L305,300 L25,300"/> 
            <glyph glyph-name="³" unicode="&#xB3;" horiz-adv-x="325" d=" M128,438 Q130,418 142.5,405 Q155,392 175,392 Q192,392 205,402.5 Q218,413 218,436 Q218,458 205.5,470.5 Q193,483 175,483 Q153,483 138,473 L94,532 L155,610 L47,610 L47,700 L297,700 L297,654 L214,551 Q267,547 296,514 Q325,481 325,435 Q325,373 287,334.5 Q249,296 177,296 Q144,296 117.5,306.5 Q91,317 72,335 Q53,353 42,376.5 Q31,400 30,427"/> 
            <glyph glyph-name="´" unicode="&#xB4;" horiz-adv-x="285" d=" M77,708 L285,708 L133,548 L14,548"/> 
            <glyph glyph-name="µ" unicode="&#xB5;" horiz-adv-x="540" d=" M376,0 L376,58 Q356,30 320,11 Q284,-8 233,-8 L229,-8 L229,-204 L65,-204 L65,504 L229,504 L229,210 Q229,175 244,156.5 Q259,138 286,138 Q328,138 352,174.5 Q376,211 376,283 L376,504 L540,504 L540,0"/> 
            <glyph glyph-name="¶" unicode="&#xB6;" horiz-adv-x="715" d=" M49,457 Q49,507 68,551.5 Q87,596 120,629 Q153,662 197.5,681 Q242,700 292,700 L715,700 L715,576 L653,576 L653,-204 L513,-204 L513,576 L432,576 L432,-204 L292,-204 L292,214 Q242,214 197.5,233 Q153,252 120,285 Q87,318 68,362.5 Q49,407 49,457"/> 
            <glyph glyph-name="·" unicode="&#xB7;" horiz-adv-x="258" d=" M72,375 Q72,415 98.5,441.5 Q125,468 165,468 Q205,468 231.5,441.5 Q258,415 258,375 Q258,335 231.5,308.5 Q205,282 165,282 Q125,282 98.5,308.5 Q72,335 72,375"/> 
            <glyph glyph-name="¸" unicode="&#xB8;" horiz-adv-x="264" d=" M177,-279 L5,-200 L150,-54 L264,-54"/> 
            <glyph glyph-name="¹" unicode="&#xB9;" horiz-adv-x="217" d=" M217,700 L217,300 L105,300 L105,562 L24,524 L24,635 L160,700"/> 
            <glyph glyph-name="º" unicode="&#xBA;" horiz-adv-x="472" d=" M54,500 Q54,541 67,578 Q80,615 106.5,643 Q133,671 172,687.5 Q211,704 263,704 Q315,704 354,687.5 Q393,671 419,643 Q445,615 458.5,578 Q472,541 472,500 Q472,459 458.5,422 Q445,385 419,357 Q393,329 354,312.5 Q315,296 263,296 Q211,296 172,312.5 Q133,329 106.5,357 Q80,385 67,422 Q54,459 54,500 M187,500 Q187,457 206.5,431.5 Q226,406 263,406 Q300,406 319.5,431.5 Q339,457 339,500 Q339,543 319.5,568.5 Q300,594 263,594 Q226,594 206.5,568.5 Q187,543 187,500"/> 
            <glyph glyph-name="»" unicode="&#xBB;" horiz-adv-x="668" d=" M368,263 L45,34 L45,198 L204,310 L45,422 L45,586 L368,357 M668,263 L345,34 L345,198 L504,310 L345,422 L345,586 L668,357"/> 
            <glyph glyph-name="¼" unicode="&#xBC;" horiz-adv-x="755" d=" M607,61 L438,61 L438,110 L598,400 L712,400 L712,154 L755,154 L755,61 L712,61 L712,0 L607,0 M607,154 L607,256 L555,154 M711,675 L173,-44 L85,26 L623,745 M217,700 L217,300 L105,300 L105,562 L24,524 L24,635 L160,700"/> 
            <glyph glyph-name="½" unicode="&#xBD;" horiz-adv-x="801" d=" M711,675 L173,-44 L85,26 L623,745 M217,700 L217,300 L105,300 L105,562 L24,524 L24,635 L160,700 M521,65575 L668,65753 Q689,65778 689,65808 Q689,65823 681.5,65832.5 Q674,65842 658,65842 Q644,65842 633,65831 Q622,65820 620,65800 L523,65825 Q532,65878 569,65909 Q606,65940 660,65940 Q726,65940 762,65907.5 Q798,65875 798,65818 Q798,65787 786,65759.5 Q774,65732 756,65710 L687,65626 L801,65626 L801,65536 L521,65536"/> 
            <glyph glyph-name="¾" unicode="&#xBE;" horiz-adv-x="781" d=" M633,61 L464,61 L464,110 L624,400 L738,400 L738,154 L781,154 L781,61 L738,61 L738,0 L633,0 M633,154 L633,256 L581,154 M756,675 L218,-44 L130,26 L668,745 M128,438 Q130,418 142.5,405 Q155,392 175,392 Q192,392 205,402.5 Q218,413 218,436 Q218,458 205.5,470.5 Q193,483 175,483 Q153,483 138,473 L94,532 L155,610 L47,610 L47,700 L297,700 L297,654 L214,551 Q267,547 296,514 Q325,481 325,435 Q325,373 287,334.5 Q249,296 177,296 Q144,296 117.5,306.5 Q91,317 72,335 Q53,353 42,376.5 Q31,400 30,427"/> 
            <glyph glyph-name="¿" unicode="&#xBF;" horiz-adv-x="438" d=" M86,178 Q106,234 142,258.5 Q178,283 236,283 Q267,283 294,274 Q321,265 340.5,248 Q360,231 371.5,207.5 Q383,184 383,155 Q383,104 356,68.5 Q329,33 265,10 Q223,-5 205.5,-18 Q188,-31 188,-51 Q188,-66 201,-78 Q214,-90 237,-90 Q263,-90 277.5,-72.5 Q292,-55 295,-32 L438,-56 Q432,-88 416,-116 Q400,-144 374.5,-165.5 Q349,-187 314.5,-199.5 Q280,-212 238,-212 Q147,-212 95.5,-170 Q44,-128 44,-60 Q44,-24 55,2 Q66,28 85.5,46.5 Q105,65 133,78.5 Q161,92 195,104 Q226,115 238,125 Q250,135 250,149 Q250,159 243,164.5 Q236,170 227,170 Q213,170 205,162.5 Q197,155 191,138 M325,415 Q325,377 299.5,351.5 Q274,326 236,326 Q198,326 172.5,351.5 Q147,377 147,415 Q147,453 172.5,478.5 Q198,504 236,504 Q274,504 299.5,478.5 Q325,453 325,415"/> 
            <glyph glyph-name="À" unicode="&#xC0;" horiz-adv-x="649" d=" M420,149 L234,149 L189,0 L5,0 L242,700 L412,700 L649,0 L465,0 M279,301 L375,301 L327,465 M413,744 L294,744 L142,904 L350,904"/> 
            <glyph glyph-name="Á" unicode="&#xC1;" horiz-adv-x="649" d=" M420,149 L234,149 L189,0 L5,0 L242,700 L412,700 L649,0 L465,0 M279,301 L375,301 L327,465 M292,904 L500,904 L348,744 L229,744"/> 
            <glyph glyph-name="Â" unicode="&#xC2;" horiz-adv-x="649" d=" M420,149 L234,149 L189,0 L5,0 L242,700 L412,700 L649,0 L465,0 M279,301 L375,301 L327,465 M306,954 L348,954 L524,762 L381,762 L327,818 L273,762 L130,762"/> 
            <glyph glyph-name="Ã" unicode="&#xC3;" horiz-adv-x="649" d=" M420,149 L234,149 L189,0 L5,0 L242,700 L412,700 L649,0 L465,0 M279,301 L375,301 L327,465 M123,820 Q140,861 176.5,888 Q213,915 258,915 Q283,915 300,909 Q317,903 331,896.5 Q345,890 359,884 Q373,878 391,878 Q411,878 425,888.5 Q439,899 453,919 L532,854 Q515,813 478.5,786 Q442,759 397,759 Q372,759 355,765 Q338,771 323.5,777.5 Q309,784 295.5,790 Q282,796 264,796 Q244,796 230,785.5 Q216,775 202,755"/> 
            <glyph glyph-name="Ä" unicode="&#xC4;" horiz-adv-x="649" d=" M420,149 L234,149 L189,0 L5,0 L242,700 L412,700 L649,0 L465,0 M279,301 L375,301 L327,465 M144,847 Q144,882 166.5,905.5 Q189,929 226,929 Q263,929 285.5,905.5 Q308,882 308,847 Q308,812 285.5,788.5 Q263,765 226,765 Q189,765 166.5,788.5 Q144,812 144,847 M347,847 Q347,882 369.5,905.5 Q392,929 429,929 Q466,929 488.5,905.5 Q511,882 511,847 Q511,812 488.5,788.5 Q466,765 429,765 Q392,765 369.5,788.5 Q347,812 347,847"/> 
            <glyph glyph-name="Å" unicode="&#xC5;" horiz-adv-x="649" d=" M420,149 L234,149 L189,0 L5,0 L242,700 L412,700 L649,0 L465,0 M279,301 L375,301 L327,465 M219,851 Q219,897 249,927.5 Q279,958 327,958 Q375,958 405,927.5 Q435,897 435,851 Q435,805 405,774.5 Q375,744 327,744 Q279,744 249,774.5 Q219,805 219,851 M297,851 Q297,837 305,828 Q313,819 327,819 Q341,819 349,828 Q357,837 357,851 Q357,865 349,874 Q341,883 327,883 Q313,883 305,874 Q297,865 297,851"/> 
            <glyph glyph-name="Æ" unicode="&#xC6;" horiz-adv-x="885" d=" M875,548 L577,548 L577,449 L811,449 L811,297 L577,297 L577,152 L885,152 L885,0 L399,0 L399,149 L249,149 L189,0 L5,0 L304,700 L875,700 M310,301 L399,301 L399,479 L382,479"/> 
            <glyph glyph-name="Ç" unicode="&#xC7;" horiz-adv-x="684" d=" M524,447 Q516,469 503.5,489 Q491,509 473.5,524 Q456,539 432.5,547.5 Q409,556 379,556 Q347,556 318,543 Q289,530 266.5,504 Q244,478 231,439.5 Q218,401 218,350 Q218,299 231,260.5 Q244,222 266,196 Q288,170 317.5,157 Q347,144 379,144 Q410,144 433.5,152.5 Q457,161 474,176 Q491,191 503.5,210.5 Q516,230 524,253 L682,209 Q652,100 574,46 Q496,-8 381,-8 Q311,-8 249,15 Q187,38 140.5,83 Q94,128 67,195 Q40,262 40,350 Q40,438 67.5,505 Q95,572 142,617 Q189,662 251,685 Q313,708 381,708 Q502,708 580.5,651 Q659,594 684,493 M394,-279 L222,-200 L367,-54 L481,-54"/> 
            <glyph glyph-name="È" unicode="&#xC8;" horiz-adv-x="567" d=" M557,700 L557,548 L259,548 L259,449 L493,449 L493,297 L259,297 L259,152 L567,152 L567,0 L81,0 L81,700 M416,744 L297,744 L145,904 L353,904"/> 
            <glyph glyph-name="É" unicode="&#xC9;" horiz-adv-x="567" d=" M557,700 L557,548 L259,548 L259,449 L493,449 L493,297 L259,297 L259,152 L567,152 L567,0 L81,0 L81,700 M272,904 L480,904 L328,744 L209,744"/> 
            <glyph glyph-name="Ê" unicode="&#xCA;" horiz-adv-x="567" d=" M557,700 L557,548 L259,548 L259,449 L493,449 L493,297 L259,297 L259,152 L567,152 L567,0 L81,0 L81,700 M304,954 L346,954 L522,762 L379,762 L325,818 L271,762 L128,762"/> 
            <glyph glyph-name="Ë" unicode="&#xCB;" horiz-adv-x="567" d=" M557,700 L557,548 L259,548 L259,449 L493,449 L493,297 L259,297 L259,152 L567,152 L567,0 L81,0 L81,700 M138,847 Q138,882 160.5,905.5 Q183,929 220,929 Q257,929 279.5,905.5 Q302,882 302,847 Q302,812 279.5,788.5 Q257,765 220,765 Q183,765 160.5,788.5 Q138,812 138,847 M341,847 Q341,882 363.5,905.5 Q386,929 423,929 Q460,929 482.5,905.5 Q505,882 505,847 Q505,812 482.5,788.5 Q460,765 423,765 Q386,765 363.5,788.5 Q341,812 341,847"/> 
            <glyph glyph-name="Ì" unicode="&#xCC;" horiz-adv-x="278" d=" M259,0 L81,0 L81,700 L259,700 M65814,744 L65695,744 L65543,904 L65751,904"/> 
            <glyph glyph-name="Í" unicode="&#xCD;" horiz-adv-x="333" d=" M259,0 L81,0 L81,700 L259,700 M125,904 L333,904 L181,744 L62,744"/> 
            <glyph glyph-name="Î" unicode="&#xCE;" horiz-adv-x="367" d=" M259,0 L81,0 L81,700 L259,700 M65685,954 L65727,954 L65903,762 L65760,762 L65706,818 L65652,762 L65509,762"/> 
            <glyph glyph-name="Ï" unicode="&#xCF;" horiz-adv-x="354" d=" M259,0 L81,0 L81,700 L259,700 M65523,847 Q65523,882 65545.5,905.5 Q65568,929 65605,929 Q65642,929 65664.5,905.5 Q65687,882 65687,847 Q65687,812 65664.5,788.5 Q65642,765 65605,765 Q65568,765 65545.5,788.5 Q65523,812 65523,847 M65726,847 Q65726,882 65748.5,905.5 Q65771,929 65808,929 Q65845,929 65867.5,905.5 Q65890,882 65890,847 Q65890,812 65867.5,788.5 Q65845,765 65808,765 Q65771,765 65748.5,788.5 Q65726,812 65726,847"/> 
            <glyph glyph-name="Ð" unicode="&#xD0;" horiz-adv-x="685" d=" M20,416 L102,416 L102,700 L339,700 Q405,700 467.5,680 Q530,660 578.5,617 Q627,574 656,508 Q685,442 685,350 Q685,258 656,192 Q627,126 578.5,83 Q530,40 467.5,20 Q405,0 339,0 L102,0 L102,284 L20,284 M317,152 Q353,152 387,161.5 Q421,171 448,193.5 Q475,216 491,254.5 Q507,293 507,350 Q507,407 491,445.5 Q475,484 448,506.5 Q421,529 387,538.5 Q353,548 317,548 L276,548 L276,416 L370,416 L370,284 L276,284 L276,152"/> 
            <glyph glyph-name="Ñ" unicode="&#xD1;" horiz-adv-x="645" d=" M645,700 L645,0 L472,0 L241,418 L241,0 L81,0 L81,700 L254,700 L485,282 L485,700 M159,820 Q176,861 212.5,888 Q249,915 294,915 Q319,915 336,909 Q353,903 367,896.5 Q381,890 395,884 Q409,878 427,878 Q447,878 461,888.5 Q475,899 489,919 L568,854 Q551,813 514.5,786 Q478,759 433,759 Q408,759 391,765 Q374,771 359.5,777.5 Q345,784 331.5,790 Q318,796 300,796 Q280,796 266,785.5 Q252,775 238,755"/> 
            <glyph glyph-name="Ò" unicode="&#xD2;" horiz-adv-x="728" d=" M384,708 Q450,708 512,686 Q574,664 622,620 Q670,576 699,508.5 Q728,441 728,350 Q728,259 699,191.5 Q670,124 622,80 Q574,36 512,14 Q450,-8 384,-8 Q318,-8 256,14 Q194,36 146,80 Q98,124 69,191.5 Q40,259 40,350 Q40,441 69,508.5 Q98,576 146,620 Q194,664 256,686 Q318,708 384,708 M384,556 Q350,556 320,544 Q290,532 267.5,506.5 Q245,481 231.5,442 Q218,403 218,350 Q218,297 231.5,258 Q245,219 267.5,193.5 Q290,168 320,156 Q350,144 384,144 Q418,144 448,156 Q478,168 500.5,193.5 Q523,219 536.5,258 Q550,297 550,350 Q550,403 536.5,442 Q523,481 500.5,506.5 Q478,532 448,544 Q418,556 384,556 M469,744 L350,744 L198,904 L406,904"/> 
            <glyph glyph-name="Ó" unicode="&#xD3;" horiz-adv-x="728" d=" M384,708 Q450,708 512,686 Q574,664 622,620 Q670,576 699,508.5 Q728,441 728,350 Q728,259 699,191.5 Q670,124 622,80 Q574,36 512,14 Q450,-8 384,-8 Q318,-8 256,14 Q194,36 146,80 Q98,124 69,191.5 Q40,259 40,350 Q40,441 69,508.5 Q98,576 146,620 Q194,664 256,686 Q318,708 384,708 M384,556 Q350,556 320,544 Q290,532 267.5,506.5 Q245,481 231.5,442 Q218,403 218,350 Q218,297 231.5,258 Q245,219 267.5,193.5 Q290,168 320,156 Q350,144 384,144 Q418,144 448,156 Q478,168 500.5,193.5 Q523,219 536.5,258 Q550,297 550,350 Q550,403 536.5,442 Q523,481 500.5,506.5 Q478,532 448,544 Q418,556 384,556 M349,904 L557,904 L405,744 L286,744"/> 
            <glyph glyph-name="Ô" unicode="&#xD4;" horiz-adv-x="728" d=" M384,708 Q450,708 512,686 Q574,664 622,620 Q670,576 699,508.5 Q728,441 728,350 Q728,259 699,191.5 Q670,124 622,80 Q574,36 512,14 Q450,-8 384,-8 Q318,-8 256,14 Q194,36 146,80 Q98,124 69,191.5 Q40,259 40,350 Q40,441 69,508.5 Q98,576 146,620 Q194,664 256,686 Q318,708 384,708 M384,556 Q350,556 320,544 Q290,532 267.5,506.5 Q245,481 231.5,442 Q218,403 218,350 Q218,297 231.5,258 Q245,219 267.5,193.5 Q290,168 320,156 Q350,144 384,144 Q418,144 448,156 Q478,168 500.5,193.5 Q523,219 536.5,258 Q550,297 550,350 Q550,403 536.5,442 Q523,481 500.5,506.5 Q478,532 448,544 Q418,556 384,556 M363,954 L405,954 L581,762 L438,762 L384,818 L330,762 L187,762"/> 
            <glyph glyph-name="Õ" unicode="&#xD5;" horiz-adv-x="728" d=" M384,708 Q450,708 512,686 Q574,664 622,620 Q670,576 699,508.5 Q728,441 728,350 Q728,259 699,191.5 Q670,124 622,80 Q574,36 512,14 Q450,-8 384,-8 Q318,-8 256,14 Q194,36 146,80 Q98,124 69,191.5 Q40,259 40,350 Q40,441 69,508.5 Q98,576 146,620 Q194,664 256,686 Q318,708 384,708 M384,556 Q350,556 320,544 Q290,532 267.5,506.5 Q245,481 231.5,442 Q218,403 218,350 Q218,297 231.5,258 Q245,219 267.5,193.5 Q290,168 320,156 Q350,144 384,144 Q418,144 448,156 Q478,168 500.5,193.5 Q523,219 536.5,258 Q550,297 550,350 Q550,403 536.5,442 Q523,481 500.5,506.5 Q478,532 448,544 Q418,556 384,556 M180,820 Q197,861 233.5,888 Q270,915 315,915 Q340,915 357,909 Q374,903 388,896.5 Q402,890 416,884 Q430,878 448,878 Q468,878 482,888.5 Q496,899 510,919 L589,854 Q572,813 535.5,786 Q499,759 454,759 Q429,759 412,765 Q395,771 380.5,777.5 Q366,784 352.5,790 Q339,796 321,796 Q301,796 287,785.5 Q273,775 259,755"/> 
            <glyph glyph-name="Ö" unicode="&#xD6;" horiz-adv-x="728" d=" M384,708 Q450,708 512,686 Q574,664 622,620 Q670,576 699,508.5 Q728,441 728,350 Q728,259 699,191.5 Q670,124 622,80 Q574,36 512,14 Q450,-8 384,-8 Q318,-8 256,14 Q194,36 146,80 Q98,124 69,191.5 Q40,259 40,350 Q40,441 69,508.5 Q98,576 146,620 Q194,664 256,686 Q318,708 384,708 M384,556 Q350,556 320,544 Q290,532 267.5,506.5 Q245,481 231.5,442 Q218,403 218,350 Q218,297 231.5,258 Q245,219 267.5,193.5 Q290,168 320,156 Q350,144 384,144 Q418,144 448,156 Q478,168 500.5,193.5 Q523,219 536.5,258 Q550,297 550,350 Q550,403 536.5,442 Q523,481 500.5,506.5 Q478,532 448,544 Q418,556 384,556 M201,847 Q201,882 223.5,905.5 Q246,929 283,929 Q320,929 342.5,905.5 Q365,882 365,847 Q365,812 342.5,788.5 Q320,765 283,765 Q246,765 223.5,788.5 Q201,812 201,847 M404,847 Q404,882 426.5,905.5 Q449,929 486,929 Q523,929 545.5,905.5 Q568,882 568,847 Q568,812 545.5,788.5 Q523,765 486,765 Q449,765 426.5,788.5 Q404,812 404,847"/> 
            <glyph glyph-name="×" unicode="&#xD7;" horiz-adv-x="562" d=" M153,571 L308,416 L463,571 L562,472 L407,317 L562,162 L463,63 L308,218 L153,63 L54,162 L209,317 L54,472"/> 
            <glyph glyph-name="Ø" unicode="&#xD8;" horiz-adv-x="728" d=" M384,708 Q428,708 470,699 Q512,690 550,670 L610,748 L716,670 L653,588 Q688,545 708,485.5 Q728,426 728,350 Q728,259 699,191.5 Q670,124 622,80 Q574,36 512,14 Q450,-8 384,-8 Q340,-8 298,1 Q256,10 218,30 L158,-48 L52,30 L115,112 Q80,155 60,214.5 Q40,274 40,350 Q40,441 69,508.5 Q98,576 146,620 Q194,664 256,686 Q318,708 384,708 M550,350 Q550,376 546.5,398 Q543,420 537,440 L318,158 Q348,146 384,146 Q418,146 448,158 Q478,170 500.5,195 Q523,220 536.5,258.5 Q550,297 550,350 M384,554 Q350,554 320,542 Q290,530 267.5,505 Q245,480 231.5,441.5 Q218,403 218,350 Q218,324 221.5,302 Q225,280 231,260 L450,542 Q420,554 384,554"/> 
            <glyph glyph-name="Ù" unicode="&#xD9;" horiz-adv-x="611" d=" M611,266 Q611,196 591,144.5 Q571,93 534.5,59 Q498,25 447.5,8.5 Q397,-8 336,-8 Q275,-8 224.5,8.5 Q174,25 137.5,59 Q101,93 81,144.5 Q61,196 61,266 L61,700 L225,700 L225,268 Q225,202 257,174 Q289,146 336,146 Q383,146 415,174 Q447,202 447,268 L447,700 L611,700 M419,744 L300,744 L148,904 L356,904"/> 
            <glyph glyph-name="Ú" unicode="&#xDA;" horiz-adv-x="611" d=" M611,266 Q611,196 591,144.5 Q571,93 534.5,59 Q498,25 447.5,8.5 Q397,-8 336,-8 Q275,-8 224.5,8.5 Q174,25 137.5,59 Q101,93 81,144.5 Q61,196 61,266 L61,700 L225,700 L225,268 Q225,202 257,174 Q289,146 336,146 Q383,146 415,174 Q447,202 447,268 L447,700 L611,700 M316,904 L524,904 L372,744 L253,744"/> 
            <glyph glyph-name="Û" unicode="&#xDB;" horiz-adv-x="611" d=" M611,266 Q611,196 591,144.5 Q571,93 534.5,59 Q498,25 447.5,8.5 Q397,-8 336,-8 Q275,-8 224.5,8.5 Q174,25 137.5,59 Q101,93 81,144.5 Q61,196 61,266 L61,700 L225,700 L225,268 Q225,202 257,174 Q289,146 336,146 Q383,146 415,174 Q447,202 447,268 L447,700 L611,700 M315,954 L357,954 L533,762 L390,762 L336,818 L282,762 L139,762"/> 
            <glyph glyph-name="Ü" unicode="&#xDC;" horiz-adv-x="611" d=" M611,266 Q611,196 591,144.5 Q571,93 534.5,59 Q498,25 447.5,8.5 Q397,-8 336,-8 Q275,-8 224.5,8.5 Q174,25 137.5,59 Q101,93 81,144.5 Q61,196 61,266 L61,700 L225,700 L225,268 Q225,202 257,174 Q289,146 336,146 Q383,146 415,174 Q447,202 447,268 L447,700 L611,700 M153,847 Q153,882 175.5,905.5 Q198,929 235,929 Q272,929 294.5,905.5 Q317,882 317,847 Q317,812 294.5,788.5 Q272,765 235,765 Q198,765 175.5,788.5 Q153,812 153,847 M356,847 Q356,882 378.5,905.5 Q401,929 438,929 Q475,929 497.5,905.5 Q520,882 520,847 Q520,812 497.5,788.5 Q475,765 438,765 Q401,765 378.5,788.5 Q356,812 356,847"/> 
            <glyph glyph-name="Ý" unicode="&#xDD;" horiz-adv-x="586" d=" M186,700 L293,468 L400,700 L586,700 L382,298 L382,0 L204,0 L204,298 L0,700 M266,904 L474,904 L322,744 L203,744"/> 
            <glyph glyph-name="Þ" unicode="&#xDE;" horiz-adv-x="602" d=" M259,133 L259,0 L81,0 L81,700 L259,700 L259,567 L369,567 Q424,567 467.5,551.5 Q511,536 541,507.5 Q571,479 586.5,439 Q602,399 602,350 Q602,301 586.5,261 Q571,221 541,192.5 Q511,164 467.5,148.5 Q424,133 369,133 M357,279 Q395,279 413.5,298.5 Q432,318 432,350 Q432,382 413.5,401.5 Q395,421 357,421 L259,421 L259,279"/> 
            <glyph glyph-name="ß" unicode="&#xDF;" horiz-adv-x="557" d=" M29,450 L72,450 L72,500 Q72,551 89.5,590 Q107,629 137.5,655.5 Q168,682 209,695 Q250,708 297,708 Q349,708 388.5,694.5 Q428,681 454,657.5 Q480,634 493,601.5 Q506,569 506,531 Q506,505 498.5,484.5 Q491,464 479,447.5 Q467,431 452,419.5 Q437,408 421,401 Q484,378 520.5,332.5 Q557,287 557,208 Q557,152 540.5,111.5 Q524,71 494,44.5 Q464,18 422,5 Q380,-8 329,-8 Q306,-8 283,-5.5 Q260,-3 249,0 L249,134 Q264,128 278,124.5 Q292,121 309,121 Q351,121 376,147 Q401,173 401,217 Q401,259 371.5,286.5 Q342,314 286,314 L262,314 L262,450 L279,450 Q315,450 337.5,467.5 Q360,485 360,520 Q360,543 344.5,562.5 Q329,582 297,582 Q268,582 249,561.5 Q230,541 230,503 L230,0 L72,0 L72,314 L29,314"/> 
            <glyph glyph-name="à" unicode="&#xE0;" horiz-adv-x="475" d=" M53,368 Q60,398 77,424.5 Q94,451 119.5,470.5 Q145,490 178.5,501 Q212,512 253,512 Q305,512 346,500 Q387,488 415.5,462.5 Q444,437 459.5,397 Q475,357 475,301 L475,0 L349,0 L338,54 Q312,22 278,7 Q244,-8 195,-8 Q163,-8 134,2 Q105,12 83,31 Q61,50 48,78.5 Q35,107 35,145 Q35,220 88,265 Q141,310 247,310 L327,310 L327,327 Q327,361 307.5,376.5 Q288,392 253,392 Q227,392 207.5,379.5 Q188,367 179,338 M188,155 Q188,135 203,125 Q218,115 241,115 Q281,115 304,138 Q327,161 327,194 L327,200 L248,200 Q219,200 203.5,187.5 Q188,175 188,155 M353,548 L234,548 L82,708 L290,708"/> 
            <glyph glyph-name="á" unicode="&#xE1;" horiz-adv-x="475" d=" M53,368 Q60,398 77,424.5 Q94,451 119.5,470.5 Q145,490 178.5,501 Q212,512 253,512 Q305,512 346,500 Q387,488 415.5,462.5 Q444,437 459.5,397 Q475,357 475,301 L475,0 L349,0 L338,54 Q312,22 278,7 Q244,-8 195,-8 Q163,-8 134,2 Q105,12 83,31 Q61,50 48,78.5 Q35,107 35,145 Q35,220 88,265 Q141,310 247,310 L327,310 L327,327 Q327,361 307.5,376.5 Q288,392 253,392 Q227,392 207.5,379.5 Q188,367 179,338 M188,155 Q188,135 203,125 Q218,115 241,115 Q281,115 304,138 Q327,161 327,194 L327,200 L248,200 Q219,200 203.5,187.5 Q188,175 188,155 M226,708 L434,708 L282,548 L163,548"/> 
            <glyph glyph-name="â" unicode="&#xE2;" horiz-adv-x="475" d=" M53,368 Q60,398 77,424.5 Q94,451 119.5,470.5 Q145,490 178.5,501 Q212,512 253,512 Q305,512 346,500 Q387,488 415.5,462.5 Q444,437 459.5,397 Q475,357 475,301 L475,0 L349,0 L338,54 Q312,22 278,7 Q244,-8 195,-8 Q163,-8 134,2 Q105,12 83,31 Q61,50 48,78.5 Q35,107 35,145 Q35,220 88,265 Q141,310 247,310 L327,310 L327,327 Q327,361 307.5,376.5 Q288,392 253,392 Q227,392 207.5,379.5 Q188,367 179,338 M188,155 Q188,135 203,125 Q218,115 241,115 Q281,115 304,138 Q327,161 327,194 L327,200 L248,200 Q219,200 203.5,187.5 Q188,175 188,155 M240,758 L282,758 L458,566 L315,566 L261,622 L207,566 L64,566"/> 
            <glyph glyph-name="ã" unicode="&#xE3;" horiz-adv-x="475" d=" M53,368 Q60,398 77,424.5 Q94,451 119.5,470.5 Q145,490 178.5,501 Q212,512 253,512 Q305,512 346,500 Q387,488 415.5,462.5 Q444,437 459.5,397 Q475,357 475,301 L475,0 L349,0 L338,54 Q312,22 278,7 Q244,-8 195,-8 Q163,-8 134,2 Q105,12 83,31 Q61,50 48,78.5 Q35,107 35,145 Q35,220 88,265 Q141,310 247,310 L327,310 L327,327 Q327,361 307.5,376.5 Q288,392 253,392 Q227,392 207.5,379.5 Q188,367 179,338 M188,155 Q188,135 203,125 Q218,115 241,115 Q281,115 304,138 Q327,161 327,194 L327,200 L248,200 Q219,200 203.5,187.5 Q188,175 188,155 M59,624 Q76,665 112.5,692 Q149,719 194,719 Q219,719 236,713 Q253,707 267,700.5 Q281,694 295,688 Q309,682 327,682 Q347,682 361,692.5 Q375,703 389,723 L468,658 Q451,617 414.5,590 Q378,563 333,563 Q308,563 291,569 Q274,575 259.5,581.5 Q245,588 231.5,594 Q218,600 200,600 Q180,600 166,589.5 Q152,579 138,559"/> 
            <glyph glyph-name="ä" unicode="&#xE4;" horiz-adv-x="475" d=" M53,368 Q60,398 77,424.5 Q94,451 119.5,470.5 Q145,490 178.5,501 Q212,512 253,512 Q305,512 346,500 Q387,488 415.5,462.5 Q444,437 459.5,397 Q475,357 475,301 L475,0 L349,0 L338,54 Q312,22 278,7 Q244,-8 195,-8 Q163,-8 134,2 Q105,12 83,31 Q61,50 48,78.5 Q35,107 35,145 Q35,220 88,265 Q141,310 247,310 L327,310 L327,327 Q327,361 307.5,376.5 Q288,392 253,392 Q227,392 207.5,379.5 Q188,367 179,338 M188,155 Q188,135 203,125 Q218,115 241,115 Q281,115 304,138 Q327,161 327,194 L327,200 L248,200 Q219,200 203.5,187.5 Q188,175 188,155 M75,651 Q75,686 97.5,709.5 Q120,733 157,733 Q194,733 216.5,709.5 Q239,686 239,651 Q239,616 216.5,592.5 Q194,569 157,569 Q120,569 97.5,592.5 Q75,616 75,651 M278,651 Q278,686 300.5,709.5 Q323,733 360,733 Q397,733 419.5,709.5 Q442,686 442,651 Q442,616 419.5,592.5 Q397,569 360,569 Q323,569 300.5,592.5 Q278,616 278,651"/> 
            <glyph glyph-name="å" unicode="&#xE5;" horiz-adv-x="475" d=" M53,368 Q60,398 77,424.5 Q94,451 119.5,470.5 Q145,490 178.5,501 Q212,512 253,512 Q305,512 346,500 Q387,488 415.5,462.5 Q444,437 459.5,397 Q475,357 475,301 L475,0 L349,0 L338,54 Q312,22 278,7 Q244,-8 195,-8 Q163,-8 134,2 Q105,12 83,31 Q61,50 48,78.5 Q35,107 35,145 Q35,220 88,265 Q141,310 247,310 L327,310 L327,327 Q327,361 307.5,376.5 Q288,392 253,392 Q227,392 207.5,379.5 Q188,367 179,338 M188,155 Q188,135 203,125 Q218,115 241,115 Q281,115 304,138 Q327,161 327,194 L327,200 L248,200 Q219,200 203.5,187.5 Q188,175 188,155 M148,655 Q148,701 178,731.5 Q208,762 256,762 Q304,762 334,731.5 Q364,701 364,655 Q364,609 334,578.5 Q304,548 256,548 Q208,548 178,578.5 Q148,609 148,655 M226,655 Q226,641 234,632 Q242,623 256,623 Q270,623 278,632 Q286,641 286,655 Q286,669 278,678 Q270,687 256,687 Q242,687 234,678 Q226,669 226,655"/> 
            <glyph glyph-name="æ" unicode="&#xE6;" horiz-adv-x="825" d=" M53,368 Q60,398 77,424.5 Q94,451 119.5,470.5 Q145,490 178.5,501 Q212,512 253,512 Q306,512 346,498.5 Q386,485 418,456 Q447,479 487,495.5 Q527,512 578,512 Q649,512 696.5,488 Q744,464 772.5,427 Q801,390 813,346 Q825,302 825,262 L825,202 L485,202 Q496,166 521.5,145.5 Q547,125 585,125 Q619,125 643,138 Q667,151 687,185 L817,139 Q785,70 727.5,31 Q670,-8 578,-8 Q508,-8 459,17 Q410,42 380,81 Q350,33 305.5,12.5 Q261,-8 201,-8 Q166,-8 136,2 Q106,12 83.5,31 Q61,50 48,78.5 Q35,107 35,145 Q35,220 88,265 Q141,310 247,310 L327,310 L327,327 Q327,361 307.5,377 Q288,393 253,393 Q227,393 207.5,380 Q188,367 179,338 M578,393 Q547,393 520.5,372 Q494,351 486,310 L671,310 Q667,342 643.5,367.5 Q620,393 578,393 M188,155 Q188,135 203,125 Q218,115 241,115 Q281,115 304,138 Q327,161 327,194 L327,202 L248,202 Q219,202 203.5,188.5 Q188,175 188,155"/> 
            <glyph glyph-name="ç" unicode="&#xE7;" horiz-adv-x="543" d=" M543,139 Q509,63 449.5,27.5 Q390,-8 300,-8 Q238,-8 189.5,12.5 Q141,33 107.5,68.5 Q74,104 56.5,151.5 Q39,199 39,252 Q39,305 56.5,352.5 Q74,400 107.5,435.5 Q141,471 189.5,491.5 Q238,512 300,512 Q389,512 451,475.5 Q513,439 542,364 L397,304 Q386,335 363.5,353.5 Q341,372 305,372 Q256,372 232.5,338 Q209,304 209,252 Q209,200 232.5,166 Q256,132 307,132 Q339,132 362,149 Q385,166 402,198 M303,-279 L131,-200 L276,-54 L390,-54"/> 
            <glyph glyph-name="è" unicode="&#xE8;" horiz-adv-x="540" d=" M200,202 Q211,166 236.5,145.5 Q262,125 300,125 Q334,125 358,138 Q382,151 402,185 L532,139 Q500,70 442.5,31 Q385,-8 293,-8 Q225,-8 176.5,16 Q128,40 97.5,77.5 Q67,115 53,161 Q39,207 39,252 Q39,297 53,343 Q67,389 97.5,426.5 Q128,464 176.5,488 Q225,512 293,512 Q364,512 411.5,488 Q459,464 487.5,427 Q516,390 528,346 Q540,302 540,262 L540,202 M293,393 Q262,393 237.5,374.5 Q213,356 202,316 L385,316 Q381,348 358,370.5 Q335,393 293,393 M374,548 L255,548 L103,708 L311,708"/> 
            <glyph glyph-name="é" unicode="&#xE9;" horiz-adv-x="540" d=" M200,202 Q211,166 236.5,145.5 Q262,125 300,125 Q334,125 358,138 Q382,151 402,185 L532,139 Q500,70 442.5,31 Q385,-8 293,-8 Q225,-8 176.5,16 Q128,40 97.5,77.5 Q67,115 53,161 Q39,207 39,252 Q39,297 53,343 Q67,389 97.5,426.5 Q128,464 176.5,488 Q225,512 293,512 Q364,512 411.5,488 Q459,464 487.5,427 Q516,390 528,346 Q540,302 540,262 L540,202 M293,393 Q262,393 237.5,374.5 Q213,356 202,316 L385,316 Q381,348 358,370.5 Q335,393 293,393 M261,708 L469,708 L317,548 L198,548"/> 
            <glyph glyph-name="ê" unicode="&#xEA;" horiz-adv-x="540" d=" M200,202 Q211,166 236.5,145.5 Q262,125 300,125 Q334,125 358,138 Q382,151 402,185 L532,139 Q500,70 442.5,31 Q385,-8 293,-8 Q225,-8 176.5,16 Q128,40 97.5,77.5 Q67,115 53,161 Q39,207 39,252 Q39,297 53,343 Q67,389 97.5,426.5 Q128,464 176.5,488 Q225,512 293,512 Q364,512 411.5,488 Q459,464 487.5,427 Q516,390 528,346 Q540,302 540,262 L540,202 M293,393 Q262,393 237.5,374.5 Q213,356 202,316 L385,316 Q381,348 358,370.5 Q335,393 293,393 M271,758 L313,758 L489,566 L346,566 L292,622 L238,566 L95,566"/> 
            <glyph glyph-name="ë" unicode="&#xEB;" horiz-adv-x="540" d=" M200,202 Q211,166 236.5,145.5 Q262,125 300,125 Q334,125 358,138 Q382,151 402,185 L532,139 Q500,70 442.5,31 Q385,-8 293,-8 Q225,-8 176.5,16 Q128,40 97.5,77.5 Q67,115 53,161 Q39,207 39,252 Q39,297 53,343 Q67,389 97.5,426.5 Q128,464 176.5,488 Q225,512 293,512 Q364,512 411.5,488 Q459,464 487.5,427 Q516,390 528,346 Q540,302 540,262 L540,202 M293,393 Q262,393 237.5,374.5 Q213,356 202,316 L385,316 Q381,348 358,370.5 Q335,393 293,393 M111,651 Q111,686 133.5,709.5 Q156,733 193,733 Q230,733 252.5,709.5 Q275,686 275,651 Q275,616 252.5,592.5 Q230,569 193,569 Q156,569 133.5,592.5 Q111,616 111,651 M314,651 Q314,686 336.5,709.5 Q359,733 396,733 Q433,733 455.5,709.5 Q478,686 478,651 Q478,616 455.5,592.5 Q433,569 396,569 Q359,569 336.5,592.5 Q314,616 314,651"/> 
            <glyph glyph-name="ì" unicode="&#xEC;" horiz-adv-x="243" d=" M478,504 L478,0 L314,0 L314,504 M499,548 L380,548 L228,708 L436,708"/> 
            <glyph glyph-name="í" unicode="&#xED;" horiz-adv-x="314" d=" M478,504 L478,0 L314,0 L314,504 M106,708 L314,708 L162,548 L43,548"/> 
            <glyph glyph-name="î" unicode="&#xEE;" horiz-adv-x="340" d=" M225,504 L225,0 L61,0 L61,504 M378,758 L420,758 L596,566 L453,566 L399,622 L345,566 L202,566"/> 
            <glyph glyph-name="ï" unicode="&#xEF;" horiz-adv-x="327" d=" M225,504 L225,0 L61,0 L61,504 M216,651 Q216,686 238.5,709.5 Q261,733 298,733 Q335,733 357.5,709.5 Q380,686 380,651 Q380,616 357.5,592.5 Q335,569 298,569 Q261,569 238.5,592.5 Q216,616 216,651 M419,651 Q419,686 441.5,709.5 Q464,733 501,733 Q538,733 560.5,709.5 Q583,686 583,651 Q583,616 560.5,592.5 Q538,569 501,569 Q464,569 441.5,592.5 Q419,616 419,651"/> 
            <glyph glyph-name="ð" unicode="&#xF0;" horiz-adv-x="561" d=" M204,618 Q183,629 162.5,637.5 Q142,646 123,652 L193,767 Q216,758 238,748.5 Q260,739 280,728 L316,780 L400,723 L368,677 Q464,610 512.5,514 Q561,418 561,276 Q561,213 544,161 Q527,109 494.5,71.5 Q462,34 413.5,13 Q365,-8 302,-8 Q239,-8 190,12 Q141,32 107.5,67 Q74,102 56.5,149.5 Q39,197 39,252 Q39,307 56.5,354.5 Q74,402 107.5,437 Q141,472 190,492 Q239,512 302,512 Q319,512 330,510.5 Q341,509 355,504 Q342,520 325.5,535.5 Q309,551 290,565 L264,527 L181,585 M206,252 Q206,228 212,206 Q218,184 230,167.5 Q242,151 260,141.5 Q278,132 302,132 Q326,132 344,141.5 Q362,151 374,167.5 Q386,184 391.5,206 Q397,228 397,252 Q397,276 391,298 Q385,320 373.5,336.5 Q362,353 344,362.5 Q326,372 302,372 Q278,372 260,362.5 Q242,353 230,336.5 Q218,320 212,298 Q206,276 206,252"/> 
            <glyph glyph-name="ñ" unicode="&#xF1;" horiz-adv-x="547" d=" M236,504 L236,446 Q256,475 294,493.5 Q332,512 379,512 Q466,512 506.5,468.5 Q547,425 547,346 L547,0 L383,0 L383,298 Q383,330 368,348 Q353,366 326,366 Q284,366 260,329.5 Q236,293 236,221 L236,0 L72,0 L72,504 M112,624 Q129,665 165.5,692 Q202,719 247,719 Q272,719 289,713 Q306,707 320,700.5 Q334,694 348,688 Q362,682 380,682 Q400,682 414,692.5 Q428,703 442,723 L521,658 Q504,617 467.5,590 Q431,563 386,563 Q361,563 344,569 Q327,575 312.5,581.5 Q298,588 284.5,594 Q271,600 253,600 Q233,600 219,589.5 Q205,579 191,559"/> 
            <glyph glyph-name="ò" unicode="&#xF2;" horiz-adv-x="571" d=" M39,252 Q39,304 56,351 Q73,398 106,434 Q139,470 189,491 Q239,512 305,512 Q371,512 421,491 Q471,470 504,434 Q537,398 554,351 Q571,304 571,252 Q571,200 554,153 Q537,106 504,70 Q471,34 421,13 Q371,-8 305,-8 Q239,-8 189,13 Q139,34 106,70 Q73,106 56,153 Q39,200 39,252 M203,252 Q203,198 227.5,165 Q252,132 305,132 Q358,132 382.5,165 Q407,198 407,252 Q407,306 382.5,339 Q358,372 305,372 Q252,372 227.5,339 Q203,306 203,252 M389,548 L270,548 L118,708 L326,708"/> 
            <glyph glyph-name="ó" unicode="&#xF3;" horiz-adv-x="571" d=" M39,252 Q39,304 56,351 Q73,398 106,434 Q139,470 189,491 Q239,512 305,512 Q371,512 421,491 Q471,470 504,434 Q537,398 554,351 Q571,304 571,252 Q571,200 554,153 Q537,106 504,70 Q471,34 421,13 Q371,-8 305,-8 Q239,-8 189,13 Q139,34 106,70 Q73,106 56,153 Q39,200 39,252 M203,252 Q203,198 227.5,165 Q252,132 305,132 Q358,132 382.5,165 Q407,198 407,252 Q407,306 382.5,339 Q358,372 305,372 Q252,372 227.5,339 Q203,306 203,252 M276,708 L484,708 L332,548 L213,548"/> 
            <glyph glyph-name="ô" unicode="&#xF4;" horiz-adv-x="571" d=" M39,252 Q39,304 56,351 Q73,398 106,434 Q139,470 189,491 Q239,512 305,512 Q371,512 421,491 Q471,470 504,434 Q537,398 554,351 Q571,304 571,252 Q571,200 554,153 Q537,106 504,70 Q471,34 421,13 Q371,-8 305,-8 Q239,-8 189,13 Q139,34 106,70 Q73,106 56,153 Q39,200 39,252 M203,252 Q203,198 227.5,165 Q252,132 305,132 Q358,132 382.5,165 Q407,198 407,252 Q407,306 382.5,339 Q358,372 305,372 Q252,372 227.5,339 Q203,306 203,252 M284,758 L326,758 L502,566 L359,566 L305,622 L251,566 L108,566"/> 
            <glyph glyph-name="õ" unicode="&#xF5;" horiz-adv-x="571" d=" M39,252 Q39,304 56,351 Q73,398 106,434 Q139,470 189,491 Q239,512 305,512 Q371,512 421,491 Q471,470 504,434 Q537,398 554,351 Q571,304 571,252 Q571,200 554,153 Q537,106 504,70 Q471,34 421,13 Q371,-8 305,-8 Q239,-8 189,13 Q139,34 106,70 Q73,106 56,153 Q39,200 39,252 M203,252 Q203,198 227.5,165 Q252,132 305,132 Q358,132 382.5,165 Q407,198 407,252 Q407,306 382.5,339 Q358,372 305,372 Q252,372 227.5,339 Q203,306 203,252 M101,624 Q118,665 154.5,692 Q191,719 236,719 Q261,719 278,713 Q295,707 309,700.5 Q323,694 337,688 Q351,682 369,682 Q389,682 403,692.5 Q417,703 431,723 L510,658 Q493,617 456.5,590 Q420,563 375,563 Q350,563 333,569 Q316,575 301.5,581.5 Q287,588 273.5,594 Q260,600 242,600 Q222,600 208,589.5 Q194,579 180,559"/> 
            <glyph glyph-name="ö" unicode="&#xF6;" horiz-adv-x="571" d=" M39,252 Q39,304 56,351 Q73,398 106,434 Q139,470 189,491 Q239,512 305,512 Q371,512 421,491 Q471,470 504,434 Q537,398 554,351 Q571,304 571,252 Q571,200 554,153 Q537,106 504,70 Q471,34 421,13 Q371,-8 305,-8 Q239,-8 189,13 Q139,34 106,70 Q73,106 56,153 Q39,200 39,252 M203,252 Q203,198 227.5,165 Q252,132 305,132 Q358,132 382.5,165 Q407,198 407,252 Q407,306 382.5,339 Q358,372 305,372 Q252,372 227.5,339 Q203,306 203,252 M122,651 Q122,686 144.5,709.5 Q167,733 204,733 Q241,733 263.5,709.5 Q286,686 286,651 Q286,616 263.5,592.5 Q241,569 204,569 Q167,569 144.5,592.5 Q122,616 122,651 M325,651 Q325,686 347.5,709.5 Q370,733 407,733 Q444,733 466.5,709.5 Q489,686 489,651 Q489,616 466.5,592.5 Q444,569 407,569 Q370,569 347.5,592.5 Q325,616 325,651"/> 
            <glyph glyph-name="÷" unicode="&#xF7;" horiz-adv-x="530" d=" M38,375 L530,375 L530,255 L38,255 M191,124 Q191,164 217.5,190.5 Q244,217 284,217 Q324,217 350.5,190.5 Q377,164 377,124 Q377,84 350.5,57.5 Q324,31 284,31 Q244,31 217.5,57.5 Q191,84 191,124 M191,506 Q191,546 217.5,572.5 Q244,599 284,599 Q324,599 350.5,572.5 Q377,546 377,506 Q377,466 350.5,439.5 Q324,413 284,413 Q244,413 217.5,439.5 Q191,466 191,506"/> 
            <glyph glyph-name="ø" unicode="&#xF8;" horiz-adv-x="578" d=" M39,252 Q39,304 56,351 Q73,398 106,434 Q139,470 189,491 Q239,512 305,512 Q364,512 412,495 L472,572 L578,493 L519,417 Q545,383 558,341 Q571,299 571,252 Q571,200 554,153 Q537,106 504,70 Q471,34 421,13 Q371,-8 305,-8 Q246,-8 198,9 L138,-68 L32,11 L91,87 Q65,121 52,163 Q39,205 39,252 M407,271 L295,132 L305,132 Q356,132 381.5,165 Q407,198 407,252 M203,233 L315,372 L305,372 Q254,372 228.5,339 Q203,306 203,252"/> 
            <glyph glyph-name="ù" unicode="&#xF9;" horiz-adv-x="540" d=" M376,0 L376,58 Q356,30 320,11 Q284,-8 233,-8 Q151,-8 108,37.5 Q65,83 65,174 L65,504 L229,504 L229,210 Q229,175 244,156.5 Q259,138 286,138 Q328,138 352,174.5 Q376,211 376,283 L376,504 L540,504 L540,0 M383,548 L264,548 L112,708 L320,708"/> 
            <glyph glyph-name="ú" unicode="&#xFA;" horiz-adv-x="540" d=" M376,0 L376,58 Q356,30 320,11 Q284,-8 233,-8 Q151,-8 108,37.5 Q65,83 65,174 L65,504 L229,504 L229,210 Q229,175 244,156.5 Q259,138 286,138 Q328,138 352,174.5 Q376,211 376,283 L376,504 L540,504 L540,0 M281,708 L489,708 L337,548 L218,548"/> 
            <glyph glyph-name="û" unicode="&#xFB;" horiz-adv-x="540" d=" M376,0 L376,58 Q356,30 320,11 Q284,-8 233,-8 Q151,-8 108,37.5 Q65,83 65,174 L65,504 L229,504 L229,210 Q229,175 244,156.5 Q259,138 286,138 Q328,138 352,174.5 Q376,211 376,283 L376,504 L540,504 L540,0 M283,758 L325,758 L501,566 L358,566 L304,622 L250,566 L107,566"/> 
            <glyph glyph-name="ü" unicode="&#xFC;" horiz-adv-x="540" d=" M376,0 L376,58 Q356,30 320,11 Q284,-8 233,-8 Q151,-8 108,37.5 Q65,83 65,174 L65,504 L229,504 L229,210 Q229,175 244,156.5 Q259,138 286,138 Q328,138 352,174.5 Q376,211 376,283 L376,504 L540,504 L540,0 M123,651 Q123,686 145.5,709.5 Q168,733 205,733 Q242,733 264.5,709.5 Q287,686 287,651 Q287,616 264.5,592.5 Q242,569 205,569 Q168,569 145.5,592.5 Q123,616 123,651 M326,651 Q326,686 348.5,709.5 Q371,733 408,733 Q445,733 467.5,709.5 Q490,686 490,651 Q490,616 467.5,592.5 Q445,569 408,569 Q371,569 348.5,592.5 Q326,616 326,651"/> 
            <glyph glyph-name="ý" unicode="&#xFD;" horiz-adv-x="511" d=" M184,40 L3,504 L172,504 L263,259 L353,504 L511,504 L249,-204 L95,-204 M238,708 L446,708 L294,548 L175,548"/> 
            <glyph glyph-name="þ" unicode="&#xFE;" horiz-adv-x="578" d=" M578,252 Q578,192 560.5,143.5 Q543,95 512,61.5 Q481,28 438.5,10 Q396,-8 346,-8 Q270,-8 236,30 L236,-204 L72,-204 L72,700 L236,700 L236,461 Q258,485 288,498.5 Q318,512 362,512 Q410,512 449.5,494 Q489,476 517.5,442.5 Q546,409 562,360.5 Q578,312 578,252 M418,252 Q418,315 390.5,343.5 Q363,372 322,372 Q281,372 254.5,343.5 Q228,315 228,252 Q228,189 254.5,160.5 Q281,132 322,132 Q363,132 390.5,160.5 Q418,189 418,252"/> 
            <glyph glyph-name="ÿ" unicode="&#xFF;" horiz-adv-x="511" d=" M184,40 L3,504 L172,504 L263,259 L353,504 L511,504 L249,-204 L95,-204 M79,651 Q79,686 101.5,709.5 Q124,733 161,733 Q198,733 220.5,709.5 Q243,686 243,651 Q243,616 220.5,592.5 Q198,569 161,569 Q124,569 101.5,592.5 Q79,616 79,651 M282,651 Q282,686 304.5,709.5 Q327,733 364,733 Q401,733 423.5,709.5 Q446,686 446,651 Q446,616 423.5,592.5 Q401,569 364,569 Q327,569 304.5,592.5 Q282,616 282,651"/> 
            <glyph glyph-name="ı" unicode="&#x131;" horiz-adv-x="224" d=" M224,504 L224,0 L60,0 L60,504"/> 
            <glyph glyph-name="Ł" unicode="&#x141;" horiz-adv-x="577" d=" M289,700 L289,464 L361,504 L426,387 L289,310 L289,152 L577,152 L577,0 L111,0 L111,211 L68,187 L3,304 L111,364 L111,700"/> 
            <glyph glyph-name="ł" unicode="&#x142;" horiz-adv-x="414" d=" M134,396 L134,708 L298,708 L298,487 L349,516 L414,399 L298,334 L298,0 L134,0 L134,242 L83,214 L18,331"/> 
            <glyph glyph-name="Œ" unicode="&#x152;" horiz-adv-x="1036" d=" M1026,700 L1026,548 L728,548 L728,449 L962,449 L962,297 L728,297 L728,152 L1036,152 L1036,0 L550,0 L550,40 Q514,14 473.5,3 Q433,-8 384,-8 Q318,-8 256,14 Q194,36 146,80 Q98,124 69,191.5 Q40,259 40,350 Q40,441 69,508.5 Q98,576 146,620 Q194,664 256,686 Q318,708 384,708 Q434,708 474,696.5 Q514,685 550,660 L550,700 M384,554 Q350,554 320,542 Q290,530 267.5,505 Q245,480 231.5,441.5 Q218,403 218,350 Q218,297 231.5,258.5 Q245,220 267.5,195 Q290,170 320,158 Q350,146 384,146 Q418,146 448,158 Q478,170 500.5,195 Q523,220 536.5,258.5 Q550,297 550,350 Q550,403 536.5,441.5 Q523,480 500.5,505 Q478,530 448,542 Q418,554 384,554"/> 
            <glyph glyph-name="œ" unicode="&#x153;" horiz-adv-x="917" d=" M39,252 Q39,304 56,351 Q73,398 106,434 Q139,470 189,491 Q239,512 305,512 Q365,512 412,494 Q459,476 492,445 Q522,475 566,493.5 Q610,512 670,512 Q741,512 788.5,488 Q836,464 864.5,427 Q893,390 905,346 Q917,302 917,262 L917,202 L577,202 Q588,166 613.5,145.5 Q639,125 677,125 Q711,125 735,138 Q759,151 779,185 L909,139 Q877,70 819.5,31 Q762,-8 670,-8 Q610,-8 566.5,10 Q523,28 492,58 Q459,27 412,9.5 Q365,-8 305,-8 Q239,-8 189,13 Q139,34 106,70 Q73,106 56,153 Q39,200 39,252 M209,252 Q209,198 233.5,165 Q258,132 305,132 Q352,132 376.5,165 Q401,198 401,252 Q401,306 376.5,339 Q352,372 305,372 Q258,372 233.5,339 Q209,306 209,252 M670,393 Q639,393 614.5,374.5 Q590,356 579,316 L762,316 Q758,348 735,370.5 Q712,393 670,393"/> 
            <glyph glyph-name="Š" unicode="&#x160;" horiz-adv-x="524" d=" M361,490 Q344,527 326,543.5 Q308,560 284,560 Q264,560 252,549 Q240,538 240,518 Q240,493 261,475.5 Q282,458 313.5,442.5 Q345,427 382,409.5 Q419,392 450.5,367 Q482,342 503,306 Q524,270 524,217 Q524,164 507.5,122.5 Q491,81 460,52 Q429,23 385,7.5 Q341,-8 286,-8 Q233,-8 190,7.5 Q147,23 114.5,50 Q82,77 61.5,112.5 Q41,148 32,188 L170,275 Q177,249 187,225 Q197,201 211.5,183 Q226,165 245.5,154.5 Q265,144 289,144 Q315,144 332,156.5 Q349,169 349,199 Q349,228 328.5,247.5 Q308,267 277,283.5 Q246,300 210.5,317.5 Q175,335 144,360 Q113,385 92.5,422 Q72,459 72,515 Q72,555 86.5,590.5 Q101,626 128,652 Q155,678 193,693 Q231,708 278,708 Q358,708 408.5,677 Q459,646 493,577 M81,954 L224,954 L278,898 L332,954 L475,954 L299,762 L257,762"/> 
            <glyph glyph-name="š" unicode="&#x161;" horiz-adv-x="421" d=" M229,512 Q288,512 329,489 Q370,466 395,428 L306,346 Q273,390 230,390 Q216,390 206,382.5 Q196,375 196,362 Q196,348 209.5,337 Q223,326 255,315 Q292,303 322,290.5 Q352,278 373,261.5 Q394,245 405.5,220.5 Q417,196 417,160 Q417,126 404.5,95.5 Q392,65 368,42 Q344,19 309.5,5.5 Q275,-8 232,-8 Q189,-8 155,3 Q121,14 95.5,33 Q70,52 51,77 Q32,102 19,129 L140,194 Q153,159 175,137.5 Q197,116 232,116 Q249,116 262.5,124 Q276,132 276,150 Q276,163 267,172.5 Q258,182 242.5,189.5 Q227,197 207.5,203.5 Q188,210 167,219 Q144,228 123.5,241 Q103,254 88,271.5 Q73,289 64,312 Q55,335 55,365 Q55,394 67,420.5 Q79,447 101.5,467.5 Q124,488 156,500 Q188,512 229,512 M27,758 L170,758 L224,702 L278,758 L421,758 L245,566 L203,566"/> 
            <glyph glyph-name="Ÿ" unicode="&#x178;" horiz-adv-x="586" d=" M186,700 L293,468 L400,700 L586,700 L382,298 L382,0 L204,0 L204,298 L0,700 M110,847 Q110,882 132.5,905.5 Q155,929 192,929 Q229,929 251.5,905.5 Q274,882 274,847 Q274,812 251.5,788.5 Q229,765 192,765 Q155,765 132.5,788.5 Q110,812 110,847 M313,847 Q313,882 335.5,905.5 Q358,929 395,929 Q432,929 454.5,905.5 Q477,882 477,847 Q477,812 454.5,788.5 Q432,765 395,765 Q358,765 335.5,788.5 Q313,812 313,847"/> 
            <glyph glyph-name="Ž" unicode="&#x17D;" horiz-adv-x="544" d=" M42,700 L528,700 L528,610 L246,150 L544,150 L544,0 L27,0 L27,90 L312,550 L42,550 M89,954 L232,954 L286,898 L340,954 L483,954 L307,762 L265,762"/> 
            <glyph glyph-name="ž" unicode="&#x17E;" horiz-adv-x="451" d=" M53,504 L437,504 L437,426 L243,136 L451,136 L451,0 L37,0 L37,78 L233,368 L53,368 M51,758 L194,758 L248,702 L302,758 L445,758 L269,566 L227,566"/> 
            <glyph glyph-name="ƒ" unicode="&#x192;" horiz-adv-x="519" d=" M109,504 L184,504 L189,530 Q207,623 266.5,665.5 Q326,708 417,708 Q446,708 471,702.5 Q496,697 519,684 L465,560 Q449,574 436.5,577 Q424,580 409,580 Q390,580 374,567.5 Q358,555 351,520 L348,504 L436,504 L411,378 L323,378 L242,-34 Q224,-126 163,-169 Q102,-212 14,-212 Q-18,-212 -43,-206 Q-68,-200 -82,-191 L-29,-54 Q-15,-63 -2.5,-67.5 Q10,-72 26,-72 Q52,-72 64,-55 Q76,-38 83,-5 L158,378 L84,378"/> 
            <glyph glyph-name="ˆ" unicode="&#x2C6;" horiz-adv-x="403" d=" M185,758 L227,758 L403,566 L260,566 L206,622 L152,566 L9,566"/> 
            <glyph glyph-name="ˇ" unicode="&#x2C7;" horiz-adv-x="403" d=" M9,758 L152,758 L206,702 L260,758 L403,758 L227,566 L185,566"/> 
            <glyph glyph-name="˘" unicode="&#x2D8;" horiz-adv-x="268" d=" M111,700 Q111,688 118.5,680 Q126,672 138,672 Q150,672 157.5,680 Q165,688 165,700 L268,700 Q268,676 259,654 Q250,632 233.5,615.5 Q217,599 192.5,589.5 Q168,580 138,580 Q108,580 83.5,589.5 Q59,599 42.5,615.5 Q26,632 17,654 Q8,676 8,700"/> 
            <glyph glyph-name="˙" unicode="&#x2D9;" horiz-adv-x="254" d=" M58,661 Q58,682 65.5,699.5 Q73,717 86,730.5 Q99,744 117,751.5 Q135,759 156,759 Q177,759 195,751.5 Q213,744 226,730.5 Q239,717 246.5,699.5 Q254,682 254,661 Q254,640 246.5,622.5 Q239,605 226,591.5 Q213,578 195,570.5 Q177,563 156,563 Q135,563 117,570.5 Q99,578 86,591.5 Q73,605 65.5,622.5 Q58,640 58,661"/> 
            <glyph glyph-name="˚" unicode="&#x2DA;" horiz-adv-x="229" d=" M13,655 Q13,701 43,731.5 Q73,762 121,762 Q169,762 199,731.5 Q229,701 229,655 Q229,609 199,578.5 Q169,548 121,548 Q73,548 43,578.5 Q13,609 13,655 M91,655 Q91,641 99,632 Q107,623 121,623 Q135,623 143,632 Q151,641 151,655 Q151,669 143,678 Q135,687 121,687 Q107,687 99,678 Q91,669 91,655"/> 
            <glyph glyph-name="˛" unicode="&#x2DB;" horiz-adv-x="238" d=" M163,0 Q140,-21 125.5,-37 Q111,-53 111,-69 Q111,-89 132,-89 Q143,-89 152.5,-80.5 Q162,-72 172,-57 L238,-108 Q210,-155 181,-173.5 Q152,-192 111,-192 Q61,-192 34.5,-167 Q8,-142 8,-100 Q8,-67 25,-42.5 Q42,-18 68,0"/> 
            <glyph glyph-name="˜" unicode="&#x2DC;" horiz-adv-x="423" d=" M14,624 Q31,665 67.5,692 Q104,719 149,719 Q174,719 191,713 Q208,707 222,700.5 Q236,694 250,688 Q264,682 282,682 Q302,682 316,692.5 Q330,703 344,723 L423,658 Q406,617 369.5,590 Q333,563 288,563 Q263,563 246,569 Q229,575 214.5,581.5 Q200,588 186.5,594 Q173,600 155,600 Q135,600 121,589.5 Q107,579 93,559"/> 
            <glyph glyph-name="˝" unicode="&#x2DD;" horiz-adv-x="496" d=" M73,708 L273,708 L136,548 L17,548 M296,708 L496,708 L359,548 L240,548"/> 
            <glyph glyph-name="Ω" unicode="&#x3A9;" horiz-adv-x="665" d=" M665,0 L386,0 L386,80 Q402,111 416.5,147.5 Q431,184 442,227 Q453,270 460,320 Q467,370 467,428 Q467,485 441,519.5 Q415,554 364,554 Q313,554 287,519.5 Q261,485 261,428 Q261,312 285.5,227 Q310,142 342,80 L342,0 L63,0 L63,128 L195,128 Q165,170 141,219 Q121,261 104,317.5 Q87,374 87,440 Q87,498 106,547 Q125,596 161,632 Q197,668 248.5,688 Q300,708 364,708 Q428,708 479.5,688 Q531,668 567,632 Q603,596 622,547 Q641,498 641,440 Q641,374 624,317.5 Q607,261 587,219 Q563,170 533,128 L665,128"/> 
            <glyph glyph-name="π" unicode="&#x3C0;" horiz-adv-x="608" d=" M45,504 L608,504 L608,364 L523,364 L523,0 L365,0 L365,364 L288,364 L288,0 L130,0 L130,364 L45,364"/> 
            <glyph glyph-name="–" unicode="&#x2013;" horiz-adv-x="534" d=" M59,387 L534,387 L534,247 L59,247"/> 
            <glyph glyph-name="—" unicode="&#x2014;" horiz-adv-x="720" d=" M59,387 L720,387 L720,247 L59,247"/> 
            <glyph glyph-name="‘" unicode="&#x2018;" horiz-adv-x="313" d=" M313,456 L197,456 L45,708 L238,708"/> 
            <glyph glyph-name="’" unicode="&#x2019;" horiz-adv-x="307" d=" M114,708 L307,708 L155,456 L39,456"/> 
            <glyph glyph-name="‚" unicode="&#x201A;" horiz-adv-x="307" d=" M114,238 L307,238 L155,-14 L39,-14"/> 
            <glyph glyph-name="“" unicode="&#x201C;" horiz-adv-x="535" d=" M313,456 L197,456 L45,708 L238,708 M535,456 L419,456 L267,708 L460,708"/> 
            <glyph glyph-name="”" unicode="&#x201D;" horiz-adv-x="529" d=" M336,708 L529,708 L377,456 L261,456 M114,708 L307,708 L155,456 L39,456"/> 
            <glyph glyph-name="„" unicode="&#x201E;" horiz-adv-x="529" d=" M336,238 L529,238 L377,-14 L261,-14 M114,238 L307,238 L155,-14 L39,-14"/> 
            <glyph glyph-name="†" unicode="&#x2020;" horiz-adv-x="499" d=" M47,504 L192,504 L192,750 L354,750 L354,504 L499,504 L499,368 L354,368 L354,-50 L192,-50 L192,368 L47,368"/> 
            <glyph glyph-name="‡" unicode="&#x2021;" horiz-adv-x="499" d=" M47,504 L192,504 L192,750 L354,750 L354,504 L499,504 L499,368 L354,368 L354,332 L499,332 L499,196 L354,196 L354,-50 L192,-50 L192,196 L47,196 L47,332 L192,332 L192,368 L47,368"/> 
            <glyph glyph-name="•" unicode="&#x2022;" horiz-adv-x="339" d=" M71,330 Q71,358 81.5,382.5 Q92,407 110,425 Q128,443 152.5,453.5 Q177,464 205,464 Q233,464 257.5,453.5 Q282,443 300,425 Q318,407 328.5,382.5 Q339,358 339,330 Q339,302 328.5,277.5 Q318,253 300,235 Q282,217 257.5,206.5 Q233,196 205,196 Q177,196 152.5,206.5 Q128,217 110,235 Q92,253 81.5,277.5 Q71,302 71,330"/> 
            <glyph glyph-name="…" unicode="&#x2026;" horiz-adv-x="902" d=" M716,85 Q716,125 742.5,151.5 Q769,178 809,178 Q849,178 875.5,151.5 Q902,125 902,85 Q902,45 875.5,18.5 Q849,-8 809,-8 Q769,-8 742.5,18.5 Q716,45 716,85 M394,85 Q394,125 420.5,151.5 Q447,178 487,178 Q527,178 553.5,151.5 Q580,125 580,85 Q580,45 553.5,18.5 Q527,-8 487,-8 Q447,-8 420.5,18.5 Q394,45 394,85 M72,85 Q72,125 98.5,151.5 Q125,178 165,178 Q205,178 231.5,151.5 Q258,125 258,85 Q258,45 231.5,18.5 Q205,-8 165,-8 Q125,-8 98.5,18.5 Q72,45 72,85"/> 
            <glyph glyph-name="‰" unicode="&#x2030;" horiz-adv-x="1188" d=" M852,152 Q852,186 864,215 Q876,244 898,265.5 Q920,287 951,299.5 Q982,312 1020,312 Q1058,312 1089,299.5 Q1120,287 1142,265.5 Q1164,244 1176,215 Q1188,186 1188,152 Q1188,118 1176,89 Q1164,60 1142,38.5 Q1120,17 1089,4.5 Q1058,-8 1020,-8 Q982,-8 951,4.5 Q920,17 898,38.5 Q876,60 864,89 Q852,118 852,152 M968,152 Q968,128 982.5,113 Q997,98 1020,98 Q1043,98 1057.5,113 Q1072,128 1072,152 Q1072,176 1057.5,191 Q1043,206 1020,206 Q997,206 982.5,191 Q968,176 968,152 M47,548 Q47,582 59,611 Q71,640 93,661.5 Q115,683 146,695.5 Q177,708 215,708 Q253,708 284,695.5 Q315,683 337,661.5 Q359,640 371,611 Q383,582 383,548 Q383,514 371,485 Q359,456 337,434.5 Q315,413 284,400.5 Q253,388 215,388 Q177,388 146,400.5 Q115,413 93,434.5 Q71,456 59,485 Q47,514 47,548 M163,548 Q163,524 177.5,509 Q192,494 215,494 Q238,494 252.5,509 Q267,524 267,548 Q267,572 252.5,587 Q238,602 215,602 Q192,602 177.5,587 Q163,572 163,548 M453,152 Q453,186 465,215 Q477,244 499,265.5 Q521,287 552,299.5 Q583,312 621,312 Q659,312 690,299.5 Q721,287 743,265.5 Q765,244 777,215 Q789,186 789,152 Q789,118 777,89 Q765,60 743,38.5 Q721,17 690,4.5 Q659,-8 621,-8 Q583,-8 552,4.5 Q521,17 499,38.5 Q477,60 465,89 Q453,118 453,152 M569,152 Q569,128 583.5,113 Q598,98 621,98 Q644,98 658.5,113 Q673,128 673,152 Q673,176 658.5,191 Q644,206 621,206 Q598,206 583.5,191 Q569,176 569,152 M736,675 L198,-44 L110,26 L648,745"/> 
            <glyph glyph-name="‹" unicode="&#x2039;" horiz-adv-x="363" d=" M40,357 L363,586 L363,422 L204,310 L363,198 L363,34 L40,263"/> 
            <glyph glyph-name="›" unicode="&#x203A;" horiz-adv-x="368" d=" M368,263 L45,34 L45,198 L204,310 L45,422 L45,586 L368,357"/> 
            <glyph glyph-name="⁄" unicode="&#x2044;" horiz-adv-x="629" d=" M629,675 L91,-44 L3,26 L541,745"/> 
            <glyph glyph-name="€" unicode="&#x20AC;" horiz-adv-x="630" d=" M81,492 L126,492 Q142,555 172.5,596.5 Q203,638 240.5,663 Q278,688 320,698 Q362,708 401,708 Q485,708 541,675.5 Q597,643 627,587 L500,512 Q484,538 460,555 Q436,572 401,572 Q384,572 367,569 Q350,566 334.5,557.5 Q319,549 306,533 Q293,517 283,492 L483,492 L425,368 L263,368 L263,332 L483,332 L425,208 L283,208 Q293,184 306.5,169.5 Q320,155 335.5,147.5 Q351,140 367.5,138 Q384,136 401,136 Q436,136 462,153 Q488,170 505,202 L630,119 Q558,-8 401,-8 Q362,-8 320,2 Q278,12 240.5,37 Q203,62 172.5,103.5 Q142,145 126,208 L23,208 L81,332 L109,332 L109,368 L23,368"/> 
            <glyph glyph-name="™" unicode="&#x2122;" horiz-adv-x="788" d=" M21,700 L338,700 L338,600 L234,600 L234,300 L125,300 L125,600 L21,600 M384,700 L497,700 L586,488 L675,700 L788,700 L788,300 L679,300 L679,470 L622,337 L550,337 L493,470 L493,300 L384,300"/> 
            <glyph glyph-name="Ω" unicode="&#x2126;" horiz-adv-x="665" d=" M665,0 L386,0 L386,80 Q402,111 416.5,147.5 Q431,184 442,227 Q453,270 460,320 Q467,370 467,428 Q467,485 441,519.5 Q415,554 364,554 Q313,554 287,519.5 Q261,485 261,428 Q261,312 285.5,227 Q310,142 342,80 L342,0 L63,0 L63,128 L195,128 Q165,170 141,219 Q121,261 104,317.5 Q87,374 87,440 Q87,498 106,547 Q125,596 161,632 Q197,668 248.5,688 Q300,708 364,708 Q428,708 479.5,688 Q531,668 567,632 Q603,596 622,547 Q641,498 641,440 Q641,374 624,317.5 Q607,261 587,219 Q563,170 533,128 L665,128"/> 
            <glyph glyph-name="∂" unicode="&#x2202;" horiz-adv-x="584" d=" M97,561 Q122,626 181.5,667 Q241,708 321,708 Q394,708 444,686 Q494,664 525,621 Q556,578 570,514.5 Q584,451 584,368 Q584,289 567,220.5 Q550,152 513,101 Q476,50 418.5,21 Q361,-8 279,-8 Q224,-8 179.5,8 Q135,24 104,52.5 Q73,81 56.5,121.5 Q40,162 40,211 Q40,277 64,332 Q88,387 130,427 Q172,467 228,489.5 Q284,512 348,512 Q377,512 395,508.5 Q413,505 428,498 Q421,534 398,559 Q375,584 337,584 Q303,584 275.5,570 Q248,556 232,521 M335,378 Q305,378 281.5,364.5 Q258,351 241.5,329 Q225,307 216,279 Q207,251 207,223 Q207,204 211.5,186.5 Q216,169 226,155.5 Q236,142 251.5,134 Q267,126 290,126 Q320,126 343,139 Q366,152 381.5,173.5 Q397,195 405,223 Q413,251 413,281 Q413,378 335,378"/> 
            <glyph glyph-name="∆" unicode="&#x2206;" horiz-adv-x="663" d=" M45,52 L287,700 L421,700 L663,52 L663,0 L45,0 M233,134 L475,134 L354,492"/> 
            <glyph glyph-name="∏" unicode="&#x220F;" horiz-adv-x="536" d=" M80,700 L536,700 L536,0 L368,0 L368,558 L248,558 L248,0 L80,0"/> 
            <glyph glyph-name="∑" unicode="&#x2211;" horiz-adv-x="510" d=" M47,0 L47,69 L223,350 L47,631 L47,700 L510,700 L510,566 L266,566 L383,374 L383,326 L265,134 L510,134 L510,0"/> 
            <glyph glyph-name="−" unicode="&#x2212;" horiz-adv-x="550" d=" M550,387 L550,247 L54,247 L54,387"/> 
            <glyph glyph-name="√" unicode="&#x221A;" horiz-adv-x="618" d=" M47,402 L265,402 L322,224 L456,708 L618,708 L398,0 L253,0 L168,251 L47,251"/> 
            <glyph glyph-name="∞" unicode="&#x221E;" horiz-adv-x="840" d=" M625,294 Q657,294 676,311 Q695,328 695,359 Q695,390 676,407 Q657,424 625,424 Q599,424 573,407.5 Q547,391 526,359 Q547,327 573,310.5 Q599,294 625,294 M641,162 Q616,162 588.5,167 Q561,172 535,183 Q509,194 485,212.5 Q461,231 443,257 Q425,231 401,212.5 Q377,194 351,183 Q325,172 297.5,167 Q270,162 245,162 Q198,162 161,177 Q124,192 98.5,218 Q73,244 59.5,280.5 Q46,317 46,359 Q46,401 59.5,437.5 Q73,474 98.5,500 Q124,526 161,541 Q198,556 245,556 Q270,556 297.5,551 Q325,546 351,534.5 Q377,523 401,505 Q425,487 443,461 Q461,487 485,505 Q509,523 535,534.5 Q561,546 588.5,551 Q616,556 641,556 Q688,556 725,541 Q762,526 787.5,500 Q813,474 826.5,437.5 Q840,401 840,359 Q840,317 826.5,280.5 Q813,244 787.5,218 Q762,192 725,177 Q688,162 641,162 M261,294 Q287,294 313,310.5 Q339,327 360,359 Q339,391 313,407.5 Q287,424 261,424 Q229,424 210,407 Q191,390 191,359 Q191,328 210,311 Q229,294 261,294"/> 
            <glyph glyph-name="∫" unicode="&#x222B;" horiz-adv-x="519" d=" M189,530 Q207,623 266.5,665.5 Q326,708 417,708 Q446,708 471,702.5 Q496,697 519,684 L465,560 Q449,574 436.5,577 Q424,580 409,580 Q390,580 374,567.5 Q358,555 351,520 L242,-34 Q224,-126 163,-169 Q102,-212 14,-212 Q-18,-212 -43,-206 Q-68,-200 -82,-191 L-29,-54 Q-15,-63 -2.5,-67.5 Q10,-72 26,-72 Q52,-72 64,-55 Q76,-38 83,-5"/> 
            <glyph glyph-name="≈" unicode="&#x2248;" horiz-adv-x="595" d=" M313,473 Q322,497 337.5,518 Q353,539 374.5,555 Q396,571 422.5,580.5 Q449,590 480,590 Q512,590 537.5,581 Q563,572 586,561 Q609,550 631.5,541 Q654,532 680,532 Q709,532 728.5,548 Q748,564 765,587 L851,497 Q842,473 826.5,452 Q811,431 789.5,415 Q768,399 741.5,389.5 Q715,380 684,380 Q652,380 626.5,389 Q601,398 578,409 Q555,420 532.5,429 Q510,438 484,438 Q455,438 435.5,422 Q416,406 399,383 M310,424 Q319,448 334.5,469 Q350,490 371.5,506 Q393,522 419.5,531.5 Q446,541 477,541 Q509,541 534.5,532 Q560,523 583,512 Q606,501 628.5,492 Q651,483 677,483 Q706,483 725.5,499 Q745,515 762,538 L848,448 Q839,424 823.5,403 Q808,382 786.5,366 Q765,350 738.5,340.5 Q712,331 681,331 Q649,331 623.5,340 Q598,349 575,360 Q552,371 529.5,380 Q507,389 481,389 Q452,389 432.5,373 Q413,357 396,334"/> 
            <glyph glyph-name="≠" unicode="&#x2260;" horiz-adv-x="528" d=" M116,142 L63,142 L63,282 L199,282 L231,338 L63,338 L63,478 L313,478 L377,589 L498,520 L475,478 L528,478 L528,338 L392,338 L360,282 L528,282 L528,142 L278,142 L214,31 L93,100"/> 
            <glyph glyph-name="≤" unicode="&#x2264;" horiz-adv-x="550" d=" M85,496 L497,700 L497,532 L282,430 L497,328 L497,160 L85,364 M550,140 L550,0 L54,0 L54,140"/> 
            <glyph glyph-name="≥" unicode="&#x2265;" horiz-adv-x="551" d=" M498,364 L86,160 L86,328 L301,430 L86,532 L86,700 L498,496 M551,140 L551,0 L55,0 L55,140"/> 
            <glyph glyph-name="◊" unicode="&#x25CA;" horiz-adv-x="563" d=" M55,350 L237,700 L381,700 L563,350 L381,0 L237,0 M411,350 L309,562 L207,350 L309,138"/> 
            <glyph glyph-name="" unicode="&#xF8FF;" horiz-adv-x="673" d=" M673,22 Q673,14 667,7 Q661,0 651,0 Q648,0 644,1 L377,78 L110,1 Q106,0 103,0 Q93,0 87,7 Q81,14 81,22 L81,617 Q81,634 97,639 L367,717 Q373,719 377,719 Q381,719 387,717 L657,639 Q673,634 673,617 M355,669 L125,602 Q128,555 147,514 Q166,473 196.5,441.5 Q227,410 267.5,390 Q308,370 355,366 M399,366 Q445,370 486,390 Q527,410 557.5,441.5 Q588,473 607,514 Q626,555 629,602 L399,669 M124,51 L355,118 L355,322 Q281,328 220.5,365.5 Q160,403 124,463 M630,463 Q593,403 533,365.5 Q473,328 399,322 L399,118 L630,51"/> 
            <glyph glyph-name="ﬁ" unicode="&#xFB01;" horiz-adv-x="530" d=" M29,504 L83,504 L83,513 Q83,561 102,597.5 Q121,634 154,658.5 Q187,683 231.5,695.5 Q276,708 327,708 Q387,708 426.5,698 Q466,688 499,670 L449,546 Q426,560 397,567 Q368,574 339,574 Q294,574 270.5,557.5 Q247,541 247,508 L247,504 L530,504 L530,0 L366,0 L366,378 L247,378 L247,0 L83,0 L83,378 L29,378"/> 
            <glyph glyph-name="ﬂ" unicode="&#xFB02;" horiz-adv-x="581" d=" M29,504 L83,504 L83,513 Q83,610 134.5,659 Q186,708 277,708 L581,708 L581,0 L417,0 L417,580 L299,580 Q273,580 260,565 Q247,550 247,524 L247,504 L345,504 L345,378 L247,378 L247,0 L83,0 L83,378 L29,378"/> 
            <glyph glyph-name="" unicode="&#xD;" horiz-adv-x="681" d=" M194,301 L214,399 L99,399 L99,517 L238,517 L275,700 L395,700 L358,517 L450,517 L488,700 L608,700 L570,517 L681,517 L681,399 L546,399 L526,301 L641,301 L641,183 L502,183 L465,0 L345,0 L382,183 L290,183 L252,0 L132,0 L170,183 L59,183 L59,301 M314,301 L406,301 L426,399 L334,399"/> 
            <glyph glyph-name="#" unicode="&#x23;" horiz-adv-x="789" d=" M47,548 Q47,582 59,611 Q71,640 93,661.5 Q115,683 146,695.5 Q177,708 215,708 Q253,708 284,695.5 Q315,683 337,661.5 Q359,640 371,611 Q383,582 383,548 Q383,514 371,485 Q359,456 337,434.5 Q315,413 284,400.5 Q253,388 215,388 Q177,388 146,400.5 Q115,413 93,434.5 Q71,456 59,485 Q47,514 47,548 M163,548 Q163,524 177.5,509 Q192,494 215,494 Q238,494 252.5,509 Q267,524 267,548 Q267,572 252.5,587 Q238,602 215,602 Q192,602 177.5,587 Q163,572 163,548 M453,152 Q453,186 465,215 Q477,244 499,265.5 Q521,287 552,299.5 Q583,312 621,312 Q659,312 690,299.5 Q721,287 743,265.5 Q765,244 777,215 Q789,186 789,152 Q789,118 777,89 Q765,60 743,38.5 Q721,17 690,4.5 Q659,-8 621,-8 Q583,-8 552,4.5 Q521,17 499,38.5 Q477,60 465,89 Q453,118 453,152 M569,152 Q569,128 583.5,113 Q598,98 621,98 Q644,98 658.5,113 Q673,128 673,152 Q673,176 658.5,191 Q644,206 621,206 Q598,206 583.5,191 Q569,176 569,152 M736,675 L198,-44 L110,26 L648,745"/> 
            <glyph glyph-name="$" unicode="&#x24;" horiz-adv-x="659" d=" M594,279 Q586,246 574.5,211 Q563,176 546,147 L659,0 L484,0 L450,45 Q413,20 368.5,6 Q324,-8 273,-8 Q223,-8 180.5,6.5 Q138,21 106,48.5 Q74,76 56,115.5 Q38,155 38,206 Q38,243 48.5,274.5 Q59,306 77,332.5 Q95,359 119,380.5 Q143,402 170,419 Q150,448 137,481.5 Q124,515 124,560 Q124,590 136,617 Q148,644 170.5,664.5 Q193,685 225.5,696.5 Q258,708 299,708 Q339,708 371,696 Q403,684 425,664 Q447,644 458.5,618 Q470,592 470,564 Q470,532 463.5,506.5 Q457,481 443.5,460 Q430,439 410,421 Q390,403 363,385 L457,262 Q471,289 481.5,319.5 Q492,350 502,385 M285,128 Q309,128 330.5,134 Q352,140 370,151 L245,318 Q192,279 192,216 Q192,181 217.5,154.5 Q243,128 285,128 M264,550 Q264,532 270.5,515.5 Q277,499 287,485 Q305,496 319,512.5 Q333,529 333,552 Q333,566 323.5,575 Q314,584 299,584 Q284,584 274,575 Q264,566 264,550"/> 
            <glyph glyph-name="%" unicode="&#x25;" horiz-adv-x="241" d=" M72,708 L241,708 L206,449 L107,449"/> 
            <glyph glyph-name="&amp;" unicode="&#x26;" horiz-adv-x="299" d=" M299,750 Q277,708 259.5,664.5 Q242,621 230,573 Q218,525 211.5,470 Q205,415 205,350 Q205,281 211.5,226 Q218,171 230,123.5 Q242,76 259.5,34 Q277,-8 299,-50 L163,-50 Q144,-16 125,23 Q106,62 91,109.5 Q76,157 67,216 Q58,275 58,350 Q58,425 67,484 Q76,543 91,590.5 Q106,638 125,676.5 Q144,715 163,750"/> 
            <glyph glyph-name="'" unicode="&#x27;" horiz-adv-x="263" d=" M158,750 Q177,715 196,676.5 Q215,638 230,590.5 Q245,543 254,484 Q263,425 263,350 Q263,275 254,216 Q245,157 230,109.5 Q215,62 196,23 Q177,-16 158,-50 L22,-50 Q44,-8 61.5,34 Q79,76 91,123.5 Q103,171 109.5,226 Q116,281 116,350 Q116,415 109.5,470 Q103,525 91,573 Q79,621 61.5,664.5 Q44,708 22,750"/> 
            <glyph glyph-name="(" unicode="&#x28;" horiz-adv-x="445" d=" M189,594 L189,708 L301,708 L301,594 L410,629 L445,522 L337,487 L404,394 L313,328 L245,422 L177,328 L86,394 L153,487 L45,522 L80,629"/> 
            <glyph glyph-name=")" unicode="&#x29;" horiz-adv-x="545" d=" M367,565 L367,387 L545,387 L545,247 L367,247 L367,69 L227,69 L227,247 L49,247 L49,387 L227,387 L227,565"/> 
            <glyph glyph-name="*" unicode="&#x2A;" horiz-adv-x="316" d=" M123,146 L316,146 L157,-156 L52,-156"/> 
            </font>
</defs>
</svg>
